<svg width="21" height="24" viewBox="0 0 21 24" fill="none" xmlns="http://www.w3.org/2000/svg">
<path d="M17.2788 12.6808C17.2563 11.7481 17.4951 10.8277 17.9681 10.0235C18.4411 9.21935 19.1296 8.56347 19.9557 8.12995C19.4356 7.40765 18.755 6.81584 17.9674 6.40104C17.1798 5.98625 16.3068 5.75977 15.4169 5.73942C13.515 5.58951 11.435 6.84902 10.6747 6.84902C9.8716 6.84902 8.02717 5.79296 6.58027 5.79296C3.59278 5.84783 0.413879 8.18482 0.413879 12.9378C0.427901 14.4211 0.688908 15.8917 1.18618 17.2892C1.87149 19.2568 4.34768 24.0793 6.93096 23.999C8.28149 23.9669 9.23582 23.0393 10.9933 23.0393C12.6971 23.0393 13.5819 23.999 15.0877 23.999C17.6924 23.9615 19.933 19.582 20.5862 17.6051C19.6077 17.206 18.7705 16.5241 18.1816 15.6467C17.5927 14.7693 17.2788 13.7362 17.2801 12.6795L17.2788 12.6808ZM14.2458 3.8816C14.7191 3.36014 15.0781 2.74539 15.2996 2.07689C15.5211 1.40839 15.6003 0.700934 15.5321 0C14.1283 0.150893 12.831 0.818885 11.8927 1.87388C11.413 2.38679 11.0439 2.99279 10.8081 3.65429C10.5723 4.31578 10.475 5.01867 10.5221 5.71934C11.245 5.73469 11.9609 5.5757 12.6093 5.25581C13.2576 4.93593 13.8194 4.46456 14.2471 3.8816H14.2458Z" fill="black"/>
</svg>
