<svg width="197" height="454" viewBox="0 0 197 454" fill="none" xmlns="http://www.w3.org/2000/svg">
<g clip-path="url(#clip0_176_2022)">
<path d="M141.503 651.72C184.571 622.879 248.224 626.874 280.135 586.028C300.098 560.476 300.677 524.778 295.238 492.814C289.799 460.851 279.24 429.359 280.127 396.948C281.092 361.599 295.577 328.164 302.489 293.484C319.07 210.332 288.452 119.383 224.963 63.1861C212.911 52.5142 197.811 42.5211 181.93 45.1514C162.51 48.374 150.947 69.1323 147.658 88.5447C142.485 119.062 150.525 150.124 159.096 179.861C167.666 209.597 176.943 240.06 174.246 270.893C171.55 301.726 153.727 333.482 124.158 342.608C108.4 347.47 90.8383 345.593 75.8393 352.457C50.8417 363.892 41.8283 395.541 43.9343 422.945C46.0403 450.35 56.1828 476.766 57.2175 504.231C58.2521 531.696 46.4097 563.024 20.2474 571.466C-5.69823 579.834 -32.6538 562.35 -52.1534 543.293C-71.653 524.236 -90.5422 501.492 -117.187 495.734C-169.207 484.489 -216.4 543.894 -268.805 534.62C-294.97 529.988 -315.561 508.363 -326.195 484.011C-336.829 459.659 -339.188 432.621 -341.407 406.145L-349.258 412.502C-359.601 455.582 -370.016 499.891 -363.904 543.77C-357.793 587.65 -331.273 631.621 -289.084 645.144C-264.768 652.936 -238.306 649.961 -213.292 655.087C-168.345 664.296 -133.282 698.01 -96.479 725.403C-59.6759 752.796 -11.936 775.55 30.8513 758.998C79.2634 740.265 98.3755 680.613 141.509 651.734L141.503 651.72Z" fill="#E6F4FA"/>
</g>
<defs>
<clipPath id="clip0_176_2022">
<rect width="197" height="454" fill="white"/>
</clipPath>
</defs>
</svg>
