<svg width="28" height="28" viewBox="0 0 28 28" fill="none" xmlns="http://www.w3.org/2000/svg">
<rect width="28" height="28" rx="9" fill="#E6F4FA"/>
<path d="M17.9582 6.9665V5.6665C17.9582 5.32484 17.6749 5.0415 17.3332 5.0415C16.9915 5.0415 16.7082 5.32484 16.7082 5.6665V6.9165H11.2915V5.6665C11.2915 5.32484 11.0082 5.0415 10.6665 5.0415C10.3249 5.0415 10.0415 5.32484 10.0415 5.6665V6.9665C7.79153 7.17484 6.69987 8.5165 6.5332 10.5082C6.51653 10.7498 6.71653 10.9498 6.94987 10.9498H21.0499C21.2915 10.9498 21.4915 10.7415 21.4665 10.5082C21.2999 8.5165 20.2082 7.17484 17.9582 6.9665Z" fill="#005F8C"/>
<path d="M20.6667 12.2002H7.33333C6.875 12.2002 6.5 12.5752 6.5 13.0335V18.1669C6.5 20.6669 7.75 22.3335 10.6667 22.3335H17.3333C20.25 22.3335 21.5 20.6669 21.5 18.1669V13.0335C21.5 12.5752 21.125 12.2002 20.6667 12.2002ZM11.675 19.1752C11.6333 19.2085 11.5917 19.2502 11.55 19.2752C11.5 19.3085 11.45 19.3335 11.4 19.3502C11.35 19.3752 11.3 19.3919 11.25 19.4002C11.1917 19.4085 11.1417 19.4169 11.0833 19.4169C10.975 19.4169 10.8667 19.3919 10.7667 19.3502C10.6583 19.3085 10.575 19.2502 10.4917 19.1752C10.3417 19.0169 10.25 18.8002 10.25 18.5835C10.25 18.3669 10.3417 18.1502 10.4917 17.9919C10.575 17.9169 10.6583 17.8585 10.7667 17.8169C10.9167 17.7502 11.0833 17.7335 11.25 17.7669C11.3 17.7752 11.35 17.7919 11.4 17.8169C11.45 17.8335 11.5 17.8585 11.55 17.8919C11.5917 17.9252 11.6333 17.9585 11.675 17.9919C11.825 18.1502 11.9167 18.3669 11.9167 18.5835C11.9167 18.8002 11.825 19.0169 11.675 19.1752ZM11.675 16.2585C11.5167 16.4085 11.3 16.5002 11.0833 16.5002C10.8667 16.5002 10.65 16.4085 10.4917 16.2585C10.3417 16.1002 10.25 15.8835 10.25 15.6669C10.25 15.4502 10.3417 15.2335 10.4917 15.0752C10.725 14.8419 11.0917 14.7669 11.4 14.9002C11.5083 14.9419 11.6 15.0002 11.675 15.0752C11.825 15.2335 11.9167 15.4502 11.9167 15.6669C11.9167 15.8835 11.825 16.1002 11.675 16.2585ZM14.5917 19.1752C14.4333 19.3252 14.2167 19.4169 14 19.4169C13.7833 19.4169 13.5667 19.3252 13.4083 19.1752C13.2583 19.0169 13.1667 18.8002 13.1667 18.5835C13.1667 18.3669 13.2583 18.1502 13.4083 17.9919C13.7167 17.6835 14.2833 17.6835 14.5917 17.9919C14.7417 18.1502 14.8333 18.3669 14.8333 18.5835C14.8333 18.8002 14.7417 19.0169 14.5917 19.1752ZM14.5917 16.2585C14.55 16.2919 14.5083 16.3252 14.4667 16.3585C14.4167 16.3919 14.3667 16.4169 14.3167 16.4335C14.2667 16.4585 14.2167 16.4752 14.1667 16.4835C14.1083 16.4919 14.0583 16.5002 14 16.5002C13.7833 16.5002 13.5667 16.4085 13.4083 16.2585C13.2583 16.1002 13.1667 15.8835 13.1667 15.6669C13.1667 15.4502 13.2583 15.2335 13.4083 15.0752C13.4833 15.0002 13.575 14.9419 13.6833 14.9002C13.9917 14.7669 14.3583 14.8419 14.5917 15.0752C14.7417 15.2335 14.8333 15.4502 14.8333 15.6669C14.8333 15.8835 14.7417 16.1002 14.5917 16.2585ZM17.5083 19.1752C17.35 19.3252 17.1333 19.4169 16.9167 19.4169C16.7 19.4169 16.4833 19.3252 16.325 19.1752C16.175 19.0169 16.0833 18.8002 16.0833 18.5835C16.0833 18.3669 16.175 18.1502 16.325 17.9919C16.6333 17.6835 17.2 17.6835 17.5083 17.9919C17.6583 18.1502 17.75 18.3669 17.75 18.5835C17.75 18.8002 17.6583 19.0169 17.5083 19.1752ZM17.5083 16.2585C17.4667 16.2919 17.425 16.3252 17.3833 16.3585C17.3333 16.3919 17.2833 16.4169 17.2333 16.4335C17.1833 16.4585 17.1333 16.4752 17.0833 16.4835C17.025 16.4919 16.9667 16.5002 16.9167 16.5002C16.7 16.5002 16.4833 16.4085 16.325 16.2585C16.175 16.1002 16.0833 15.8835 16.0833 15.6669C16.0833 15.4502 16.175 15.2335 16.325 15.0752C16.4083 15.0002 16.4917 14.9419 16.6 14.9002C16.75 14.8335 16.9167 14.8169 17.0833 14.8502C17.1333 14.8585 17.1833 14.8752 17.2333 14.9002C17.2833 14.9169 17.3333 14.9419 17.3833 14.9752C17.425 15.0085 17.4667 15.0419 17.5083 15.0752C17.6583 15.2335 17.75 15.4502 17.75 15.6669C17.75 15.8835 17.6583 16.1002 17.5083 16.2585Z" fill="#005F8C"/>
</svg>
