<svg width="124" height="124" viewBox="0 0 124 124" fill="none" xmlns="http://www.w3.org/2000/svg">
<path d="M86.5412 18.393V10.333C86.5412 8.21467 84.7846 6.45801 82.6662 6.45801C80.5479 6.45801 78.7912 8.21467 78.7912 10.333V18.083H45.2079V10.333C45.2079 8.21467 43.4512 6.45801 41.3329 6.45801C39.2146 6.45801 37.4579 8.21467 37.4579 10.333V18.393C23.5079 19.6847 16.7396 28.003 15.7062 40.3513C15.6029 41.8497 16.8429 43.0897 18.2896 43.0897H105.71C107.208 43.0897 108.448 41.798 108.293 40.3513C107.26 28.003 100.491 19.6847 86.5412 18.393Z" fill="#EA4335"/>
<path d="M103.333 50.8398H20.6667C17.825 50.8398 15.5 53.1648 15.5 56.0065V87.8332C15.5 103.333 23.25 113.667 41.3333 113.667H66.805C70.37 113.667 72.85 110.205 71.7133 106.847C70.68 103.85 69.8017 100.543 69.8017 98.1665C69.8017 82.5115 82.5633 69.7498 98.2183 69.7498C99.7167 69.7498 101.215 69.8532 102.662 70.1115C105.762 70.5765 108.552 68.1482 108.552 65.0482V56.0582C108.5 53.1648 106.175 50.8398 103.333 50.8398ZM47.585 91.5015C46.6033 92.4315 45.26 92.9998 43.9167 92.9998C43.245 92.9998 42.5733 92.8448 41.9533 92.5865C41.3333 92.3282 40.765 91.9665 40.2483 91.5015C39.3183 90.5198 38.75 89.2282 38.75 87.8332C38.75 87.1615 38.905 86.4898 39.1633 85.8698C39.4217 85.1982 39.7833 84.6815 40.2483 84.1648C40.765 83.6998 41.3333 83.3382 41.9533 83.0798C43.8133 82.2532 46.1383 82.7182 47.585 84.1648C48.05 84.6815 48.4117 85.1982 48.67 85.8698C48.9283 86.4898 49.0833 87.1615 49.0833 87.8332C49.0833 89.2282 48.515 90.5198 47.585 91.5015ZM47.585 73.4182C46.6033 74.3482 45.26 74.9165 43.9167 74.9165C43.245 74.9165 42.5733 74.8132 41.9533 74.5032C41.3333 74.2448 40.765 73.8832 40.2483 73.4182C39.3183 72.4365 38.75 71.0932 38.75 69.7498C38.75 69.0782 38.905 68.4065 39.1633 67.7865C39.4217 67.1665 39.7833 66.5982 40.2483 66.0815C40.765 65.6165 41.3333 65.2548 41.9533 64.9965C43.8133 64.2215 46.1383 64.6348 47.585 66.0815C48.05 66.5982 48.4117 67.1665 48.67 67.7865C48.9283 68.4065 49.0833 69.0782 49.0833 69.7498C49.0833 71.0932 48.515 72.4365 47.585 73.4182ZM66.7533 71.7132C66.495 72.3332 66.1333 72.9015 65.6683 73.4182C65.1517 73.8832 64.5833 74.2448 63.9633 74.5032C63.3433 74.8132 62.6717 74.9165 62 74.9165C60.6567 74.9165 59.3133 74.3482 58.3317 73.4182C57.8667 72.9015 57.505 72.3332 57.2467 71.7132C56.9883 71.0932 56.8333 70.4215 56.8333 69.7498C56.8333 68.4065 57.4017 67.0632 58.3317 66.0815C59.7783 64.6348 62.0517 64.1698 63.9633 64.9965C64.5833 65.2548 65.1517 65.6165 65.6683 66.0815C66.5983 67.0632 67.1667 68.4065 67.1667 69.7498C67.1667 70.4215 67.0633 71.0932 66.7533 71.7132Z" fill="#EA4335"/>
<path d="M98.1667 77.5C86.7483 77.5 77.5 86.7483 77.5 98.1667C77.5 109.585 86.7483 118.833 98.1667 118.833C109.585 118.833 118.833 109.585 118.833 98.1667C118.833 86.7483 109.585 77.5 98.1667 77.5ZM106.433 106.64C105.658 107.415 104.677 107.777 103.695 107.777C102.713 107.777 101.732 107.415 100.957 106.64L98.2183 103.902L95.3767 106.743C94.6017 107.518 93.62 107.88 92.6383 107.88C91.6567 107.88 90.675 107.518 89.9 106.743C88.4017 105.245 88.4017 102.765 89.9 101.267L92.7417 98.425L90.0033 95.6867C88.505 94.1883 88.505 91.7083 90.0033 90.21C91.5017 88.7117 93.9817 88.7117 95.48 90.21L98.2183 93L100.802 90.4167C102.3 88.9183 104.78 88.9183 106.278 90.4167C107.777 91.915 107.777 94.395 106.278 95.8933L103.695 98.4767L106.433 101.215C107.932 102.713 107.932 105.142 106.433 106.64Z" fill="#EA4335"/>
</svg>
