<svg width="40" height="40" viewBox="0 0 40 40" fill="none" xmlns="http://www.w3.org/2000/svg">
<circle cx="20" cy="20" r="20" fill="#FFAF17"/>
<path opacity="0.4" d="M14.7599 30H25.2399C27.9999 30 29.0999 28.31 29.2299 26.25L29.7499 17.99C29.8899 15.83 28.1699 14 25.9999 14C25.3899 14 24.8299 13.65 24.5499 13.11L23.8299 11.66C23.3699 10.75 22.1699 10 21.1499 10H18.8599C17.8299 10 16.6299 10.75 16.1699 11.66L15.4499 13.11C15.1699 13.65 14.6099 14 13.9999 14C11.8299 14 10.1099 15.83 10.2499 17.99L10.7699 26.25C10.8899 28.31 11.9999 30 14.7599 30Z" fill="black"/>
<path d="M21.5 16.75H18.5C18.09 16.75 17.75 16.41 17.75 16C17.75 15.59 18.09 15.25 18.5 15.25H21.5C21.91 15.25 22.25 15.59 22.25 16C22.25 16.41 21.91 16.75 21.5 16.75Z" fill="black"/>
<path d="M20.0001 26.1301C21.8668 26.1301 23.3801 24.6168 23.3801 22.7501C23.3801 20.8834 21.8668 19.3701 20.0001 19.3701C18.1334 19.3701 16.6201 20.8834 16.6201 22.7501C16.6201 24.6168 18.1334 26.1301 20.0001 26.1301Z" fill="black"/>
</svg>
