<svg width="54" height="54" viewBox="0 0 54 54" fill="none" xmlns="http://www.w3.org/2000/svg">
<path d="M5.40039 24.5996C5.40039 36.5996 15.0004 46.1996 27.0004 46.1996C38.8504 46.1996 48.6004 36.5996 48.6004 24.5996V29.3996C48.6004 41.3996 39.0004 50.9996 27.0004 50.9996C15.1504 50.9996 5.40039 41.3996 5.40039 29.3996V24.5996Z" fill="#FFB961"/>
<path d="M5.40039 24.5996C5.40039 36.5996 15.0004 46.1996 27.0004 46.1996C38.8504 46.1996 48.6004 36.5996 48.6004 24.5996V29.3996C48.6004 41.3996 39.0004 50.9996 27.0004 50.9996C15.1504 50.9996 5.40039 41.3996 5.40039 29.3996V24.5996Z" fill="#F3A250"/>
<path d="M27.0004 46.1996C22.6504 46.1996 18.4504 44.8496 15.1504 42.5996V47.3996C18.6004 49.6496 22.6504 50.9996 27.0004 50.9996C38.8504 50.9996 48.6004 41.3996 48.6004 29.3996V24.5996C48.6004 36.4496 38.8504 46.1996 27.0004 46.1996Z" fill="#EF7B56" fill-opacity="0.376471"/>
<path d="M30.75 45.7502V50.5502C40.8 48.7502 48.6 39.9002 48.6 29.2502V24.4502C48.6 35.2502 40.95 43.9502 30.75 45.7502Z" fill="#F3A250"/>
<path d="M42.9004 39.1496V43.9496C46.5004 40.0496 48.6004 34.9496 48.6004 29.3996V24.5996C48.6004 30.1496 46.3504 35.2496 42.9004 39.1496Z" fill="#EF7B56" fill-opacity="0.376471"/>
<path d="M48.6005 24.6C48.6005 36.6 39.0005 46.2 27.0005 46.2C16.2005 46.2 7.35047 38.4 5.70047 28.05C3.60047 15.15 13.5005 3 27.0005 3C36.1505 3 44.1005 8.7 47.1005 16.95C48.1505 19.2 48.6005 21.9 48.6005 24.6Z" fill="#F9CF6B"/>
<path opacity="0.4" d="M10.6504 35.5504C15.0004 40.8004 21.0004 43.5004 27.0004 43.5004C33.0004 43.5004 39.0004 40.8004 43.3504 35.4004C40.3504 40.8004 34.3504 44.7004 27.0004 44.8504C19.8004 44.8504 13.6504 40.8004 10.6504 35.5504Z" fill="white"/>
<path opacity="0.2" d="M45.3002 16.6504C41.5502 9.45039 34.5002 5.25039 27.0002 5.25039C19.5002 5.25039 12.4502 9.45039 8.7002 16.5004C11.1002 9.60039 18.3002 4.05039 27.0002 3.90039C35.7002 4.05039 42.7502 9.60039 45.3002 16.6504Z" fill="white"/>
<path opacity="0.4" d="M10.6504 35.5504C15.0004 40.8004 21.0004 43.5004 27.0004 43.5004C33.0004 43.5004 39.0004 40.8004 43.3504 35.4004C40.3504 40.8004 34.3504 44.7004 27.0004 44.8504C19.8004 44.8504 13.6504 40.8004 10.6504 35.5504Z" fill="white"/>
<path d="M43.3504 24.6C43.3504 33.6 36.0004 40.95 27.0004 40.95C18.0004 40.95 10.6504 33.6 10.6504 24.6C10.6504 15.6 18.0004 8.25 27.0004 8.25C36.0004 8.25 43.3504 15.6 43.3504 24.6Z" fill="#F3A250"/>
<path d="M32.4008 27L33.3008 32.7C33.4508 33.6 32.5508 34.2 31.8008 33.9L26.7008 31.2C26.4008 31.05 25.9508 31.05 25.6508 31.2L20.5508 33.9C19.8008 34.35 18.9008 33.6 19.0508 32.7L19.9508 27C19.9508 26.7 19.9508 26.25 19.6508 26.1L15.4508 22.05C14.8508 21.45 15.1508 20.4 16.0508 20.25L21.7508 19.35C22.0508 19.35 22.3508 19.05 22.5008 18.75L25.2008 13.5C25.6508 12.75 26.7008 12.75 27.1508 13.5L29.7008 18.75C29.8508 19.05 30.1508 19.35 30.4508 19.35L36.1508 20.25C37.0508 20.4 37.3508 21.45 36.7508 22.05L32.5508 26.1C32.4008 26.25 32.2508 26.7 32.4008 27Z" fill="#EF7B56"/>
<path d="M41.7006 31.65C46.0506 21.3 38.4006 9.6 27.0006 9.6C15.7506 9.6 7.95056 21 12.1506 31.5C7.20056 20.7 15.0006 8.25 27.0006 8.25C39.1506 8.25 46.9506 21 41.7006 31.65Z" fill="#EF7B56"/>
<path d="M33.3002 27.9004L34.2002 33.6004C34.3502 34.5004 33.4502 35.1004 32.7002 34.8004L27.6002 32.1004C27.3002 31.9504 26.8502 31.9504 26.5502 32.1004L21.4502 34.8004C20.7002 35.2504 19.8002 34.5004 19.9502 33.6004L20.8502 27.9004C20.8502 27.6004 20.8502 27.1504 20.5502 27.0004L16.3502 22.9504C15.7502 22.3504 16.0502 21.3004 16.9502 21.1504L22.6502 20.2504C22.9502 20.2504 23.2502 19.9504 23.4002 19.6504L25.9502 14.4004C26.4002 13.6504 27.4502 13.6504 27.9002 14.4004L30.4502 19.6504C30.6002 19.9504 30.9002 20.2504 31.2002 20.2504L36.9002 21.1504C37.8002 21.3004 38.1002 22.3504 37.5002 22.9504L33.6002 27.0004C33.3002 27.1504 33.1502 27.6004 33.3002 27.9004Z" fill="#F9CF6B"/>
<path opacity="0.5" d="M17.4 23.0996C16.8 22.4996 17.1 21.5996 18 21.4496L23.1 20.6996C23.4 20.6996 23.7 20.3996 23.85 20.2496L26.1 15.5996C26.4 14.8496 27.45 14.8496 27.75 15.5996L30 20.2496C30.15 20.5496 30.45 20.6996 30.75 20.6996L35.85 21.4496C36.6 21.5996 36.9 22.4996 36.45 23.0996C36.45 23.0996 33.15 26.6996 26.7 26.6996C21.75 26.6996 17.4 23.0996 17.4 23.0996Z" fill="white"/>
<path opacity="0.7" d="M27.1502 18.7496C26.7002 19.7996 25.9502 20.5496 25.6502 20.3996C25.3502 20.2496 25.2002 19.1996 25.6502 18.1496C26.1002 17.0996 26.8502 16.3496 27.1502 16.4996C27.4502 16.6496 27.6002 17.6996 27.1502 18.7496Z" fill="white"/>
<path d="M18.7506 13.9496C18.3006 13.9496 18.0006 14.0996 17.7006 14.2496C17.8506 14.3996 19.0506 15.5996 18.9006 15.7496C18.7506 15.8996 17.5506 14.6996 17.4006 14.5496C17.2506 14.8496 17.1006 15.1496 17.1006 15.5996C17.1006 17.2496 16.9506 18.2996 16.6506 18.2996C16.5006 18.2996 16.3506 17.2496 16.2006 15.5996C16.2006 15.1496 16.0506 14.8496 15.9006 14.5496C15.7506 14.6996 14.5506 15.8996 14.4006 15.7496C14.2506 15.5996 15.4506 14.3996 15.6006 14.2496C15.3006 14.0996 15.0006 13.9496 14.5506 13.9496C10.9506 13.7996 10.9506 13.3496 14.5506 13.1996C14.8506 13.1996 15.3006 13.0496 15.6006 12.8996C15.4506 12.7496 14.2506 11.5496 14.4006 11.3996C14.5506 11.2496 15.7506 12.4496 15.9006 12.5996C16.0506 12.2996 16.2006 11.9996 16.2006 11.5496C16.3506 7.94961 16.8006 7.94961 16.9506 11.5496C16.9506 11.8496 17.1006 12.2996 17.2506 12.5996C17.4006 12.4496 18.6006 11.2496 18.7506 11.3996C18.9006 11.5496 18.4506 12.1496 17.7006 12.8996V13.0496C18.0006 13.1996 18.3006 13.3496 18.7506 13.3496C20.4006 13.3496 21.4506 13.4996 21.4506 13.7996C21.4506 13.7996 20.4006 13.9496 18.7506 13.9496Z" fill="white"/>
<path opacity="0.2" d="M45.3002 16.6504C41.5502 9.45039 34.5002 5.25039 27.0002 5.25039C19.5002 5.25039 12.4502 9.45039 8.7002 16.5004C11.1002 9.60039 18.3002 4.05039 27.0002 3.90039C35.7002 4.05039 42.7502 9.60039 45.3002 16.6504Z" fill="white"/>
</svg>
