<svg width="20" height="22" viewBox="0 0 20 22" fill="none" xmlns="http://www.w3.org/2000/svg">
<path d="M0.400391 9.59967C0.400391 14.933 4.66706 19.1997 10.0004 19.1997C15.2671 19.1997 19.6004 14.933 19.6004 9.59967V11.733C19.6004 17.0663 15.3337 21.333 10.0004 21.333C4.73372 21.333 0.400391 17.0663 0.400391 11.733V9.59967Z" fill="#FFB961"/>
<path d="M0.400391 9.59967C0.400391 14.933 4.66706 19.1997 10.0004 19.1997C15.2671 19.1997 19.6004 14.933 19.6004 9.59967V11.733C19.6004 17.0663 15.3337 21.333 10.0004 21.333C4.73372 21.333 0.400391 17.0663 0.400391 11.733V9.59967Z" fill="#F3A250"/>
<path d="M10.0001 19.1997C8.06673 19.1997 6.20007 18.5997 4.7334 17.5997V19.733C6.26673 20.733 8.06673 21.333 10.0001 21.333C15.2667 21.333 19.6001 17.0663 19.6001 11.733V9.59967C19.6001 14.8663 15.2667 19.1997 10.0001 19.1997Z" fill="#EF7B56" fill-opacity="0.376471"/>
<path d="M11.667 18.9998V21.1331C16.1337 20.3331 19.6003 16.3998 19.6003 11.6665V9.53314C19.6003 14.3331 16.2003 18.1998 11.667 18.9998Z" fill="#F3A250"/>
<path d="M17.0674 16.0663V18.1997C18.6674 16.4663 19.6007 14.1997 19.6007 11.733V9.59967C19.6007 12.0663 18.6007 14.333 17.0674 16.0663Z" fill="#EF7B56" fill-opacity="0.376471"/>
<path d="M19.6 9.59982C19.6 14.9332 15.3333 19.1998 9.99999 19.1998C5.19999 19.1998 1.26666 15.7332 0.533327 11.1332C-0.400007 5.39982 3.99999 -0.000183105 9.99999 -0.000183105C14.0667 -0.000183105 17.6 2.53315 18.9333 6.19982C19.4 7.19982 19.6 8.39982 19.6 9.59982Z" fill="#F9CF6B"/>
<path opacity="0.4" d="M2.7334 14.4666C4.66673 16.8 7.3334 18 10.0001 18C12.6667 18 15.3334 16.8 17.2667 14.4C15.9334 16.8 13.2667 18.5333 10.0001 18.6C6.80006 18.6 4.06673 16.8 2.7334 14.4666Z" fill="white"/>
<path opacity="0.2" d="M18.1339 6.06663C16.4672 2.86663 13.3339 0.999963 10.0005 0.999963C6.66719 0.999963 3.53385 2.86663 1.86719 5.99996C2.93385 2.9333 6.13385 0.46663 10.0005 0.399963C13.8672 0.46663 17.0005 2.9333 18.1339 6.06663Z" fill="white"/>
<path opacity="0.4" d="M2.7334 14.4666C4.66673 16.8 7.3334 18 10.0001 18C12.6667 18 15.3334 16.8 17.2667 14.4C15.9334 16.8 13.2667 18.5333 10.0001 18.6C6.80006 18.6 4.06673 16.8 2.7334 14.4666Z" fill="white"/>
<path d="M17.2667 9.5998C17.2667 13.5998 14.0001 16.8665 10.0001 16.8665C6.00006 16.8665 2.7334 13.5998 2.7334 9.5998C2.7334 5.5998 6.00006 2.33313 10.0001 2.33313C14.0001 2.33313 17.2667 5.5998 17.2667 9.5998Z" fill="#F3A250"/>
<path d="M12.4006 10.6665L12.8006 13.1998C12.8673 13.5998 12.4673 13.8665 12.1339 13.7332L9.86725 12.5332C9.73392 12.4665 9.53392 12.4665 9.40059 12.5332L7.13392 13.7332C6.80058 13.9332 6.40058 13.5998 6.46725 13.1998L6.86725 10.6665C6.86725 10.5332 6.86725 10.3332 6.73392 10.2665L4.86725 8.4665C4.60058 8.19984 4.73392 7.73317 5.13392 7.6665L7.66725 7.2665C7.80058 7.2665 7.93392 7.13317 8.00058 6.99984L9.20058 4.6665C9.40058 4.33317 9.86725 4.33317 10.0673 4.6665L11.2006 6.99984C11.2673 7.13317 11.4006 7.2665 11.5339 7.2665L14.0673 7.6665C14.4673 7.73317 14.6006 8.19984 14.3339 8.4665L12.4673 10.2665C12.4006 10.3332 12.3339 10.5332 12.4006 10.6665Z" fill="#EF7B56"/>
<path d="M16.5334 12.7331C18.4667 8.13313 15.0667 2.93313 10 2.93313C5.00003 2.93313 1.53336 7.9998 3.40003 12.6665C1.20003 7.86646 4.6667 2.33313 10 2.33313C15.4 2.33313 18.8667 7.9998 16.5334 12.7331Z" fill="#EF7B56"/>
<path d="M12.8 11.0666L13.2 13.6C13.2667 14 12.8667 14.2667 12.5333 14.1333L10.2667 12.9333C10.1333 12.8666 9.93333 12.8666 9.8 12.9333L7.53333 14.1333C7.2 14.3333 6.8 14 6.86667 13.6L7.26667 11.0666C7.26667 10.9333 7.26667 10.7333 7.13333 10.6666L5.26667 8.86665C5 8.59998 5.13333 8.13332 5.53333 8.06665L8.06667 7.66665C8.2 7.66665 8.33333 7.53332 8.4 7.39998L9.53333 5.06665C9.73333 4.73332 10.2 4.73332 10.4 5.06665L11.5333 7.39998C11.6 7.53332 11.7333 7.66665 11.8667 7.66665L14.4 8.06665C14.8 8.13332 14.9333 8.59998 14.6667 8.86665L12.9333 10.6666C12.8 10.7333 12.7333 10.9333 12.8 11.0666Z" fill="#F9CF6B"/>
<path opacity="0.5" d="M5.73346 8.933C5.4668 8.66634 5.60013 8.26634 6.00013 8.19967L8.2668 7.86634C8.40013 7.86634 8.53346 7.733 8.60013 7.66634L9.60013 5.59967C9.73346 5.26634 10.2001 5.26634 10.3335 5.59967L11.3335 7.66634C11.4001 7.79967 11.5335 7.86634 11.6668 7.86634L13.9335 8.19967C14.2668 8.26634 14.4001 8.66634 14.2001 8.933C14.2001 8.933 12.7335 10.533 9.8668 10.533C7.6668 10.533 5.73346 8.933 5.73346 8.933Z" fill="white"/>
<path opacity="0.7" d="M10.0663 6.99952C9.86633 7.46619 9.533 7.79952 9.39966 7.73286C9.26633 7.66619 9.19966 7.19952 9.39966 6.73286C9.59966 6.26619 9.933 5.93286 10.0663 5.99952C10.1997 6.06619 10.2663 6.53286 10.0663 6.99952Z" fill="white"/>
<path d="M6.33327 4.86634C6.13327 4.86634 5.99994 4.933 5.8666 4.99967C5.93327 5.06634 6.4666 5.59967 6.39994 5.66634C6.33327 5.733 5.79994 5.19967 5.73327 5.133C5.6666 5.26634 5.59994 5.39967 5.59994 5.59967C5.59994 6.333 5.53327 6.79967 5.39994 6.79967C5.33327 6.79967 5.2666 6.333 5.19994 5.59967C5.19994 5.39967 5.13327 5.26634 5.0666 5.133C4.99994 5.19967 4.4666 5.733 4.39994 5.66634C4.33327 5.59967 4.8666 5.06634 4.93327 4.99967C4.79993 4.933 4.6666 4.86634 4.4666 4.86634C2.8666 4.79967 2.8666 4.59967 4.4666 4.533C4.59993 4.533 4.79993 4.46634 4.93327 4.39967C4.8666 4.333 4.33327 3.79967 4.39994 3.733C4.4666 3.66634 4.99994 4.19967 5.0666 4.26634C5.13327 4.133 5.19994 3.99967 5.19994 3.79967C5.2666 2.19967 5.4666 2.19967 5.53327 3.79967C5.53327 3.933 5.59994 4.133 5.6666 4.26634C5.73327 4.19967 6.2666 3.66634 6.33327 3.733C6.39994 3.79967 6.19994 4.06634 5.8666 4.39967V4.46634C5.99994 4.533 6.13327 4.59967 6.33327 4.59967C7.0666 4.59967 7.53327 4.66634 7.53327 4.79967C7.53327 4.79967 7.0666 4.86634 6.33327 4.86634Z" fill="white"/>
<path opacity="0.2" d="M18.1339 6.06663C16.4672 2.86663 13.3339 0.999963 10.0005 0.999963C6.66719 0.999963 3.53385 2.86663 1.86719 5.99996C2.93385 2.9333 6.13385 0.46663 10.0005 0.399963C13.8672 0.46663 17.0005 2.9333 18.1339 6.06663Z" fill="white"/>
</svg>
