<svg width="44" height="45" viewBox="0 0 44 45" fill="none" xmlns="http://www.w3.org/2000/svg">
<rect width="44" height="45" rx="10" fill="#005F8C"/>
<path d="M26.7502 14.56V13C26.7502 12.59 26.4102 12.25 26.0002 12.25C25.5902 12.25 25.2502 12.59 25.2502 13V14.5H18.7502V13C18.7502 12.59 18.4102 12.25 18.0002 12.25C17.5902 12.25 17.2502 12.59 17.2502 13V14.56C14.5502 14.81 13.2402 16.42 13.0402 18.81C13.0202 19.1 13.2602 19.34 13.5402 19.34H30.4602C30.7502 19.34 30.9902 19.09 30.9602 18.81C30.7602 16.42 29.4502 14.81 26.7502 14.56Z" fill="white"/>
<path d="M29 26C26.79 26 25 27.79 25 30C25 30.75 25.21 31.46 25.58 32.06C26.27 33.22 27.54 34 29 34C30.46 34 31.73 33.22 32.42 32.06C32.79 31.46 33 30.75 33 30C33 27.79 31.21 26 29 26ZM31.07 29.57L28.94 31.54C28.8 31.67 28.61 31.74 28.43 31.74C28.24 31.74 28.05 31.67 27.9 31.52L26.91 30.53C26.62 30.24 26.62 29.76 26.91 29.47C27.2 29.18 27.68 29.18 27.97 29.47L28.45 29.95L30.05 28.47C30.35 28.19 30.83 28.21 31.11 28.51C31.39 28.81 31.37 29.28 31.07 29.57Z" fill="white"/>
<path d="M30 20.8398H14C13.45 20.8398 13 21.2898 13 21.8398V27.9998C13 30.9998 14.5 32.9998 18 32.9998H22.93C23.62 32.9998 24.1 32.3298 23.88 31.6798C23.68 31.0998 23.51 30.4598 23.51 29.9998C23.51 26.9698 25.98 24.4998 29.01 24.4998C29.3 24.4998 29.59 24.5198 29.87 24.5698C30.47 24.6598 31.01 24.1898 31.01 23.5898V21.8498C31 21.2898 30.55 20.8398 30 20.8398ZM19.21 29.2098C19.02 29.3898 18.76 29.4998 18.5 29.4998C18.24 29.4998 17.98 29.3898 17.79 29.2098C17.61 29.0198 17.5 28.7598 17.5 28.4998C17.5 28.2398 17.61 27.9798 17.79 27.7898C17.89 27.6998 17.99 27.6298 18.12 27.5798C18.49 27.4198 18.93 27.5098 19.21 27.7898C19.39 27.9798 19.5 28.2398 19.5 28.4998C19.5 28.7598 19.39 29.0198 19.21 29.2098ZM19.21 25.7098C19.16 25.7498 19.11 25.7898 19.06 25.8298C19 25.8698 18.94 25.8998 18.88 25.9198C18.82 25.9498 18.76 25.9698 18.7 25.9798C18.63 25.9898 18.56 25.9998 18.5 25.9998C18.24 25.9998 17.98 25.8898 17.79 25.7098C17.61 25.5198 17.5 25.2598 17.5 24.9998C17.5 24.7398 17.61 24.4798 17.79 24.2898C18.02 24.0598 18.37 23.9498 18.7 24.0198C18.76 24.0298 18.82 24.0498 18.88 24.0798C18.94 24.0998 19 24.1298 19.06 24.1698C19.11 24.2098 19.16 24.2498 19.21 24.2898C19.39 24.4798 19.5 24.7398 19.5 24.9998C19.5 25.2598 19.39 25.5198 19.21 25.7098ZM22.71 25.7098C22.52 25.8898 22.26 25.9998 22 25.9998C21.74 25.9998 21.48 25.8898 21.29 25.7098C21.11 25.5198 21 25.2598 21 24.9998C21 24.7398 21.11 24.4798 21.29 24.2898C21.67 23.9198 22.34 23.9198 22.71 24.2898C22.89 24.4798 23 24.7398 23 24.9998C23 25.2598 22.89 25.5198 22.71 25.7098Z" fill="white"/>
</svg>
