<svg width="44" height="45" viewBox="0 0 44 45" fill="none" xmlns="http://www.w3.org/2000/svg">
<rect width="44" height="45" rx="10" fill="#005F8C"/>
<path d="M27.62 21.7501C27.19 21.7501 26.85 21.4001 26.85 20.9801C26.85 20.6101 26.48 19.8401 25.86 19.1701C25.25 18.5201 24.58 18.1401 24.02 18.1401C23.59 18.1401 23.25 17.7901 23.25 17.3701C23.25 16.9501 23.6 16.6001 24.02 16.6001C25.02 16.6001 26.07 17.1401 26.99 18.1101C27.85 19.0201 28.4 20.1501 28.4 20.9701C28.4 21.4001 28.05 21.7501 27.62 21.7501Z" fill="white"/>
<path d="M31.2298 21.75C30.7998 21.75 30.4598 21.4 30.4598 20.98C30.4598 17.43 27.5698 14.55 24.0298 14.55C23.5998 14.55 23.2598 14.2 23.2598 13.78C23.2598 13.36 23.5998 13 24.0198 13C28.4198 13 31.9998 16.58 31.9998 20.98C31.9998 21.4 31.6498 21.75 31.2298 21.75Z" fill="white"/>
<path d="M21.05 25.95L19.2 27.8C18.81 28.19 18.19 28.19 17.79 27.81C17.68 27.7 17.57 27.6 17.46 27.49C16.43 26.45 15.5 25.36 14.67 24.22C13.85 23.08 13.19 21.94 12.71 20.81C12.24 19.67 12 18.58 12 17.54C12 16.86 12.12 16.21 12.36 15.61C12.6 15 12.98 14.44 13.51 13.94C14.15 13.31 14.85 13 15.59 13C15.87 13 16.15 13.06 16.4 13.18C16.66 13.3 16.89 13.48 17.07 13.74L19.39 17.01C19.57 17.26 19.7 17.49 19.79 17.71C19.88 17.92 19.93 18.13 19.93 18.32C19.93 18.56 19.86 18.8 19.72 19.03C19.59 19.26 19.4 19.5 19.16 19.74L18.4 20.53C18.29 20.64 18.24 20.77 18.24 20.93C18.24 21.01 18.25 21.08 18.27 21.16C18.3 21.24 18.33 21.3 18.35 21.36C18.53 21.69 18.84 22.12 19.28 22.64C19.73 23.16 20.21 23.69 20.73 24.22C20.83 24.32 20.94 24.42 21.04 24.52C21.44 24.91 21.45 25.55 21.05 25.95Z" fill="white"/>
<path d="M31.9696 29.33C31.9696 29.61 31.9196 29.9 31.8196 30.18C31.7896 30.26 31.7596 30.34 31.7196 30.42C31.5496 30.78 31.3296 31.12 31.0396 31.44C30.5496 31.98 30.0096 32.37 29.3996 32.62C29.3896 32.62 29.3796 32.63 29.3696 32.63C28.7796 32.87 28.1396 33 27.4496 33C26.4296 33 25.3396 32.76 24.1896 32.27C23.0396 31.78 21.8896 31.12 20.7496 30.29C20.3596 30 19.9696 29.71 19.5996 29.4L22.8696 26.13C23.1496 26.34 23.3996 26.5 23.6096 26.61C23.6596 26.63 23.7196 26.66 23.7896 26.69C23.8696 26.72 23.9496 26.73 24.0396 26.73C24.2096 26.73 24.3396 26.67 24.4496 26.56L25.2096 25.81C25.4596 25.56 25.6996 25.37 25.9296 25.25C26.1596 25.11 26.3896 25.04 26.6396 25.04C26.8296 25.04 27.0296 25.08 27.2496 25.17C27.4696 25.26 27.6996 25.39 27.9496 25.56L31.2596 27.91C31.5196 28.09 31.6996 28.3 31.8096 28.55C31.9096 28.8 31.9696 29.05 31.9696 29.33Z" fill="white"/>
</svg>
