<svg width="44" height="45" viewBox="0 0 44 45" fill="none" xmlns="http://www.w3.org/2000/svg">
<rect width="44" height="45" rx="10" fill="#005F8C"/>
<path d="M22 13C16.49 13 12 17.49 12 23C12 28.51 16.49 33 22 33C27.51 33 32 28.51 32 23C32 17.49 27.51 13 22 13ZM26.35 26.57C26.21 26.81 25.96 26.94 25.7 26.94C25.57 26.94 25.44 26.91 25.32 26.83L22.22 24.98C21.45 24.52 20.88 23.51 20.88 22.62V18.52C20.88 18.11 21.22 17.77 21.63 17.77C22.04 17.77 22.38 18.11 22.38 18.52V22.62C22.38 22.98 22.68 23.51 22.99 23.69L26.09 25.54C26.45 25.75 26.57 26.21 26.35 26.57Z" fill="white"/>
</svg>
