<svg width="44" height="45" viewBox="0 0 44 45" fill="none" xmlns="http://www.w3.org/2000/svg">
<rect width="44" height="45" rx="10" fill="#005F8C"/>
<path d="M27 14H17C14 14 12 15.5 12 19V26C12 29.5 14 31 17 31H20.57C21.16 31 21.64 30.48 21.56 29.89C21.46 29.18 21.48 28.44 21.63 27.68C22.16 25.08 24.3 23.01 26.92 22.58C28.23 22.37 29.48 22.55 30.58 23.03C31.25 23.32 32 22.86 32 22.13V19C32 15.5 30 14 27 14ZM27.47 19.59L24.34 22.09C23.68 22.62 22.84 22.88 22 22.88C21.16 22.88 20.31 22.62 19.66 22.09L16.53 19.59C16.21 19.33 16.16 18.86 16.41 18.53C16.67 18.21 17.14 18.15 17.46 18.41L20.59 20.91C21.35 21.52 22.64 21.52 23.4 20.91L26.53 18.41C26.85 18.15 27.33 18.2 27.58 18.53C27.84 18.86 27.79 19.33 27.47 19.59Z" fill="white"/>
<path d="M28 24C25.24 24 23 26.23 23 29C23 31.76 25.24 34 28 34C30.77 34 33 31.76 33 29C33 26.23 30.77 24 28 24ZM30.05 28.55L29.68 28.91L27.5 31.1C27.4 31.19 27.21 31.29 27.07 31.31L26.09 31.45C25.74 31.5 25.49 31.25 25.54 30.9L25.68 29.92C25.7 29.78 25.79 29.59 25.89 29.49L28.07 27.32L28.43 26.95C28.67 26.71 28.94 26.55 29.22 26.55C29.46 26.55 29.73 26.66 30.03 26.95C30.7 27.6 30.49 28.11 30.05 28.55Z" fill="white"/>
</svg>
