<svg width="28" height="28" viewBox="0 0 28 28" fill="none" xmlns="http://www.w3.org/2000/svg">
<rect width="28" height="28" rx="9" fill="#E6F4FA"/>
<path d="M14.0003 5.6665C11.817 5.6665 10.042 7.4415 10.042 9.62484C10.042 11.7665 11.717 13.4998 13.9003 13.5748C13.967 13.5665 14.0337 13.5665 14.0837 13.5748C14.1003 13.5748 14.1087 13.5748 14.1253 13.5748C14.1337 13.5748 14.1337 13.5748 14.142 13.5748C16.2753 13.4998 17.9503 11.7665 17.9587 9.62484C17.9587 7.4415 16.1837 5.6665 14.0003 5.6665Z" fill="#005F8C"/>
<path d="M18.2338 15.7919C15.9088 14.2419 12.1171 14.2419 9.77546 15.7919C8.71712 16.5002 8.13379 17.4586 8.13379 18.4836C8.13379 19.5086 8.71712 20.4586 9.76712 21.1586C10.9338 21.9419 12.4671 22.3336 14.0005 22.3336C15.5338 22.3336 17.0671 21.9419 18.2338 21.1586C19.2838 20.4502 19.8671 19.5002 19.8671 18.4669C19.8588 17.4419 19.2838 16.4919 18.2338 15.7919Z" fill="#005F8C"/>
</svg>
