<svg width="44" height="45" viewBox="0 0 44 45" fill="none" xmlns="http://www.w3.org/2000/svg">
<rect width="44" height="45" rx="10" fill="#005F8C"/>
<path d="M31.7605 26.92L25.3605 15.4C24.5005 13.85 23.3105 13 22.0005 13C20.6905 13 19.5005 13.85 18.6405 15.4L12.2405 26.92C11.4305 28.39 11.3405 29.8 11.9905 30.91C12.6405 32.02 13.9205 32.63 15.6005 32.63H28.4005C30.0805 32.63 31.3605 32.02 32.0105 30.91C32.6605 29.8 32.5705 28.38 31.7605 26.92ZM21.2505 20C21.2505 19.59 21.5905 19.25 22.0005 19.25C22.4105 19.25 22.7505 19.59 22.7505 20V25C22.7505 25.41 22.4105 25.75 22.0005 25.75C21.5905 25.75 21.2505 25.41 21.2505 25V20ZM22.7105 28.71C22.6605 28.75 22.6105 28.79 22.5605 28.83C22.5005 28.87 22.4405 28.9 22.3805 28.92C22.3205 28.95 22.2605 28.97 22.1905 28.98C22.1305 28.99 22.0605 29 22.0005 29C21.9405 29 21.8705 28.99 21.8005 28.98C21.7405 28.97 21.6805 28.95 21.6205 28.92C21.5605 28.9 21.5005 28.87 21.4405 28.83C21.3905 28.79 21.3405 28.75 21.2905 28.71C21.1105 28.52 21.0005 28.26 21.0005 28C21.0005 27.74 21.1105 27.48 21.2905 27.29C21.3405 27.25 21.3905 27.21 21.4405 27.17C21.5005 27.13 21.5605 27.1 21.6205 27.08C21.6805 27.05 21.7405 27.03 21.8005 27.02C21.9305 26.99 22.0705 26.99 22.1905 27.02C22.2605 27.03 22.3205 27.05 22.3805 27.08C22.4405 27.1 22.5005 27.13 22.5605 27.17C22.6105 27.21 22.6605 27.25 22.7105 27.29C22.8905 27.48 23.0005 27.74 23.0005 28C23.0005 28.26 22.8905 28.52 22.7105 28.71Z" fill="white"/>
</svg>
