<svg width="25" height="24" viewBox="0 0 25 24" fill="none" xmlns="http://www.w3.org/2000/svg">
<path d="M24.5035 12.0004C24.5029 9.70653 23.8451 7.46087 22.6078 5.52926C21.3706 3.59765 19.6058 2.061 17.5224 1.10122C15.4389 0.141447 13.1241 -0.20126 10.852 0.113678C8.57981 0.428616 6.44547 1.38801 4.70163 2.87827C2.9578 4.36854 1.67749 6.32727 1.01228 8.52257C0.347064 10.7179 0.324805 13.0578 0.948141 15.2654C1.57148 17.4729 2.8143 19.4556 4.52947 20.9788C6.24465 22.502 8.36035 23.5018 10.6261 23.8599V15.4681H7.57987V12.0004H10.6248V9.35696C10.5594 8.7394 10.6306 8.11503 10.8335 7.52808C11.0363 6.94112 11.3657 6.40596 11.7984 5.96053C12.2311 5.51509 12.7565 5.17028 13.3374 4.95053C13.9182 4.73078 14.5402 4.64146 15.1594 4.68892C16.0608 4.70175 16.9599 4.7811 17.8496 4.92633V7.8792H16.3344C16.0767 7.84517 15.8147 7.86951 15.5676 7.95044C15.3206 8.03137 15.0949 8.16682 14.9073 8.34675C14.7197 8.52668 14.575 8.74649 14.4838 8.98992C14.3926 9.23335 14.3573 9.49417 14.3805 9.75308V12.0004H17.7149L17.1814 15.4681H14.3805V23.8546C17.2026 23.4069 19.7725 21.9672 21.6281 19.7943C23.4837 17.6214 24.5032 14.8578 24.5035 12.0004Z" fill="#1877F2"/>
<path d="M17.1762 15.4733L17.7097 12.0056H14.3754V9.75429C14.3522 9.49538 14.3875 9.23456 14.4787 8.99112C14.5698 8.74769 14.7146 8.52788 14.9022 8.34795C15.0898 8.16802 15.3155 8.03257 15.5625 7.95163C15.8095 7.8707 16.0716 7.84637 16.3293 7.88041H17.8431V4.92753C16.9535 4.7823 16.0543 4.70293 15.153 4.69012C14.5338 4.64266 13.9117 4.73198 13.3309 4.95173C12.7501 5.17148 12.2247 5.5163 11.792 5.96173C11.3593 6.40717 11.0298 6.94232 10.827 7.52927C10.6242 8.11622 10.5529 8.7406 10.6183 9.35815V12.0016H7.57343V15.4693H10.6183V23.8558C11.2381 23.9537 11.8647 24.0019 12.4922 23.9998C13.12 23.9987 13.7468 23.9505 14.3674 23.8558V15.4693L17.1762 15.4733Z" fill="#EDF5FF"/>
</svg>
