<svg width="55" height="55" viewBox="0 0 55 55" fill="none" xmlns="http://www.w3.org/2000/svg">
<path d="M54.362 21.5363C54.2977 21.4811 54.2232 21.4392 54.1427 21.4128C54.0623 21.3865 53.9774 21.3762 53.8929 21.3827C53.8085 21.3892 53.7262 21.4122 53.6506 21.4505C53.5751 21.4888 53.5079 21.5416 53.4527 21.6059C49.1374 26.6401 41.7657 29.1289 39.4088 27.3109C37.6643 25.9655 38.7145 22.2328 42.2877 17.0697C46.8553 10.4719 44.4572 7.19162 43.2137 6.08732C39.3319 2.63822 29.2961 3.84006 21.1059 11.0799C21.0254 11.152 20.9644 11.2433 20.9288 11.3454C20.8327 11.3295 20.7354 11.3216 20.6379 11.3218C15.7326 11.3768 12.229 12.7922 9.80724 14.9518C9.90598 15.0546 9.9674 15.1876 9.98169 15.3295C10.1604 17.1574 11.2256 18.8903 12.9822 20.2099C15.1336 21.8251 17.9541 22.5495 20.3492 22.1005C20.4379 22.0839 20.5292 22.0864 20.6169 22.1078C21.6335 17.8071 22.6605 14.5771 22.3696 12.7857C22.3202 12.4967 22.1994 12.2246 22.0181 11.9942C29.4766 5.44107 38.8949 3.97498 42.3591 7.05111C44.4749 8.93014 44.0731 12.2276 41.229 16.3358C36.0044 23.8828 36.927 27.0269 38.6212 28.3318C39.5006 28.9374 40.555 29.2363 41.6213 29.1822C45.4558 29.1822 50.9829 26.4683 54.4316 22.4447C54.5427 22.3149 54.5978 22.1464 54.5848 21.9761C54.5717 21.8058 54.4916 21.6476 54.362 21.5363ZM17.7431 15.3918C17.5569 15.3918 17.3749 15.3366 17.2201 15.2331C17.0653 15.1297 16.9446 14.9826 16.8734 14.8106C16.8021 14.6386 16.7835 14.4493 16.8198 14.2667C16.8561 14.084 16.9458 13.9163 17.0774 13.7846C17.2091 13.653 17.3769 13.5633 17.5595 13.527C17.7421 13.4907 17.9314 13.5093 18.1034 13.5806C18.2754 13.6518 18.4225 13.7725 18.5259 13.9273C18.6294 14.0821 18.6846 14.2641 18.6846 14.4503C18.6846 14.574 18.6603 14.6965 18.613 14.8107C18.5658 14.925 18.4964 15.0288 18.409 15.1163C18.3216 15.2038 18.2178 15.2732 18.1035 15.3205C17.9893 15.3678 17.8668 15.3922 17.7431 15.3922V15.3918ZM32.3903 51.0116C30.0382 50.2614 32.8308 45.9632 30.0528 45.3268C27.3724 44.7132 24.3848 50.2549 18.6734 50.1075C14.9562 49.943 11.6373 50.0044 9.42052 45.9555C7.87107 43.1264 5.23665 45.1197 6.6065 48.4966C6.91201 49.2499 6.16564 50.8242 4.82458 51.3528C4.76533 51.3771 4.71542 51.4198 4.68211 51.4745C4.64879 51.5293 4.63383 51.5932 4.63939 51.657C4.64496 51.7209 4.67075 51.7812 4.71303 51.8294C4.75531 51.8775 4.81185 51.9109 4.87443 51.9247C9.53138 52.6942 28.3315 52.3114 30.7416 52.0991C33.019 51.8976 32.7543 51.1276 32.3903 51.0116ZM1.16708 46.9433C2.22669 48.3978 4.5122 47.1899 4.29951 45.9576C3.81353 43.1427 -0.818932 44.2169 1.16708 46.9433ZM45.9199 42.258C45.6397 43.9535 47.7624 44.2036 48.7086 43.0967C48.9387 42.8944 49.1158 42.6389 49.2246 42.3524C49.3333 42.066 49.3704 41.7572 49.3325 41.4532C49.1245 40.2887 46.3019 39.9463 45.9199 42.258ZM41.0528 41.0098C42.0879 39.9158 40.639 37.8159 38.8649 38.8214C38.3462 39.1153 37.6158 39.7628 37.917 40.7549C38.3127 42.0543 40.0181 42.1037 41.0528 41.0098Z" fill="white"/>
<path d="M31.2878 14.5864C31.3247 14.1167 31.5507 13.3906 30.5844 12.8388C30.3264 12.711 30.0396 12.6528 29.7522 12.6698C29.4649 12.6869 29.187 12.7788 28.946 12.9362C28.705 13.0937 28.5094 13.3114 28.3784 13.5678C28.2474 13.8241 28.1856 14.1102 28.1992 14.3977C28.1489 15.9029 31.109 16.8886 31.2878 14.5864ZM10.4647 9.93028C10.4647 9.93028 12.1675 9.94446 12.3983 8.93555C12.7235 7.51758 10.9833 6.4902 9.55632 6.97188C8.12933 7.45356 8.20409 10.4051 10.4647 9.93028ZM33.2381 38.5088C32.289 38.9348 31.3055 39.2798 30.2982 39.54C31.1206 36.7965 28.304 35.1263 28.2645 36.0097C28.0634 40.497 26.4972 42.162 25.6176 43.0106C28.185 43.809 33.2776 43.0751 34.0902 39.1692C34.1124 39.0593 34.1034 38.9455 34.0644 38.8404C34.0253 38.7354 33.9577 38.6433 33.8691 38.5746C33.7805 38.506 33.6745 38.4634 33.563 38.4518C33.4515 38.4401 33.339 38.4599 33.2381 38.5088ZM48.8027 51.4441C48.6055 51.3093 48.4568 51.1147 48.3786 50.8889C47.5961 48.7027 47.704 46.3545 44.902 47.1309C43.3663 47.5563 39.9073 50.9581 34.7403 51.5567C34.6748 51.5629 34.6137 51.5925 34.5682 51.6401C34.5228 51.6878 34.4961 51.7502 34.493 51.816C34.4899 51.8817 34.5107 51.9464 34.5514 51.998C34.5922 52.0497 34.6503 52.0849 34.715 52.0972C38.0424 52.6988 45.6655 52.7383 48.6244 52.2446C48.7108 52.2294 48.7909 52.189 48.8543 52.1283C48.9178 52.0677 48.9619 51.9896 48.9809 51.9039C49 51.8182 48.9933 51.7288 48.9616 51.647C48.9298 51.5651 48.8745 51.4945 48.8027 51.4441ZM19.3541 29.0531C20.0416 28.9671 21.8892 29.1906 22.453 29.7049C22.5062 29.7534 22.5731 29.7842 22.6445 29.7933C22.7159 29.8023 22.7883 29.7892 22.852 29.7555C22.9156 29.7219 22.9673 29.6694 23 29.6053C23.0327 29.5412 23.0449 29.4685 23.0348 29.3973C22.85 27.9978 21.6696 25.7746 20.0209 24.788C20.116 24.3262 20.2153 23.8653 20.3187 23.4053C19.8548 23.4793 19.3859 23.5175 18.9162 23.5196C16.4952 23.4902 14.1461 22.6927 12.2075 21.2422C10.4359 19.9912 9.21009 18.1098 8.78159 15.9837C8.37896 16.4411 8.00976 16.9269 7.67687 17.4373C3.20984 19.1759 1.12155 24.3343 0.908 26.2489C0.895397 26.3546 0.915133 26.4617 0.964603 26.5559C1.01407 26.6502 1.09096 26.7272 1.1851 26.7768C1.27925 26.8265 1.38624 26.8465 1.49196 26.8341C1.59767 26.8217 1.69715 26.7775 1.77726 26.7074C2.77937 25.8176 3.9587 25.1502 5.23753 24.7493C4.76917 29.5399 6.03116 34.3662 7.81136 36.8708C12.6024 43.6126 19.9071 43.7798 25.6176 43.0106C19.8843 39.4386 18.8522 34.3589 19.3541 29.0531Z" fill="white"/>
</svg>
