<svg width="25" height="24" viewBox="0 0 25 24" fill="none" xmlns="http://www.w3.org/2000/svg">
<path d="M24.254 12.273C24.2554 11.4559 24.1859 10.6403 24.046 9.83521H12.7366V14.455H19.2167C19.0838 15.1932 18.8026 15.8968 18.3902 16.5234C17.9778 17.15 17.4427 17.6865 16.8172 18.1005V21.0983H20.6836C21.8632 19.9591 22.7906 18.5849 23.4056 17.0647C24.0206 15.5444 24.3096 13.912 24.254 12.273Z" fill="#4285F4"/>
<path d="M12.7332 23.9955C15.6559 24.0774 18.4998 23.0413 20.685 21.0986L16.8186 18.1009C15.8877 18.6968 14.8332 19.0727 13.7352 19.2003C12.6373 19.3278 11.5247 19.2035 10.4819 18.8369C9.43913 18.4702 8.49359 17.8708 7.71706 17.0841C6.94053 16.2975 6.35341 15.3443 6.00027 14.2969H2.01556V17.3874C3.01428 19.3738 4.54532 21.0436 6.43782 22.2104C8.33033 23.3773 10.5098 23.9953 12.7332 23.9955Z" fill="#34A853"/>
<path d="M6.00015 14.2925C5.49777 12.8029 5.49777 11.1896 6.00015 9.69997V6.61426H2.01545C1.17627 8.28594 0.739258 10.1305 0.739258 12.001C0.739258 13.8715 1.17627 15.7162 2.01545 17.3878L6.00015 14.2925Z" fill="#FFAF17"/>
<path d="M12.7332 4.7486C14.4437 4.72079 16.0967 5.36656 17.3353 6.54659L20.7634 3.12176C18.5904 1.08295 15.7126 -0.0355079 12.7332 0.000859887C10.5093 0.00152463 8.32948 0.620263 6.43692 1.788C4.54437 2.95573 3.01361 4.6265 2.01556 6.61378L6.00027 9.70428C6.46409 8.27837 7.36293 7.03357 8.57053 6.14473C9.77813 5.25588 11.2338 4.76764 12.7332 4.7486Z" fill="#EA4335"/>
</svg>
