<svg width="25" height="24" viewBox="0 0 25 24" fill="none" xmlns="http://www.w3.org/2000/svg">
<path d="M22.29 20.76L21.57 20.04C21.94 19.48 22.16 18.8 22.16 18.08C22.16 16.1 20.56 14.5 18.58 14.5C16.6 14.5 15 16.1 15 18.08C15 20.06 16.6 21.66 18.58 21.66C19.31 21.66 19.98 21.44 20.54 21.07L21.26 21.79C21.4 21.93 21.59 22 21.77 22C21.96 22 22.14 21.93 22.28 21.79C22.57 21.5 22.57 21.04 22.29 20.76Z" fill="#005F8C"/>
<path d="M2.52977 14.63C2.52977 14.66 2.50977 14.7 2.50977 14.73C3.42977 16.57 4.92977 18.08 6.76977 18.99C6.79977 18.99 6.83977 18.97 6.86977 18.97C6.52977 17.81 6.26977 16.62 6.07977 15.43C4.87977 15.23 3.68977 14.97 2.52977 14.63Z" fill="#005F8C"/>
<path d="M19.5701 6.43C18.6301 4.46 17.0401 2.87 15.0801 1.94C15.4401 3.13 15.7401 4.35 15.9401 5.57C17.1601 5.77 18.3801 6.06 19.5701 6.43Z" fill="#005F8C"/>
<path d="M2.42969 6.43002C3.62969 6.07002 4.84969 5.77002 6.06969 5.57002C6.26969 4.38002 6.51969 3.20002 6.85969 2.04002C6.82969 2.04002 6.78969 2.02002 6.75969 2.02002C4.87969 2.95002 3.34969 4.52002 2.42969 6.43002Z" fill="#005F8C"/>
<path d="M14.3197 5.36C14.0797 4.06 13.7797 2.76 13.3497 1.5C13.3297 1.43 13.3297 1.37 13.3197 1.29C12.5797 1.11 11.7997 1 10.9997 1C10.1897 1 9.41969 1.11 8.66969 1.3C8.65969 1.37 8.66969 1.43 8.64969 1.51C8.22969 2.77 7.91969 4.06 7.67969 5.36C9.88969 5.12 12.1097 5.12 14.3197 5.36Z" fill="#005F8C"/>
<path d="M5.86 7.17999C4.55 7.41999 3.27 7.72999 2 8.14999C1.93 8.16999 1.87 8.16999 1.8 8.17999C1.61 8.91999 1.5 9.69999 1.5 10.5C1.5 11.31 1.61 12.08 1.8 12.83C1.87 12.84 1.93 12.83 2.01 12.85C3.27 13.27 4.56 13.58 5.87 13.82C5.62 11.61 5.62 9.38999 5.86 7.17999Z" fill="#005F8C"/>
<path d="M20.1999 8.17999C20.1299 8.17999 20.0699 8.16999 19.9899 8.14999C18.7299 7.72999 17.4299 7.41999 16.1299 7.17999C16.3799 9.38999 16.3799 11.61 16.1299 13.81C17.4299 13.57 18.7299 13.27 19.9899 12.84C20.0599 12.82 20.1199 12.83 20.1999 12.82C20.3799 12.07 20.4999 11.3 20.4999 10.49C20.4999 9.69999 20.3899 8.92999 20.1999 8.17999Z" fill="#005F8C"/>
<path d="M7.67969 15.64C7.91969 16.95 8.21969 18.24 8.64969 19.5C8.66969 19.57 8.65969 19.63 8.66969 19.71C9.41969 19.89 10.1897 20 10.9997 20C11.7997 20 12.5797 19.89 13.3197 19.7C13.3297 19.63 13.3297 19.57 13.3497 19.49C13.7697 18.23 14.0797 16.94 14.3197 15.63C13.2197 15.75 12.1097 15.84 10.9997 15.84C9.88969 15.84 8.77969 15.76 7.67969 15.64Z" fill="#005F8C"/>
<path d="M7.44961 6.94998C7.14961 9.30998 7.14961 11.69 7.44961 14.06C9.80961 14.36 12.1896 14.36 14.5596 14.06C14.8596 11.7 14.8596 9.31998 14.5596 6.94998C12.1896 6.64998 9.80961 6.64998 7.44961 6.94998Z" fill="#005F8C"/>
</svg>
