<svg width="20" height="20" viewBox="0 0 18 18" fill="none" xmlns="http://www.w3.org/2000/svg">
<path d="M16.9667 7.94948L15.8334 6.63281C15.6167 6.38281 15.4417 5.91615 15.4417 5.58281V4.16615C15.4417 3.28281 14.7167 2.55781 13.8334 2.55781H12.4167C12.0917 2.55781 11.6167 2.38281 11.3667 2.16615L10.0501 1.03281C9.47507 0.541146 8.5334 0.541146 7.95007 1.03281L6.64173 2.17448C6.39173 2.38281 5.91673 2.55781 5.59173 2.55781H4.15006C3.26673 2.55781 2.54173 3.28281 2.54173 4.16615V5.59115C2.54173 5.91615 2.36673 6.38281 2.1584 6.63281L1.0334 7.95781C0.550065 8.53281 0.550065 9.46615 1.0334 10.0411L2.1584 11.3661C2.36673 11.6161 2.54173 12.0828 2.54173 12.4078V13.8328C2.54173 14.7161 3.26673 15.4411 4.15006 15.4411H5.59173C5.91673 15.4411 6.39173 15.6161 6.64173 15.8328L7.9584 16.9661C8.5334 17.4578 9.47507 17.4578 10.0584 16.9661L11.3751 15.8328C11.6251 15.6161 12.0917 15.4411 12.4251 15.4411H13.8417C14.7251 15.4411 15.4501 14.7161 15.4501 13.8328V12.4161C15.4501 12.0911 15.6251 11.6161 15.8417 11.3661L16.9751 10.0495C17.4584 9.47448 17.4584 8.52448 16.9667 7.94948ZM12.4667 7.42448L8.44173 11.4495C8.32507 11.5661 8.16673 11.6328 8.00007 11.6328C7.8334 11.6328 7.67507 11.5661 7.5584 11.4495L5.54173 9.43281C5.30007 9.19115 5.30007 8.79115 5.54173 8.54948C5.7834 8.30781 6.1834 8.30781 6.42507 8.54948L8.00007 10.1245L11.5834 6.54115C11.8251 6.29948 12.2251 6.29948 12.4667 6.54115C12.7084 6.78281 12.7084 7.18281 12.4667 7.42448Z" fill="#005F8C"/>
</svg>
