<svg width="28" height="28" viewBox="0 0 28 28" fill="none" xmlns="http://www.w3.org/2000/svg">
<rect width="28" height="28" rx="9" fill="#E6F4FA"/>
<path d="M17.492 5.66602H10.5087C7.47533 5.66602 5.66699 7.47435 5.66699 10.5077V17.4827C5.66699 20.5243 7.47533 22.3327 10.5087 22.3327H17.4837C20.517 22.3327 22.3253 20.5243 22.3253 17.491V10.5077C22.3337 7.47435 20.5253 5.66602 17.492 5.66602ZM18.167 18.5577C16.742 18.5577 15.4087 17.941 14.342 16.7993C13.1337 17.891 11.5587 18.5577 9.83366 18.5577C9.49199 18.5577 9.20866 18.2743 9.20866 17.9327C9.20866 17.591 9.49199 17.3077 9.83366 17.3077C12.7253 17.3077 15.117 15.016 15.4253 12.0827H14.0003H9.84199C9.50033 12.0827 9.21699 11.7993 9.21699 11.4577C9.21699 11.116 9.50033 10.841 9.84199 10.841H13.3753V10.066C13.3753 9.72435 13.6587 9.44102 14.0003 9.44102C14.342 9.44102 14.6253 9.72435 14.6253 10.066V10.841H16.0337C16.0503 10.841 16.067 10.8327 16.0837 10.8327C16.1003 10.8327 16.117 10.841 16.1337 10.841H18.1587C18.5003 10.841 18.7837 11.1243 18.7837 11.466C18.7837 11.8077 18.5003 12.091 18.1587 12.091H16.6753C16.5503 13.516 16.017 14.8243 15.2003 15.891C16.0337 16.816 17.0753 17.316 18.167 17.316C18.5087 17.316 18.792 17.5993 18.792 17.941C18.792 18.2827 18.5087 18.5577 18.167 18.5577Z" fill="#005F8C"/>
</svg>
