<svg width="28" height="28" viewBox="0 0 28 28" fill="none" xmlns="http://www.w3.org/2000/svg">
<rect width="28" height="28" rx="9" fill="#E6F4FA"/>
<path d="M22.3337 21.7082H21.292V13.1665C21.292 11.1498 20.1837 10.0415 18.167 10.0415H14.6253V9.0165C15.1087 9.13316 15.592 9.19983 16.0837 9.19983C16.867 9.19983 17.6503 9.04983 18.4003 8.74983C18.6337 8.65816 18.792 8.42483 18.792 8.1665V5.6665C18.792 5.45816 18.692 5.2665 18.517 5.14983C18.342 5.03316 18.1253 5.00816 17.9337 5.08316C16.742 5.55816 15.4253 5.55816 14.2337 5.08316C14.042 5.00816 13.8253 5.03316 13.6503 5.14983C13.4753 5.2665 13.3753 5.45816 13.3753 5.6665V8.1665V10.0415H9.83366C7.81699 10.0415 6.70866 11.1498 6.70866 13.1665V21.7082H5.66699C5.32533 21.7082 5.04199 21.9915 5.04199 22.3332C5.04199 22.6748 5.32533 22.9582 5.66699 22.9582H7.33366H20.667H22.3337C22.6753 22.9582 22.9587 22.6748 22.9587 22.3332C22.9587 21.9915 22.6753 21.7082 22.3337 21.7082ZM10.0337 21.7082H7.95866V14.6248H10.0337V21.7082ZM13.367 21.7082H11.2837V14.6248H13.367V21.7082ZM16.7003 21.7082H14.617V14.6248H16.7003V21.7082ZM20.042 21.7082H17.9503V14.6248H20.042V21.7082Z" fill="#005F8C"/>
</svg>
