<svg width="28" height="28" viewBox="0 0 28 28" fill="none" xmlns="http://www.w3.org/2000/svg">
<rect width="28" height="28" rx="9" fill="#E6F4FA"/>
<path d="M17.7003 6.5835C16.192 6.5835 14.842 7.31683 14.0003 8.44183C13.1587 7.31683 11.8087 6.5835 10.3003 6.5835C7.74199 6.5835 5.66699 8.66683 5.66699 11.2418C5.66699 12.2335 5.82533 13.1502 6.10033 14.0002C7.41699 18.1668 11.4753 20.6585 13.4837 21.3418C13.767 21.4418 14.2337 21.4418 14.517 21.3418C16.5253 20.6585 20.5837 18.1668 21.9003 14.0002C22.1753 13.1502 22.3337 12.2335 22.3337 11.2418C22.3337 8.66683 20.2587 6.5835 17.7003 6.5835Z" fill="#005F8C"/>
</svg>
