<svg width="28" height="28" viewBox="0 0 28 28" fill="none" xmlns="http://www.w3.org/2000/svg">
<rect width="28" height="28" rx="9" fill="#E6F4FA"/>
<path d="M16.1253 22.6827C15.8503 22.6827 15.592 22.4993 15.517 22.216C15.4337 21.8827 15.6253 21.541 15.9587 21.4493C19.342 20.5577 21.7003 17.491 21.7003 13.991C21.7003 9.74102 18.242 6.28268 13.992 6.28268C10.3837 6.28268 8.01699 8.39102 6.90866 9.66602H9.35866C9.70033 9.66602 9.98366 9.94935 9.98366 10.291C9.98366 10.6327 9.71699 10.9243 9.36699 10.9243H5.67533C5.61699 10.9243 5.55866 10.916 5.50033 10.8993C5.42533 10.8743 5.35866 10.841 5.30033 10.7993C5.22533 10.7493 5.16699 10.6827 5.12533 10.6077C5.08366 10.5243 5.05033 10.441 5.04199 10.3493C5.04199 10.3243 5.04199 10.3077 5.04199 10.2827V6.49935C5.04199 6.15768 5.32533 5.87435 5.66699 5.87435C6.00866 5.87435 6.29199 6.15768 6.29199 6.49935V8.49102C7.65033 7.03268 10.2087 5.04102 14.0003 5.04102C18.942 5.04102 22.9587 9.05768 22.9587 13.9993C22.9587 18.066 20.217 21.6327 16.2837 22.666C16.2337 22.6743 16.1753 22.6827 16.1253 22.6827Z" fill="#005F8C"/>
<path d="M13.4087 22.9417C13.392 22.9417 13.367 22.9417 13.3503 22.9333C12.4587 22.875 11.5837 22.675 10.7503 22.35C10.5087 22.2583 10.3503 22.0167 10.3503 21.7583C10.3503 21.6833 10.367 21.6083 10.392 21.5417C10.517 21.225 10.8837 21.0583 11.2003 21.1833C11.917 21.4667 12.6753 21.6333 13.442 21.6917H13.4503C13.7837 21.7083 14.0337 21.9917 14.0337 22.325C14.0337 22.3333 14.0337 22.35 14.0337 22.3583C14.0087 22.6833 13.7337 22.9417 13.4087 22.9417ZM8.81699 21.15C8.67533 21.15 8.54199 21.1083 8.42533 21.0167C7.72533 20.4583 7.11699 19.8 6.60866 19.0583C6.53366 18.95 6.49199 18.8333 6.49199 18.7083C6.49199 18.5 6.59199 18.3083 6.76699 18.1917C7.04199 18 7.45033 18.075 7.63366 18.35C8.07533 18.9917 8.60033 19.5583 9.20866 20.0333C9.35033 20.15 9.44199 20.325 9.44199 20.5167C9.44199 20.6583 9.40033 20.8 9.30866 20.9167C9.19199 21.0667 9.00866 21.15 8.81699 21.15ZM6.03366 17.0833C5.75866 17.0833 5.51699 16.9083 5.44199 16.65C5.17533 15.7917 5.04199 14.9 5.04199 14C5.04199 13.6583 5.32533 13.375 5.66699 13.375C6.00866 13.375 6.29199 13.6583 6.29199 14C6.29199 14.775 6.40866 15.5417 6.63366 16.275C6.65033 16.3333 6.65866 16.4 6.65866 16.4667C6.65866 16.7417 6.48366 16.975 6.22533 17.0583C6.15866 17.075 6.10033 17.0833 6.03366 17.0833Z" fill="#005F8C"/>
<path d="M14.0003 17.3327C15.8413 17.3327 17.3337 15.8403 17.3337 13.9993C17.3337 12.1584 15.8413 10.666 14.0003 10.666C12.1594 10.666 10.667 12.1584 10.667 13.9993C10.667 15.8403 12.1594 17.3327 14.0003 17.3327Z" fill="#005F8C"/>
</svg>
