<svg width="28" height="28" viewBox="0 0 28 28" fill="none" xmlns="http://www.w3.org/2000/svg">
<rect width="28" height="28" rx="9" fill="#E6F4FA"/>
<path d="M19.9748 9.53311C19.6165 7.72477 18.2748 6.93311 16.4081 6.93311H9.09147C6.89147 6.93311 5.4248 8.03311 5.4248 10.5998V14.8914C5.4248 16.7414 6.18314 17.8248 7.43314 18.2914C7.61647 18.3581 7.81647 18.4164 8.0248 18.4498C8.35814 18.5248 8.71647 18.5581 9.09147 18.5581H16.4165C18.6165 18.5581 20.0831 17.4581 20.0831 14.8914V10.5998C20.0831 10.2081 20.0498 9.85811 19.9748 9.53311ZM8.60814 13.9998C8.60814 14.3414 8.32481 14.6248 7.98314 14.6248C7.64147 14.6248 7.35814 14.3414 7.35814 13.9998V11.4998C7.35814 11.1581 7.64147 10.8748 7.98314 10.8748C8.32481 10.8748 8.60814 11.1581 8.60814 11.4998V13.9998ZM12.7498 14.9498C11.5331 14.9498 10.5498 13.9664 10.5498 12.7498C10.5498 11.5331 11.5331 10.5498 12.7498 10.5498C13.9665 10.5498 14.9498 11.5331 14.9498 12.7498C14.9498 13.9664 13.9665 14.9498 12.7498 14.9498ZM18.1331 13.9998C18.1331 14.3414 17.8498 14.6248 17.5081 14.6248C17.1665 14.6248 16.8831 14.3414 16.8831 13.9998V11.4998C16.8831 11.1581 17.1665 10.8748 17.5081 10.8748C17.8498 10.8748 18.1331 11.1581 18.1331 11.4998V13.9998Z" fill="#005F8C"/>
<path d="M22.5831 13.1001V17.3917C22.5831 19.9584 21.1165 21.0667 18.9081 21.0667H11.5915C10.9665 21.0667 10.4081 20.9751 9.92481 20.7917C9.53314 20.6501 9.19147 20.4417 8.91647 20.1751C8.76647 20.0334 8.88314 19.8084 9.09147 19.8084H16.4081C19.4915 19.8084 21.3248 17.9751 21.3248 14.9001V10.6001C21.3248 10.4001 21.5498 10.2751 21.6915 10.4251C22.2581 11.0251 22.5831 11.9001 22.5831 13.1001Z" fill="#005F8C"/>
</svg>
