<svg width="285" height="233" viewBox="0 0 285 233" fill="none" xmlns="http://www.w3.org/2000/svg">
<path d="M84.0184 2.67315C73.3425 1.6512 62.2861 6.11242 55.3042 14.2599C50.2212 20.1919 47.3339 27.7263 42.4451 33.8203C33.1678 45.3848 17.6895 50.6151 8.44098 62.2033C-1.09865 74.1561 -2.24677 91.5107 3.45764 105.703C9.16206 119.896 20.9145 131.059 34.2989 138.445C38.9919 141.034 44.024 143.297 47.6922 147.207C53.5303 153.432 54.8233 162.733 53.9744 171.228C53.1262 179.723 50.4546 187.951 49.5141 196.436C48.847 202.454 49.2193 209.033 52.9467 213.801C56.3733 218.185 61.9891 220.21 67.4268 221.377C83.7066 224.869 101.199 222.383 115.863 214.491C127.725 208.107 137.668 198.403 149.968 192.915C164.728 186.33 181.598 186.398 197.621 188.492C207.434 189.774 217.207 191.773 227.102 191.734C236.997 191.695 247.273 189.394 254.869 183.047C262.154 176.96 266.216 167.826 268.734 158.668C274.891 136.274 273.008 111.755 263.503 90.5678C260.561 84.0117 256.833 77.6663 251.499 72.8561C245.98 67.8795 239.052 64.807 232.251 61.8151C211.077 52.5007 187.614 37.7254 164.318 35.456C157.435 34.7853 150.449 35.8265 143.674 34.1471C133.272 31.5694 124.387 24.6265 115.932 18.3861C106.392 11.3449 96.2067 3.84003 84.0184 2.67315Z" fill="#E6F4FA"/>
<path d="M199.56 176.622C199.007 176.622 198.456 176.617 197.904 176.608C197.7 176.605 197.537 176.438 197.54 176.233C197.543 176.029 197.717 175.866 197.915 175.869C198.895 175.884 199.876 175.884 200.86 175.874C201.035 175.86 201.231 176.035 201.234 176.239C201.236 176.443 201.072 176.611 200.869 176.613C200.432 176.619 199.995 176.622 199.56 176.622ZM205.295 176.469C205.099 176.469 204.936 176.315 204.926 176.118C204.915 175.915 205.071 175.74 205.276 175.73C206.256 175.677 207.236 175.612 208.215 175.533C208.416 175.521 208.597 175.668 208.612 175.872C208.628 176.075 208.477 176.254 208.274 176.27C207.288 176.35 206.303 176.415 205.315 176.468C205.307 176.469 205.301 176.469 205.295 176.469ZM193.48 176.449C193.473 176.449 193.466 176.449 193.459 176.448C192.472 176.392 191.486 176.321 190.501 176.238C190.298 176.221 190.148 176.042 190.165 175.839C190.182 175.635 190.365 175.488 190.563 175.501C191.542 175.583 192.521 175.654 193.501 175.71C193.705 175.722 193.86 175.896 193.849 176.1C193.837 176.297 193.674 176.449 193.48 176.449ZM212.652 175.827C212.468 175.827 212.308 175.689 212.286 175.501C212.262 175.299 212.406 175.115 212.608 175.09C213.583 174.972 214.556 174.84 215.527 174.696C215.727 174.666 215.917 174.805 215.946 175.007C215.977 175.209 215.837 175.397 215.635 175.427C214.658 175.572 213.678 175.705 212.696 175.824C212.682 175.826 212.667 175.827 212.652 175.827ZM186.125 175.769C186.109 175.769 186.093 175.768 186.077 175.766C185.097 175.64 184.118 175.501 183.141 175.348C182.94 175.316 182.802 175.126 182.834 174.925C182.866 174.723 183.059 174.587 183.257 174.617C184.226 174.769 185.197 174.909 186.17 175.033C186.372 175.059 186.516 175.244 186.49 175.447C186.467 175.632 186.308 175.769 186.125 175.769ZM219.951 174.69C219.778 174.69 219.623 174.567 219.589 174.39C219.551 174.19 219.683 173.996 219.883 173.957C220.848 173.774 221.81 173.577 222.769 173.368C222.973 173.324 223.165 173.45 223.209 173.65C223.253 173.85 223.126 174.047 222.927 174.09C221.961 174.301 220.992 174.499 220.021 174.684C219.997 174.688 219.974 174.69 219.951 174.69ZM227.159 173.066C226.994 173.066 226.845 172.956 226.802 172.789C226.75 172.592 226.868 172.39 227.066 172.339C228.015 172.09 228.962 171.829 229.905 171.556C230.104 171.498 230.306 171.611 230.363 171.808C230.419 172.004 230.307 172.209 230.111 172.266C229.162 172.541 228.209 172.804 227.252 173.054C227.221 173.062 227.19 173.066 227.159 173.066ZM234.239 170.961C234.085 170.961 233.941 170.863 233.889 170.708C233.824 170.514 233.928 170.305 234.122 170.24C235.053 169.929 235.98 169.605 236.903 169.269C237.096 169.2 237.306 169.298 237.377 169.49C237.447 169.682 237.348 169.894 237.156 169.964C236.227 170.303 235.295 170.628 234.356 170.943C234.318 170.955 234.279 170.961 234.239 170.961ZM241.162 168.382C241.017 168.382 240.879 168.295 240.82 168.153C240.743 167.963 240.833 167.747 241.021 167.67C241.929 167.296 242.833 166.91 243.73 166.512C243.916 166.43 244.134 166.512 244.217 166.699C244.3 166.887 244.216 167.105 244.03 167.187C243.125 167.589 242.217 167.978 241.303 168.354C241.257 168.374 241.209 168.382 241.162 168.382ZM247.893 165.336C247.757 165.336 247.626 165.26 247.562 165.13C247.472 164.947 247.546 164.725 247.73 164.635C248.61 164.2 249.484 163.753 250.352 163.293C250.533 163.199 250.756 163.266 250.851 163.447C250.947 163.627 250.878 163.851 250.698 163.946C249.823 164.41 248.943 164.86 248.058 165.298C248.004 165.324 247.948 165.336 247.893 165.336ZM254.397 161.832C254.27 161.832 254.147 161.766 254.078 161.648C253.975 161.472 254.035 161.245 254.211 161.142C255.059 160.647 255.899 160.14 256.732 159.619C256.906 159.513 257.134 159.564 257.241 159.737C257.349 159.91 257.296 160.139 257.123 160.247C256.284 160.77 255.437 161.282 254.583 161.78C254.525 161.816 254.461 161.832 254.397 161.832ZM260.639 157.877C260.521 157.877 260.405 157.821 260.334 157.716C260.219 157.546 260.262 157.317 260.431 157.202C261.239 156.649 262.041 156.082 262.833 155.501C262.996 155.38 263.228 155.415 263.349 155.58C263.469 155.745 263.434 155.976 263.27 156.097C262.471 156.683 261.663 157.254 260.848 157.812C260.784 157.856 260.711 157.877 260.639 157.877ZM266.545 153.439C266.439 153.439 266.335 153.394 266.261 153.306C266.131 153.149 266.152 152.917 266.309 152.786C267.076 152.144 267.817 151.491 268.513 150.845C268.661 150.705 268.895 150.714 269.034 150.864C269.173 151.014 269.165 151.248 269.015 151.387C268.311 152.041 267.559 152.702 266.782 153.353C266.714 153.411 266.629 153.439 266.545 153.439ZM271.87 148.324C271.783 148.324 271.695 148.293 271.625 148.23C271.472 148.094 271.459 147.861 271.594 147.708C272.032 147.216 272.459 146.713 272.874 146.199C273.073 145.952 273.27 145.703 273.463 145.452C273.588 145.29 273.819 145.26 273.981 145.384C274.142 145.508 274.173 145.74 274.049 145.902C273.851 146.158 273.652 146.411 273.449 146.663C273.026 147.186 272.592 147.697 272.146 148.199C272.073 148.282 271.972 148.324 271.87 148.324ZM276.263 142.396C276.197 142.396 276.131 142.379 276.07 142.342C275.896 142.235 275.842 142.008 275.948 141.833C276.45 141.015 276.935 140.157 277.392 139.283C277.488 139.102 277.713 139.034 277.892 139.127C278.072 139.222 278.142 139.446 278.048 139.627C277.582 140.515 277.088 141.387 276.579 142.22C276.509 142.333 276.388 142.396 276.263 142.396ZM279.588 135.804C279.541 135.804 279.494 135.796 279.448 135.777C279.259 135.699 279.169 135.484 279.247 135.294C279.611 134.408 279.961 133.484 280.284 132.548C280.351 132.356 280.561 132.254 280.755 132.319C280.948 132.387 281.05 132.597 280.983 132.79C280.654 133.739 280.3 134.676 279.931 135.576C279.871 135.719 279.734 135.804 279.588 135.804ZM281.923 128.792C281.892 128.792 281.86 128.788 281.828 128.779C281.631 128.728 281.514 128.524 281.565 128.328C281.811 127.4 282.042 126.437 282.252 125.469C282.295 125.269 282.495 125.144 282.69 125.186C282.891 125.229 283.017 125.425 282.973 125.625C282.761 126.605 282.528 127.579 282.28 128.517C282.235 128.683 282.086 128.792 281.923 128.792ZM283.423 121.553C283.403 121.553 283.384 121.551 283.365 121.548C283.164 121.516 283.026 121.328 283.057 121.126C283.206 120.17 283.342 119.188 283.461 118.208C283.485 118.006 283.675 117.861 283.873 117.886C284.074 117.91 284.219 118.094 284.195 118.298C284.075 119.285 283.938 120.276 283.788 121.24C283.759 121.423 283.601 121.553 283.423 121.553ZM284.262 114.205C284.252 114.205 284.243 114.205 284.233 114.205C284.03 114.189 283.878 114.012 283.893 113.807C283.968 112.828 284.029 111.846 284.08 110.864C284.091 110.661 284.242 110.504 284.467 110.514C284.671 110.524 284.828 110.699 284.818 110.902C284.767 111.89 284.705 112.878 284.63 113.864C284.614 114.058 284.453 114.205 284.262 114.205ZM216.817 107.829C216.626 107.829 216.464 107.682 216.449 107.489C216.433 107.285 216.585 107.107 216.788 107.091C217.697 107.018 218.639 106.879 219.664 106.666C219.86 106.623 220.059 106.752 220.101 106.952C220.143 107.152 220.014 107.347 219.814 107.389C218.758 107.609 217.787 107.753 216.846 107.828C216.837 107.829 216.826 107.829 216.817 107.829ZM212.409 107.575C212.383 107.575 212.356 107.572 212.329 107.566C212.178 107.532 212.026 107.495 211.875 107.456C211.045 107.24 210.235 106.929 209.468 106.533C209.287 106.439 209.216 106.216 209.31 106.035C209.403 105.853 209.626 105.782 209.808 105.876C210.526 106.247 211.284 106.539 212.061 106.741C212.204 106.778 212.347 106.813 212.489 106.845C212.689 106.889 212.814 107.086 212.77 107.286C212.731 107.457 212.578 107.575 212.409 107.575ZM284.602 106.819C284.6 106.819 284.597 106.819 284.594 106.819C284.391 106.815 284.229 106.646 284.232 106.442C284.251 105.457 284.26 104.472 284.261 103.491C284.261 103.287 284.427 103.121 284.631 103.121C284.835 103.121 285 103.287 285 103.492C284.999 104.478 284.99 105.466 284.971 106.456C284.968 106.658 284.802 106.819 284.602 106.819ZM224.014 106.229C223.858 106.229 223.714 106.131 223.663 105.976C223.598 105.782 223.704 105.573 223.897 105.508C224.788 105.213 225.715 104.875 226.653 104.503C226.842 104.427 227.057 104.521 227.132 104.71C227.207 104.9 227.115 105.114 226.925 105.19C225.974 105.568 225.034 105.911 224.13 106.21C224.09 106.224 224.052 106.229 224.014 106.229ZM206.149 103.876C206.049 103.876 205.949 103.836 205.877 103.757C205.211 103.029 204.602 102.213 204.07 101.332C203.964 101.157 204.02 100.93 204.195 100.825C204.369 100.72 204.597 100.775 204.702 100.95C205.209 101.789 205.788 102.565 206.422 103.257C206.559 103.408 206.549 103.642 206.399 103.78C206.328 103.845 206.238 103.876 206.149 103.876ZM230.852 103.442C230.713 103.442 230.581 103.364 230.518 103.23C230.431 103.046 230.51 102.825 230.694 102.738C231.581 102.319 232.463 101.886 233.34 101.443C233.521 101.35 233.744 101.424 233.836 101.606C233.928 101.789 233.855 102.011 233.673 102.102C232.791 102.548 231.903 102.985 231.01 103.407C230.958 103.431 230.905 103.442 230.852 103.442ZM237.442 100.101C237.309 100.101 237.181 100.029 237.115 99.904C237.02 99.7236 237.089 99.4995 237.269 99.4041C238.138 98.9449 239.006 98.4798 239.871 98.0088C240.05 97.9126 240.274 97.977 240.372 98.1574C240.47 98.3371 240.403 98.5611 240.225 98.6587C239.357 99.1313 238.486 99.5971 237.615 100.058C237.56 100.087 237.501 100.101 237.442 100.101ZM284.583 99.4241C284.383 99.4241 284.218 99.2636 284.214 99.0618C284.195 98.079 284.169 97.0948 284.134 96.1105C284.127 95.9064 284.286 95.7349 284.49 95.7282C284.692 95.7127 284.866 95.8806 284.873 96.0847C284.908 97.0726 284.934 98.0605 284.953 99.047C284.956 99.2511 284.795 99.4197 284.591 99.4241C284.588 99.4241 284.586 99.4241 284.583 99.4241ZM202.618 97.4549C202.458 97.4549 202.311 97.3499 202.263 97.1887C201.983 96.2252 201.781 95.2306 201.662 94.233C201.638 94.0304 201.782 93.8463 201.986 93.8219C202.184 93.796 202.372 93.9432 202.396 94.1458C202.509 95.1034 202.704 96.0573 202.973 96.9816C203.03 97.1776 202.918 97.3832 202.721 97.4401C202.687 97.4505 202.652 97.4549 202.618 97.4549ZM243.917 96.5394C243.789 96.5394 243.665 96.4729 243.597 96.3538C243.495 96.1763 243.556 95.9508 243.733 95.8488C244.585 95.3585 245.433 94.8594 246.274 94.3521C246.446 94.2471 246.675 94.3025 246.781 94.4778C246.886 94.6523 246.83 94.8801 246.655 94.9858C245.809 95.496 244.958 95.9974 244.102 96.4906C244.044 96.5232 243.98 96.5394 243.917 96.5394ZM250.218 92.6787C250.098 92.6787 249.98 92.6195 249.909 92.5115C249.798 92.3407 249.845 92.1115 250.015 91.9998C250.838 91.4608 251.651 90.9106 252.454 90.3486C252.621 90.2325 252.851 90.2717 252.969 90.4395C253.085 90.6067 253.045 90.8374 252.878 90.9542C252.068 91.5207 251.249 92.0753 250.421 92.6188C250.358 92.6594 250.288 92.6787 250.218 92.6787ZM284.277 92.0368C284.085 92.0368 283.923 91.8874 283.909 91.693C283.841 90.7124 283.759 89.7334 283.661 88.7573C283.64 88.5539 283.788 88.3727 283.991 88.352C284.178 88.335 284.375 88.4792 284.395 88.6826C284.495 89.6668 284.577 90.6533 284.646 91.6412C284.66 91.8445 284.507 92.0213 284.303 92.0361C284.294 92.0361 284.286 92.0368 284.277 92.0368ZM202.077 90.1349C202.06 90.1349 202.042 90.1342 202.024 90.1312C201.822 90.1024 201.682 89.9145 201.711 89.7127C201.852 88.7329 202.066 87.7442 202.347 86.7747C202.404 86.5788 202.605 86.4634 202.805 86.5226C203.001 86.5795 203.114 86.7844 203.057 86.9803C202.785 87.9172 202.579 88.8719 202.442 89.8177C202.416 90.0018 202.258 90.1349 202.077 90.1349ZM256.231 88.3868C256.122 88.3868 256.012 88.338 255.939 88.2448C255.814 88.0836 255.843 87.8514 256.004 87.7257C256.782 87.1179 257.551 86.4938 258.286 85.8711C258.442 85.7402 258.675 85.7587 258.807 85.9148C258.938 86.0708 258.919 86.3037 258.763 86.4361C258.02 87.0654 257.244 87.6961 256.458 88.3099C256.391 88.3617 256.311 88.3868 256.231 88.3868ZM283.459 84.6902C283.281 84.6902 283.124 84.5608 283.095 84.3789C282.938 83.3991 282.758 82.4259 282.561 81.4883C282.519 81.2879 282.647 81.0919 282.847 81.0505C283.044 81.0099 283.242 81.1363 283.284 81.336C283.485 82.2854 283.666 83.2697 283.825 84.2613C283.856 84.4632 283.719 84.6525 283.518 84.685C283.498 84.6887 283.478 84.6902 283.459 84.6902ZM261.811 83.5462C261.714 83.5462 261.618 83.5085 261.545 83.4338C261.404 83.2874 261.408 83.053 261.554 82.911C262.264 82.2211 262.956 81.5157 263.61 80.8132C263.749 80.6638 263.983 80.6564 264.132 80.7947C264.281 80.9337 264.289 81.1674 264.151 81.3175C263.488 82.0288 262.787 82.7439 262.068 83.442C261.996 83.5115 261.903 83.5462 261.811 83.5462ZM204.326 83.1262C204.271 83.1262 204.215 83.1136 204.161 83.087C203.978 82.9953 203.904 82.7735 203.995 82.5908C204.427 81.7257 204.923 80.8494 205.468 79.9864C205.579 79.8141 205.808 79.7631 205.978 79.8718C206.15 79.9812 206.202 80.209 206.093 80.3813C205.56 81.2243 205.077 82.0784 204.656 82.9221C204.592 83.0515 204.461 83.1262 204.326 83.1262ZM266.768 78.0719C266.688 78.0719 266.608 78.0461 266.54 77.9936C266.38 77.8679 266.352 77.6349 266.477 77.4745L266.773 77.0944C267.266 76.4592 267.752 75.7922 268.218 75.1133C268.333 74.944 268.563 74.9018 268.731 75.0179C268.9 75.1333 268.942 75.3633 268.827 75.5319C268.353 76.2233 267.858 76.9014 267.357 77.5484L267.059 77.9314C266.986 78.0231 266.878 78.0719 266.768 78.0719ZM281.833 77.4826C281.675 77.4826 281.528 77.3791 281.48 77.2186C281.328 76.7121 281.168 76.2077 280.999 75.7056C280.856 75.2812 280.705 74.859 280.549 74.4382C280.476 74.2467 280.574 74.0337 280.764 73.962C280.958 73.8903 281.169 73.9871 281.24 74.1786C281.4 74.6068 281.553 75.0372 281.699 75.4683C281.871 75.9785 282.034 76.491 282.188 77.0056C282.247 77.2016 282.136 77.4072 281.941 77.4663C281.904 77.4774 281.868 77.4826 281.833 77.4826ZM208.382 76.9635C208.3 76.9635 208.216 76.9361 208.148 76.8799C207.99 76.7505 207.967 76.5176 208.096 76.3593C208.704 75.6154 209.365 74.8604 210.059 74.1158C210.198 73.9664 210.433 73.9583 210.58 74.0973C210.73 74.2371 210.738 74.4707 210.598 74.6201C209.915 75.3529 209.265 76.0953 208.668 76.8267C208.595 76.9169 208.489 76.9635 208.382 76.9635ZM270.841 71.9114C270.781 71.9114 270.721 71.8966 270.665 71.8663C270.485 71.7687 270.419 71.5439 270.518 71.3642C270.983 70.5101 271.426 69.6287 271.834 68.7443C271.918 68.5579 272.141 68.4781 272.323 68.5631C272.509 68.6489 272.589 68.8685 272.504 69.0541C272.09 69.9533 271.639 70.8503 271.165 71.7184C271.098 71.8412 270.972 71.9114 270.841 71.9114ZM213.482 71.6216C213.383 71.6216 213.284 71.5809 213.211 71.5018C213.072 71.3517 213.082 71.1172 213.233 70.9797C213.959 70.312 214.71 69.6509 215.462 69.0149C215.618 68.8833 215.852 68.9025 215.983 69.0586C216.115 69.2146 216.094 69.4483 215.938 69.5799C215.193 70.2099 214.451 70.8636 213.732 71.5239C213.661 71.589 213.572 71.6216 213.482 71.6216ZM279.115 70.6166C278.981 70.6166 278.852 70.5427 278.786 70.414C278.342 69.537 277.863 68.6763 277.363 67.8554C277.257 67.6809 277.312 67.4539 277.485 67.3474C277.66 67.2402 277.887 67.2957 277.994 67.4709C278.504 68.308 278.993 69.1865 279.446 70.0805C279.538 70.2624 279.465 70.485 279.283 70.5774C279.228 70.604 279.171 70.6166 279.115 70.6166ZM219.174 66.9126C219.062 66.9126 218.95 66.8609 218.878 66.7633C218.756 66.5991 218.791 66.3676 218.954 66.2456C219.741 65.66 220.556 65.0802 221.374 64.5227C221.541 64.4088 221.772 64.4509 221.886 64.6195C222.001 64.7889 221.958 65.0188 221.789 65.1335C220.979 65.6858 220.173 66.2597 219.394 66.8394C219.329 66.889 219.25 66.9126 219.174 66.9126ZM273.812 65.1505C273.773 65.1505 273.733 65.1446 273.694 65.1313C273.5 65.0654 273.397 64.8562 273.463 64.6624C273.63 64.1714 273.786 63.6745 273.934 63.1768C273.6 62.7982 273.259 62.4307 272.914 62.0772C272.773 61.9308 272.776 61.6972 272.922 61.5544C273.067 61.4125 273.302 61.4147 273.444 61.5611C273.689 61.8133 273.933 62.0721 274.173 62.3361C274.216 62.1756 274.258 62.0159 274.3 61.8561C274.351 61.6587 274.55 61.5367 274.75 61.5907C274.948 61.6417 275.067 61.8436 275.015 62.041C274.933 62.359 274.846 62.6777 274.755 62.9964C274.982 63.2604 275.205 63.5288 275.424 63.8017C275.552 63.9607 275.527 64.1936 275.368 64.3215C275.208 64.4487 274.976 64.4243 274.849 64.2653C274.735 64.1241 274.62 63.9829 274.504 63.8438C274.394 64.198 274.28 64.5508 274.162 64.9013C274.11 65.0536 273.966 65.1505 273.812 65.1505ZM225.321 62.8152C225.196 62.8152 225.073 62.7509 225.004 62.6341C224.899 62.4588 224.957 62.2318 225.132 62.1275C225.978 61.6247 226.847 61.1315 227.716 60.6619C227.893 60.565 228.12 60.6316 228.217 60.8113C228.314 60.991 228.247 61.215 228.067 61.3126C227.207 61.7778 226.347 62.2658 225.51 62.7627C225.451 62.799 225.386 62.8152 225.321 62.8152ZM231.856 59.3723C231.716 59.3723 231.583 59.2931 231.521 59.1578C231.436 58.9722 231.515 58.7526 231.701 58.6668C232.596 58.2527 233.511 57.8519 234.423 57.4755C234.613 57.3986 234.828 57.4874 234.905 57.6767C234.983 57.8652 234.893 58.0812 234.704 58.1595C233.802 58.5315 232.896 58.9286 232.01 59.3383C231.961 59.3619 231.908 59.3723 231.856 59.3723ZM269.848 59.2665C269.771 59.2665 269.694 59.2429 269.627 59.1933C268.844 58.6114 268.026 58.073 267.195 57.5946C267.018 57.4925 266.957 57.267 267.059 57.0895C267.161 56.9113 267.387 56.8514 267.563 56.9535C268.419 57.4467 269.262 57.9998 270.068 58.5995C270.232 58.7215 270.266 58.9523 270.144 59.1164C270.072 59.2148 269.96 59.2665 269.848 59.2665ZM275.514 57.9665C275.498 57.9665 275.481 57.9658 275.464 57.9636C275.262 57.9362 275.121 57.7499 275.148 57.5473C275.279 56.5749 275.37 55.5951 275.418 54.6352C275.427 54.4319 275.607 54.2722 275.804 54.284C276.008 54.2943 276.164 54.4681 276.155 54.6715C276.107 55.6527 276.015 56.6532 275.879 57.6471C275.855 57.832 275.696 57.9665 275.514 57.9665ZM182.749 57.5924C182.671 57.5924 182.592 57.5672 182.524 57.5162C182.362 57.3927 182.331 57.1605 182.455 56.9978C183.041 56.2303 183.678 55.456 184.35 54.6951C184.486 54.5413 184.72 54.528 184.872 54.6633C185.025 54.7987 185.039 55.0323 184.904 55.1854C184.244 55.933 183.617 56.6947 183.042 57.4482C182.97 57.5421 182.861 57.5924 182.749 57.5924ZM238.714 56.6333C238.559 56.6333 238.415 56.5357 238.363 56.3804C238.299 56.1866 238.403 55.9774 238.596 55.913C239.546 55.5973 240.503 55.3059 241.442 55.0479C241.642 54.9946 241.842 55.1092 241.897 55.3067C241.951 55.5034 241.835 55.7075 241.638 55.7607C240.71 56.0158 239.766 56.3027 238.829 56.6148C238.792 56.6274 238.753 56.6333 238.714 56.6333ZM263.362 55.7822C263.32 55.7822 263.279 55.7755 263.237 55.76C262.34 55.4353 261.401 55.1551 260.447 54.9251C260.249 54.877 260.126 54.6774 260.174 54.4785C260.222 54.2803 260.413 54.1575 260.62 54.2056C261.6 54.4415 262.565 54.7306 263.488 55.0641C263.68 55.1336 263.78 55.3451 263.71 55.5374C263.655 55.689 263.514 55.7822 263.362 55.7822ZM245.861 54.7854C245.687 54.7854 245.531 54.6604 245.498 54.4814C245.462 54.2803 245.595 54.088 245.796 54.0511C246.785 53.8714 247.778 53.725 248.743 53.6155C248.941 53.5874 249.129 53.7375 249.153 53.9409C249.175 54.1435 249.03 54.3269 248.827 54.3498C247.877 54.4578 246.902 54.602 245.928 54.7787C245.905 54.7831 245.883 54.7854 245.861 54.7854ZM256.16 54.2285C256.148 54.2285 256.138 54.2285 256.127 54.2271C255.181 54.1428 254.199 54.0999 253.208 54.0991C253.005 54.0984 252.839 53.9327 252.839 53.7287C252.839 53.5246 253.005 53.3597 253.209 53.3597C254.22 53.3604 255.225 53.4048 256.192 53.4905C256.395 53.509 256.545 53.688 256.527 53.8913C256.51 54.0836 256.349 54.2285 256.16 54.2285ZM187.712 52.1255C187.614 52.1255 187.517 52.087 187.444 52.0101C187.304 51.8622 187.31 51.6278 187.459 51.4873C188.149 50.8329 188.891 50.1622 189.664 49.4937C189.818 49.3613 190.051 49.3761 190.186 49.5322C190.319 49.6867 190.302 49.9204 190.148 50.0535C189.382 50.7146 188.648 51.3779 187.967 52.0242C187.895 52.0922 187.803 52.1255 187.712 52.1255ZM275.701 50.5896C275.511 50.5896 275.35 50.4454 275.333 50.2531C275.245 49.2785 275.109 48.3054 274.927 47.3626C274.889 47.1622 275.02 46.9677 275.22 46.9292C275.418 46.893 275.613 47.0209 275.652 47.2221C275.839 48.19 275.978 49.1868 276.068 50.1866C276.086 50.3899 275.937 50.5696 275.734 50.5881C275.723 50.5896 275.712 50.5896 275.701 50.5896ZM193.338 47.3374C193.228 47.3374 193.119 47.2886 193.046 47.1947C192.92 47.0335 192.949 46.8013 193.111 46.6756C193.89 46.0685 194.677 45.4717 195.47 44.8809C195.633 44.7589 195.864 44.7922 195.987 44.9571C196.109 45.1205 196.074 45.3527 195.911 45.4747C195.123 46.0618 194.339 46.6556 193.563 47.259C193.497 47.3115 193.418 47.3374 193.338 47.3374ZM274.109 43.3909C273.958 43.3909 273.817 43.2977 273.762 43.1476C273.508 42.451 273.221 41.7574 272.91 41.0867C272.813 40.8804 272.714 40.6741 272.613 40.4692C272.522 40.2866 272.597 40.0648 272.779 39.9731C272.961 39.8821 273.184 39.956 273.274 40.1394C273.379 40.3494 273.48 40.5609 273.58 40.7732C273.901 41.4638 274.196 42.1767 274.457 42.8932C274.527 43.0855 274.428 43.297 274.236 43.3672C274.194 43.3835 274.151 43.3909 274.109 43.3909ZM199.271 42.9317C199.157 42.9317 199.044 42.8784 198.972 42.7779C198.852 42.6122 198.89 42.3808 199.055 42.2617L201.455 40.5336C201.62 40.4153 201.851 40.4522 201.97 40.6193C202.089 40.7857 202.051 41.0164 201.885 41.1355L199.487 42.8622C199.423 42.9095 199.347 42.9317 199.271 42.9317ZM205.301 38.659C205.184 38.659 205.068 38.6021 204.996 38.4971C204.882 38.3277 204.925 38.0978 205.094 37.9832C205.912 37.4271 206.736 36.8799 207.57 36.3482C207.74 36.2387 207.97 36.2883 208.079 36.4606C208.189 36.6329 208.139 36.8614 207.966 36.9708C207.14 37.4988 206.322 38.0416 205.51 38.5947C205.446 38.6383 205.373 38.659 205.301 38.659ZM270.567 36.9405C270.46 36.9405 270.354 36.8939 270.281 36.8052C269.65 36.0347 268.965 35.3499 268.248 34.7709C268.089 34.6422 268.065 34.41 268.193 34.251C268.322 34.0921 268.554 34.0677 268.713 34.1956C269.469 34.8071 270.189 35.5266 270.852 36.3364C270.982 36.4939 270.958 36.7275 270.801 36.8569C270.733 36.9124 270.651 36.9405 270.567 36.9405ZM211.574 34.7561C211.444 34.7561 211.318 34.6873 211.25 34.5646C211.151 34.3856 211.216 34.1608 211.395 34.0625C212.286 33.5707 213.175 33.1108 214.038 32.6952C214.223 32.6072 214.443 32.6841 214.531 32.8682C214.619 33.0524 214.543 33.2735 214.359 33.3615C213.508 33.7704 212.631 34.2244 211.752 34.7095C211.696 34.7413 211.635 34.7561 211.574 34.7561ZM264.66 32.6309C264.613 32.6309 264.564 32.622 264.518 32.602C263.704 32.2604 262.805 31.9424 261.769 31.6296C261.574 31.5712 261.463 31.3649 261.522 31.1697C261.581 30.9737 261.784 30.8628 261.982 30.922C263.043 31.2422 263.966 31.5683 264.803 31.9202C264.991 31.9994 265.08 32.216 265.001 32.4039C264.942 32.5458 264.805 32.6309 264.66 32.6309ZM218.277 31.6622C218.127 31.6622 217.985 31.5705 217.93 31.4218C217.858 31.2303 217.956 31.0174 218.147 30.9456C219.066 30.6032 220.014 30.2808 220.965 29.9873C221.163 29.9274 221.368 30.0368 221.427 30.232C221.487 30.4273 221.378 30.6336 221.183 30.6942C220.244 30.9833 219.31 31.3013 218.405 31.6385C218.363 31.6548 218.319 31.6622 218.277 31.6622ZM257.589 30.5197C257.562 30.5197 257.533 30.5167 257.505 30.5101C256.55 30.2853 255.591 30.0753 254.628 29.8801C254.428 29.8394 254.299 29.6442 254.339 29.4445C254.38 29.2441 254.572 29.1191 254.775 29.1554C255.745 29.3528 256.711 29.5643 257.673 29.7906C257.872 29.8372 257.995 30.0368 257.948 30.235C257.909 30.4051 257.758 30.5197 257.589 30.5197ZM225.36 29.5857C225.19 29.5857 225.038 29.4682 225.001 29.2951C224.956 29.0955 225.083 28.898 225.283 28.8551C226.244 28.6444 227.227 28.4558 228.204 28.2954C228.402 28.2584 228.595 28.3982 228.628 28.6C228.661 28.8012 228.525 28.992 228.324 29.0245C227.359 29.1835 226.389 29.3691 225.44 29.5769C225.414 29.5828 225.387 29.5857 225.36 29.5857ZM250.338 29.114C250.319 29.114 250.3 29.1125 250.282 29.1103C249.308 28.9631 248.327 28.8322 247.365 28.7206C247.163 28.6969 247.017 28.5135 247.041 28.3109C247.064 28.1083 247.254 27.9597 247.451 27.9863C248.421 28.0979 249.41 28.2303 250.393 28.3789C250.595 28.41 250.734 28.5978 250.703 28.7997C250.675 28.9823 250.517 29.114 250.338 29.114ZM232.658 28.4706C232.469 28.4706 232.308 28.3264 232.291 28.1342C232.273 27.9308 232.423 27.7511 232.626 27.7326C233.597 27.6446 234.596 27.5774 235.591 27.533C235.811 27.5123 235.968 27.6823 235.976 27.8857C235.985 28.0898 235.827 28.2628 235.623 28.2717C234.639 28.3161 233.653 28.3819 232.692 28.4691C232.681 28.4706 232.67 28.4706 232.658 28.4706ZM242.992 28.3346C242.985 28.3346 242.978 28.3346 242.971 28.3338C241.99 28.2761 241.001 28.237 240.032 28.2185C239.828 28.2148 239.666 28.0462 239.67 27.8413C239.674 27.6372 239.82 27.4827 240.047 27.479C241.025 27.4982 242.024 27.5374 243.014 27.5958C243.218 27.6077 243.374 27.7829 243.362 27.9863C243.35 28.183 243.187 28.3346 242.992 28.3346Z" fill="#50448C"/>
<path d="M184.408 226.369H89.0394C85.5167 226.369 82.6611 223.511 82.6611 219.985V32.481C82.6611 28.9552 85.5167 26.0972 89.0394 26.0972H184.408C187.93 26.0972 190.786 28.9552 190.786 32.481V219.984C190.786 223.511 187.93 226.369 184.408 226.369Z" fill="url(#paint0_linear_376_10986)"/>
<path d="M89.0398 221.931C87.967 221.931 87.0938 221.058 87.0938 219.984V32.4817C87.0938 31.408 87.967 30.5347 89.0398 30.5347H184.407C185.48 30.5347 186.353 31.408 186.353 32.4817V219.985C186.353 221.059 185.48 221.932 184.407 221.932L89.0398 221.931Z" fill="url(#paint1_linear_376_10986)"/>
<path d="M63.2106 186.715C63.156 186.715 63.0998 186.702 63.0466 186.676C62.1637 186.238 61.2816 185.759 60.4268 185.253C60.2509 185.148 60.1933 184.922 60.2967 184.746C60.4009 184.572 60.6277 184.513 60.8028 184.616C61.6429 185.114 62.508 185.584 63.3754 186.014C63.5579 186.105 63.6332 186.326 63.5424 186.509C63.4781 186.639 63.3466 186.715 63.2106 186.715ZM56.9277 182.844C56.8509 182.844 56.7733 182.82 56.7068 182.77C55.9148 182.177 55.1339 181.549 54.384 180.902C54.2296 180.768 54.2126 180.535 54.3456 180.38C54.4785 180.225 54.712 180.208 54.8664 180.341C55.603 180.977 56.3707 181.595 57.1486 182.177C57.3119 182.299 57.3459 182.531 57.2233 182.695C57.1516 182.793 57.04 182.844 56.9277 182.844ZM51.428 177.922C51.3297 177.922 51.2314 177.882 51.1583 177.805C50.4808 177.082 49.8203 176.327 49.196 175.561C49.0674 175.402 49.0911 175.169 49.2492 175.04C49.4073 174.911 49.64 174.936 49.7693 175.092C50.3833 175.847 51.032 176.588 51.6976 177.299C51.8373 177.448 51.8299 177.682 51.6814 177.821C51.6097 177.888 51.5188 177.922 51.428 177.922ZM46.8672 172.116C46.7468 172.116 46.6286 172.057 46.5577 171.948C46.0139 171.115 45.4953 170.256 45.0172 169.395C44.9182 169.217 44.9825 168.991 45.1606 168.892C45.3401 168.791 45.564 168.857 45.663 169.035C46.1329 169.881 46.6419 170.724 47.1761 171.544C47.2876 171.715 47.2396 171.944 47.0689 172.055C47.0061 172.097 46.9359 172.116 46.8672 172.116ZM43.4 165.598C43.2559 165.598 43.1192 165.513 43.0594 165.371C42.8688 164.917 42.6863 164.46 42.5112 163.997C42.3339 163.528 42.1647 163.055 42.0036 162.58C41.9386 162.387 42.042 162.177 42.2348 162.111C42.4284 162.048 42.6382 162.15 42.7033 162.343C42.8614 162.809 43.0269 163.274 43.202 163.736C43.3734 164.188 43.5529 164.638 43.7398 165.084C43.8189 165.272 43.7302 165.488 43.5426 165.567C43.496 165.588 43.448 165.598 43.4 165.598ZM41.1362 158.568C40.9693 158.568 40.8178 158.454 40.7772 158.284C40.5555 157.35 40.3501 156.37 40.1684 155.371C40.1314 155.17 40.2644 154.977 40.4654 154.94C40.6663 154.91 40.8584 155.037 40.8954 155.238C41.0749 156.224 41.2773 157.191 41.496 158.114C41.5433 158.312 41.4207 158.511 41.2219 158.559C41.1931 158.565 41.1643 158.568 41.1362 158.568ZM39.8839 151.285C39.6992 151.285 39.5396 151.146 39.5175 150.958C39.4074 150.016 39.3091 149.021 39.2256 148.002C39.2086 147.799 39.3601 147.62 39.5633 147.603C39.7724 147.589 39.9452 147.738 39.9622 147.941C40.045 148.952 40.1425 149.938 40.2511 150.873C40.2748 151.075 40.1292 151.259 39.9275 151.283C39.9127 151.284 39.8987 151.285 39.8839 151.285ZM39.3173 143.913C39.1207 143.913 38.9575 143.759 38.9486 143.56C38.9035 142.572 38.8688 141.584 38.8392 140.598C38.8333 140.394 38.9937 140.224 39.1976 140.217C39.3919 140.215 39.5714 140.371 39.5781 140.576C39.6069 141.558 39.6423 142.541 39.6867 143.526C39.6963 143.729 39.5382 143.903 39.3342 143.911C39.3291 143.914 39.3232 143.913 39.3173 143.913ZM39.117 136.522C38.9146 136.522 38.7498 136.358 38.7476 136.156C38.7425 135.662 38.7402 135.167 38.7402 134.672C38.7402 134.178 38.7425 133.684 38.7484 133.19C38.7498 132.986 38.9198 132.785 39.1215 132.824C39.3254 132.827 39.4894 132.994 39.4872 133.199C39.482 133.69 39.4791 134.181 39.4791 134.672C39.4791 135.164 39.4813 135.657 39.4864 136.148C39.4887 136.352 39.3246 136.52 39.1207 136.522C39.1207 136.522 39.1185 136.522 39.117 136.522ZM39.2604 129.129C39.2537 129.129 39.2463 129.129 39.2397 129.129C39.0358 129.117 38.8799 128.943 38.8917 128.74C38.9486 127.721 39.0217 126.724 39.1104 125.775C39.1296 125.572 39.3121 125.426 39.5123 125.442C39.7155 125.461 39.8647 125.641 39.8462 125.845C39.7583 126.784 39.6852 127.772 39.629 128.78C39.618 128.977 39.4547 129.129 39.2604 129.129ZM40.0413 121.78C40.0213 121.78 40.0014 121.778 39.9807 121.775C39.7798 121.741 39.6431 121.551 39.6763 121.349C39.8403 120.356 40.0302 119.373 40.2415 118.426C40.2858 118.228 40.4846 118.105 40.6826 118.146C40.8821 118.191 41.0069 118.389 40.9626 118.588C40.755 119.521 40.5673 120.49 40.4055 121.47C40.3752 121.651 40.2186 121.78 40.0413 121.78ZM41.7709 114.598C41.7325 114.598 41.694 114.592 41.6549 114.58C41.4613 114.515 41.3557 114.306 41.4199 114.112C41.7317 113.167 42.0812 112.226 42.4595 111.314C42.5378 111.125 42.7535 111.036 42.9426 111.114C43.131 111.193 43.2204 111.409 43.1421 111.598C42.7705 112.493 42.4277 113.416 42.1218 114.344C42.0701 114.5 41.926 114.598 41.7709 114.598ZM80.4517 112.818C80.4414 112.818 80.4318 112.817 80.4214 112.817C79.4388 112.737 78.4392 112.568 77.4492 112.316C77.2511 112.266 77.1322 112.065 77.1824 111.866C77.2327 111.668 77.4329 111.547 77.6316 111.599C78.581 111.841 79.54 112.003 80.4813 112.08C80.6844 112.096 80.8359 112.275 80.8196 112.479C80.8034 112.672 80.6416 112.818 80.4517 112.818ZM84.858 112.549C84.6925 112.549 84.5426 112.437 84.5004 112.269C84.4509 112.071 84.5706 111.87 84.7686 111.821C85.3065 111.685 85.7416 111.498 86.1015 111.25C86.4302 111.022 86.7154 110.728 86.9482 110.376C87.0604 110.206 87.2895 110.158 87.4601 110.271C87.6301 110.385 87.6766 110.614 87.5643 110.784C87.2791 111.214 86.9289 111.575 86.5218 111.857C86.0882 112.157 85.5732 112.38 84.9489 112.537C84.9186 112.545 84.8883 112.549 84.858 112.549ZM73.4012 110.764C73.3458 110.764 73.2889 110.751 73.2357 110.725C72.358 110.283 71.4869 109.773 70.6468 109.207C70.4769 109.093 70.4326 108.863 70.5464 108.694C70.6601 108.525 70.8899 108.48 71.0591 108.594C71.874 109.141 72.7185 109.636 73.5681 110.064C73.7506 110.155 73.8238 110.377 73.7322 110.56C73.6664 110.69 73.5364 110.764 73.4012 110.764ZM44.7387 107.839C44.6766 107.839 44.6146 107.823 44.557 107.791C44.3796 107.691 44.3168 107.465 44.4173 107.287C44.9116 106.411 45.4435 105.557 45.9969 104.75C46.1122 104.58 46.3427 104.538 46.5104 104.654C46.6788 104.77 46.7217 105 46.6057 105.168C46.0641 105.958 45.5448 106.794 45.0608 107.651C44.9929 107.771 44.868 107.839 44.7387 107.839ZM88.0047 106.669C87.8222 106.669 87.6633 106.533 87.6389 106.347C87.5148 105.404 87.2681 104.477 86.9053 103.591C86.8277 103.402 86.9179 103.186 87.107 103.109C87.2947 103.031 87.5111 103.121 87.5887 103.31C87.9758 104.254 88.2389 105.244 88.3719 106.25C88.3985 106.453 88.2559 106.638 88.0542 106.665C88.0372 106.667 88.0209 106.669 88.0047 106.669ZM67.4079 106.485C67.3155 106.485 67.2232 106.451 67.1515 106.381C66.9225 106.161 66.6979 105.937 66.4777 105.709C66.013 105.228 65.5527 104.719 65.1079 104.195C64.9757 104.039 64.9949 103.806 65.1508 103.674C65.3074 103.541 65.5394 103.561 65.6716 103.717C66.1053 104.228 66.5553 104.725 67.0089 105.195C67.2224 105.416 67.4411 105.633 67.6635 105.848C67.8105 105.989 67.815 106.224 67.6739 106.371C67.6014 106.447 67.5047 106.485 67.4079 106.485ZM49.0578 101.859C48.9677 101.859 48.8783 101.827 48.8074 101.761C48.6574 101.622 48.6485 101.388 48.7867 101.238C49.4716 100.496 50.1927 99.7931 50.9315 99.1483C51.0837 99.013 51.3186 99.0292 51.4523 99.1838C51.5868 99.3376 51.5706 99.5713 51.4169 99.7051C50.6988 100.333 49.9961 101.018 49.329 101.74C49.2566 101.819 49.1568 101.859 49.0578 101.859ZM62.7385 100.774C62.6189 100.774 62.5014 100.716 62.4305 100.609C61.9066 99.8168 61.3813 98.9627 60.8679 98.0716C60.7659 97.8949 60.8265 97.6686 61.0038 97.5666C61.1811 97.4645 61.4065 97.5259 61.5084 97.7026C62.0138 98.5811 62.5317 99.4212 63.0474 100.201C63.1597 100.371 63.1131 100.601 62.9432 100.713C62.8789 100.754 62.8087 100.774 62.7385 100.774ZM84.8772 100.099C84.776 100.099 84.6755 100.058 84.6024 99.9765C83.9818 99.2851 83.2681 98.627 82.4812 98.0206C82.3194 97.8956 82.2899 97.6642 82.414 97.5023C82.5381 97.3403 82.7694 97.3092 82.9319 97.435C83.7535 98.0679 84.5004 98.7571 85.1513 99.4825C85.288 99.6341 85.2747 99.8678 85.1233 100.005C85.0538 100.068 84.9652 100.099 84.8772 100.099ZM54.749 97.1843C54.6234 97.1843 54.5007 97.1207 54.432 97.0046C54.3271 96.8301 54.3832 96.6031 54.5583 96.4973C54.9396 96.2681 55.3274 96.0492 55.7227 95.8407C56.2074 95.5848 56.7113 95.3408 57.2218 95.1152C57.4102 95.0332 57.6274 95.1175 57.7094 95.3038C57.7914 95.4902 57.7072 95.709 57.521 95.7919C57.0267 96.01 56.5376 96.2474 56.0678 96.4951C55.6843 96.697 55.309 96.9092 54.9396 97.131C54.879 97.1673 54.8132 97.1843 54.749 97.1843ZM78.9157 95.814C78.864 95.814 78.8108 95.803 78.7606 95.7793C77.8939 95.3763 76.9822 95.0213 76.0513 94.7255C75.857 94.6634 75.7491 94.4556 75.8112 94.2612C75.8725 94.0667 76.0794 93.958 76.2752 94.0208C77.2356 94.3262 78.1769 94.6923 79.0723 95.1093C79.2578 95.1951 79.3376 95.4147 79.2511 95.6003C79.1883 95.7349 79.0546 95.814 78.9157 95.814ZM61.5631 94.3994C61.3968 94.3994 61.2461 94.2863 61.2048 94.1177C61.156 93.9195 61.2772 93.7191 61.4752 93.6711C62.4319 93.4359 63.4219 93.2496 64.4164 93.1157C64.6181 93.0876 64.8043 93.2311 64.8316 93.433C64.859 93.6356 64.7164 93.8212 64.5147 93.8485C63.5461 93.9779 62.5819 94.1599 61.651 94.3884C61.6214 94.3965 61.5919 94.3994 61.5631 94.3994ZM59.1139 94.3358C58.9772 94.3358 58.8464 94.2597 58.7822 94.1295C58.3463 93.2414 57.9251 92.3452 57.5136 91.4467C57.4286 91.2611 57.5099 91.0415 57.6961 90.9565C57.8815 90.87 58.1002 90.9535 58.1859 91.1384C58.5945 92.0309 59.0127 92.9212 59.4456 93.8027C59.5358 93.9861 59.4604 94.2072 59.2772 94.2974C59.224 94.3233 59.1686 94.3358 59.1139 94.3358ZM71.8349 93.8049C71.8208 93.8049 71.8068 93.8042 71.7928 93.8027L71.6694 93.7886C70.7422 93.6836 69.8039 93.6223 68.8811 93.6053C68.6772 93.6016 68.5146 93.433 68.5183 93.2289C68.522 93.0248 68.6705 92.8443 68.8944 92.8658C69.8401 92.8835 70.802 92.9471 71.7529 93.0544L71.8762 93.0691C72.0787 93.0921 72.2242 93.2755 72.2013 93.4781C72.1799 93.6659 72.0203 93.8049 71.8349 93.8049ZM56.0515 87.6067C55.9082 87.6067 55.7722 87.5231 55.7124 87.3826C55.323 86.4746 54.9418 85.5606 54.5768 84.6407C54.5015 84.4506 54.5945 84.2362 54.7837 84.1608C54.9721 84.0861 55.1878 84.1778 55.2632 84.3678C55.6252 85.2811 56.0042 86.1891 56.3906 87.0913C56.4711 87.2791 56.3847 87.4965 56.197 87.5771C56.1498 87.5963 56.1003 87.6067 56.0515 87.6067ZM53.4139 80.7015C53.2573 80.7015 53.1125 80.6017 53.0622 80.4442C52.749 79.4651 52.4734 78.5009 52.2429 77.5788C52.1934 77.3806 52.3138 77.1802 52.5111 77.1306C52.7113 77.0811 52.91 77.2009 52.9588 77.3991C53.1856 78.3064 53.4568 79.2551 53.7656 80.2187C53.8276 80.4131 53.7205 80.6217 53.5262 80.6838C53.4893 80.6956 53.4509 80.7015 53.4139 80.7015ZM51.7856 73.5006C51.6009 73.5006 51.4413 73.363 51.4191 73.1745C51.2994 72.1658 51.2307 71.1609 51.2152 70.187C51.2122 69.9829 51.3748 69.8151 51.5787 69.8114C51.7863 69.7781 51.9503 69.9711 51.954 70.1752C51.9688 71.1232 52.0353 72.103 52.1527 73.0865C52.1771 73.2891 52.0323 73.4732 51.8299 73.4976C51.8151 73.4998 51.8003 73.5006 51.7856 73.5006Z" fill="#50448C"/>
<mask id="mask0_376_10986" style="mask-type:luminance" maskUnits="userSpaceOnUse" x="42" y="11" width="145" height="222">
<path d="M61.3834 222.695C55.6425 220.226 52.1527 214.485 51.8418 208.243L42.9037 28.7985C42.4854 20.4011 47.9504 12.7958 56.3351 12.1717C97.4027 9.11459 168.772 26.5623 182.196 29.9666C183.695 30.3468 185.653 30.3319 186.218 31.7716C186.304 31.9917 186.352 32.2312 186.352 32.4817V219.985C186.352 221.059 185.479 221.932 184.407 221.932C184.407 221.932 116.291 246.317 61.3834 222.695Z" fill="white"/>
</mask>
<g mask="url(#mask0_376_10986)">
<path d="M170.161 143.466L156.48 178.56C154.474 183.704 157.446 189.441 162.803 190.765C167.191 191.849 171.712 189.559 173.439 185.379L189.123 147.401C189.123 147.401 175.128 137.599 170.161 143.466Z" fill="url(#paint2_linear_376_10986)"/>
<path d="M104.321 54.8945L133.261 82.0034C149.706 97.4081 169.824 108.334 191.693 113.737L197.097 115.072C199.245 126.496 196.337 138.29 189.124 147.401L183.719 146.066C161.851 140.663 138.965 140.964 117.245 146.941L79.0264 157.457L104.321 54.8945Z" fill="url(#paint3_linear_376_10986)"/>
<path d="M81.8488 103.749C74.864 132.07 73.6006 156.116 79.0272 157.457C84.4531 158.798 94.5143 136.925 101.499 108.603C108.484 80.2816 109.747 56.2356 104.321 54.8949C98.8948 53.5543 88.8336 75.4262 81.8488 103.749Z" fill="url(#paint4_linear_376_10986)"/>
<mask id="mask1_376_10986" style="mask-type:luminance" maskUnits="userSpaceOnUse" x="75" y="54" width="33" height="104">
<path d="M101.5 108.59C108.484 80.2674 109.746 56.2206 104.319 54.8802C98.8925 53.5398 88.8321 75.4135 81.8487 103.736C74.8653 132.059 73.6033 156.106 79.0299 157.446C84.4566 158.787 94.517 136.913 101.5 108.59Z" fill="white"/>
</mask>
<g mask="url(#mask1_376_10986)">
<path d="M93.6739 118.697L99.0939 120.036C105.349 121.582 111.672 117.76 113.216 111.499C114.76 105.237 110.941 98.9098 104.685 97.3643L99.2653 96.0252C93.0097 94.4797 86.6876 98.302 85.1435 104.563C83.5994 110.823 87.4183 117.152 93.6739 118.697Z" fill="url(#paint5_radial_376_10986)"/>
</g>
</g>
<path d="M144.951 57.8264C144.756 57.8264 144.592 57.6726 144.583 57.4751C144.534 56.4975 144.463 55.5096 144.373 54.5402C144.354 54.3368 144.504 54.1564 144.707 54.1379C144.905 54.1179 145.089 54.268 145.109 54.4721C145.2 55.4519 145.271 56.4502 145.32 57.4389C145.331 57.643 145.174 57.816 144.97 57.8264C144.964 57.8264 144.957 57.8264 144.951 57.8264ZM144.187 50.4738C144.009 50.4738 143.852 50.3444 143.823 50.1625C143.669 49.1857 143.491 48.2125 143.297 47.269C143.256 47.0693 143.385 46.8734 143.584 46.832C143.774 46.7935 143.98 46.9192 144.02 47.1196C144.218 48.0743 144.396 49.0585 144.554 50.0464C144.586 50.2483 144.449 50.4376 144.246 50.4694C144.227 50.4723 144.207 50.4738 144.187 50.4738ZM53.7375 43.8504C53.7094 43.8504 53.6814 43.8475 53.6533 43.8408C53.4545 43.7942 53.3304 43.596 53.377 43.3971C53.4272 43.1805 53.4804 42.9645 53.5351 42.7494C53.5853 42.5512 53.7855 42.4306 53.9843 42.4824C54.1823 42.5327 54.3012 42.7338 54.251 42.932C54.1978 43.142 54.1461 43.3527 54.0966 43.5642C54.0574 43.7351 53.9052 43.8504 53.7375 43.8504ZM142.615 43.2507C142.454 43.2507 142.306 43.1435 142.26 42.9808C141.995 42.035 141.705 41.0892 141.398 40.1708C141.333 39.9771 141.437 39.7678 141.63 39.7027C141.824 39.6384 142.033 39.7419 142.098 39.9357C142.409 40.8659 142.703 41.8235 142.971 42.7811C143.027 42.9778 142.912 43.1819 142.715 43.2367C142.682 43.2463 142.648 43.2507 142.615 43.2507ZM55.2462 38.9884C55.2011 38.9884 55.156 38.9803 55.1125 38.9633C54.9226 38.8893 54.828 38.6749 54.9019 38.4848C55.258 37.5672 55.6577 36.6458 56.0899 35.7458C56.1786 35.5617 56.3987 35.4841 56.5827 35.5728C56.7667 35.6615 56.8442 35.8819 56.7556 36.066C56.3322 36.9482 55.9399 37.8518 55.5905 38.7518C55.5336 38.8982 55.3939 38.9884 55.2462 38.9884ZM140.173 36.2746C140.029 36.2746 139.893 36.1903 139.833 36.0505C139.447 35.1469 139.033 34.2499 138.603 33.3855C138.511 33.2028 138.586 32.981 138.768 32.89C138.952 32.7983 139.173 32.8737 139.263 33.0557C139.701 33.9334 140.121 34.8429 140.512 35.7599C140.592 35.9477 140.506 36.1651 140.318 36.2457C140.27 36.265 140.221 36.2746 140.173 36.2746ZM58.5642 32.3938C58.497 32.3938 58.429 32.3761 58.3684 32.3376C58.1955 32.2289 58.1431 32.0004 58.2517 31.8281C58.7748 30.9933 59.3385 30.1621 59.9259 29.3591C60.0463 29.1942 60.2775 29.1587 60.4423 29.2792C60.607 29.3997 60.6425 29.6312 60.5221 29.7961C59.9451 30.5851 59.3917 31.4007 58.8782 32.2215C58.8073 32.3332 58.6876 32.3938 58.5642 32.3938ZM136.769 29.7162C136.646 29.7162 136.525 29.6548 136.456 29.5424C135.936 28.7098 135.385 27.8919 134.819 27.1118C134.699 26.9462 134.736 26.7147 134.901 26.5949C135.067 26.4744 135.297 26.5121 135.418 26.677C135.993 27.4712 136.554 28.3038 137.082 29.1513C137.19 29.3243 137.138 29.5528 136.965 29.6608C136.903 29.6985 136.836 29.7162 136.769 29.7162ZM63.0245 26.5106C62.9358 26.5106 62.8471 26.4796 62.7769 26.4152C62.6255 26.2777 62.6137 26.0448 62.7511 25.8932C63.4123 25.1626 64.1098 24.4423 64.8257 23.7517C64.9727 23.6104 65.2069 23.6149 65.348 23.7613C65.4899 23.9084 65.4855 24.1421 65.3384 24.2841C64.6351 24.9629 63.9487 25.6713 63.2986 26.3901C63.2254 26.47 63.1257 26.5106 63.0245 26.5106ZM132.32 23.8264C132.22 23.8264 132.12 23.7857 132.047 23.7066C131.385 22.9826 130.692 22.2846 129.987 21.6301C129.837 21.4911 129.829 21.2574 129.967 21.1081C130.105 20.958 130.34 20.9483 130.49 21.0881C131.209 21.7558 131.916 22.4694 132.592 23.2074C132.73 23.3583 132.719 23.5919 132.569 23.7295C132.498 23.7938 132.408 23.8264 132.32 23.8264ZM68.4223 21.4726C68.3129 21.4726 68.205 21.4246 68.1319 21.3321C68.0056 21.1717 68.0329 20.9387 68.1932 20.813C68.969 20.2015 69.7773 19.6077 70.5944 19.0464C70.7636 18.9318 70.9926 18.974 71.1079 19.1426C71.2231 19.3112 71.1803 19.5411 71.0118 19.6565C70.208 20.2081 69.413 20.7923 68.6506 21.3935C68.5826 21.4467 68.5021 21.4726 68.4223 21.4726ZM126.81 18.9303C126.736 18.9303 126.66 18.9081 126.595 18.8616C125.803 18.2966 124.979 17.7627 124.145 17.2739C123.969 17.1704 123.91 16.9441 124.012 16.7681C124.116 16.5914 124.341 16.533 124.519 16.6358C125.371 17.1356 126.215 17.6828 127.025 18.2596C127.191 18.3779 127.229 18.6087 127.111 18.775C127.039 18.8763 126.926 18.9303 126.81 18.9303ZM74.5803 17.4018C74.4496 17.4018 74.3225 17.3323 74.2552 17.2096C74.1577 17.0306 74.2235 16.8058 74.4023 16.7075C74.7089 16.5396 75.0162 16.3762 75.3265 16.2165C75.8991 15.9207 76.4783 15.6367 77.0627 15.3654C77.2489 15.2796 77.4676 15.3602 77.5533 15.545C77.639 15.7299 77.5585 15.9495 77.3738 16.036C76.799 16.303 76.2294 16.5825 75.6649 16.8731C75.3605 17.0299 75.0583 17.1918 74.7569 17.356C74.7008 17.3871 74.6402 17.4018 74.5803 17.4018ZM120.372 15.3358C120.323 15.3358 120.274 15.3262 120.227 15.3062C119.351 14.932 118.431 14.5793 117.493 14.2576C117.3 14.1911 117.198 13.9811 117.263 13.7881C117.33 13.5951 117.54 13.4938 117.732 13.5581C118.687 13.8857 119.624 14.2451 120.517 14.6259C120.705 14.7057 120.792 14.9231 120.712 15.111C120.652 15.2515 120.515 15.3358 120.372 15.3358ZM81.3191 14.3929C81.1669 14.3929 81.025 14.299 80.9711 14.1474C80.9031 13.9552 81.0029 13.7437 81.195 13.6749C82.1207 13.3451 83.0738 13.0375 84.0283 12.7602C84.2249 12.7025 84.4295 12.8164 84.4857 13.0124C84.5426 13.2083 84.4295 13.4139 84.2337 13.4701C83.2939 13.743 82.3549 14.0461 81.4432 14.3715C81.4026 14.3856 81.3605 14.3929 81.3191 14.3929ZM113.357 13.0419C113.328 13.0419 113.299 13.039 113.27 13.0316C112.345 12.8075 111.379 12.6005 110.399 12.4156C110.199 12.3779 110.067 12.1842 110.105 11.9838C110.143 11.7834 110.333 11.6517 110.536 11.6895C111.528 11.8765 112.506 12.0866 113.444 12.3136C113.643 12.3616 113.764 12.5613 113.716 12.7602C113.675 12.9281 113.524 13.0419 113.357 13.0419ZM88.4369 12.4334C88.264 12.4334 88.1103 12.3121 88.0748 12.1361C88.0349 11.9357 88.165 11.7412 88.3652 11.7013C89.3293 11.509 90.3157 11.3404 91.2976 11.1999C91.4993 11.1689 91.6869 11.3116 91.7157 11.5135C91.7446 11.7153 91.6042 11.9032 91.4025 11.932C90.4332 12.0703 89.4601 12.2367 88.51 12.426C88.4849 12.4311 88.4605 12.4334 88.4369 12.4334ZM106.086 11.7597C106.072 11.7597 106.058 11.759 106.044 11.7575C105.072 11.6466 104.087 11.5586 103.118 11.4965C102.915 11.4831 102.76 11.3079 102.773 11.1038C102.786 10.8997 102.957 10.7503 103.165 10.7585C104.146 10.8213 105.142 10.9108 106.126 11.0225C106.329 11.0454 106.474 11.2288 106.451 11.4314C106.431 11.6199 106.271 11.7597 106.086 11.7597ZM95.7578 11.4854C95.5642 11.4854 95.4017 11.3345 95.3891 11.1385C95.3766 10.9352 95.531 10.7592 95.7349 10.7466C96.7168 10.6853 97.7164 10.649 98.7072 10.6387C98.8985 10.6483 99.0781 10.7999 99.0803 11.0047C99.0825 11.2088 98.9192 11.3759 98.7146 11.3781C97.7371 11.3892 96.7501 11.4247 95.78 11.4854C95.7733 11.4854 95.7659 11.4854 95.7578 11.4854Z" fill="#50448C"/>
<path d="M183.375 85.5048C193.594 85.5048 201.878 77.2138 201.878 66.9863C201.878 56.7588 193.594 48.4678 183.375 48.4678C173.157 48.4678 164.873 56.7588 164.873 66.9863C164.873 77.2138 173.157 85.5048 183.375 85.5048Z" fill="url(#paint6_linear_376_10986)"/>
<path d="M183.375 82.0338C191.678 82.0338 198.409 75.2972 198.409 66.9871C198.409 58.6771 191.678 51.9404 183.375 51.9404C175.073 51.9404 168.342 58.6771 168.342 66.9871C168.342 75.2972 175.073 82.0338 183.375 82.0338Z" fill="url(#paint7_linear_376_10986)"/>
<path d="M183.375 58.9771L185.975 64.2502L191.79 65.0954L187.582 69.2002L188.575 74.9954L183.375 72.2594L178.175 74.9954L179.169 69.2002L174.961 65.0954L180.775 64.2502L183.375 58.9771Z" fill="url(#paint8_linear_376_10986)"/>
<path d="M143.864 68.5774C149.159 68.5774 153.452 64.2808 153.452 58.9806C153.452 53.6804 149.159 49.3838 143.864 49.3838C138.568 49.3838 134.275 53.6804 134.275 58.9806C134.275 64.2808 138.568 68.5774 143.864 68.5774Z" fill="url(#paint9_linear_376_10986)"/>
<path d="M143.864 60.7351C143.13 60.7351 142.536 60.1398 142.536 59.4063V54.3786C142.536 53.6443 143.131 53.0498 143.864 53.0498C144.597 53.0498 145.191 53.6451 145.191 54.3786V59.4063C145.191 60.1406 144.597 60.7351 143.864 60.7351Z" fill="url(#paint10_linear_376_10986)"/>
<path d="M145.191 63.5813C145.191 64.3156 144.597 64.9101 143.864 64.9101C143.13 64.9101 142.536 64.3148 142.536 63.5813C142.536 62.8477 143.131 62.2524 143.864 62.2524C144.597 62.2524 145.191 62.847 145.191 63.5813Z" fill="url(#paint11_linear_376_10986)"/>
<path d="M223.274 183.118C229.823 183.118 235.132 177.805 235.132 171.251C235.132 164.696 229.823 159.383 223.274 159.383C216.726 159.383 211.417 164.696 211.417 171.251C211.417 177.805 216.726 183.118 223.274 183.118Z" fill="url(#paint12_linear_376_10986)"/>
<path d="M223.274 181.229C228.781 181.229 233.244 176.761 233.244 171.25C233.244 165.739 228.781 161.271 223.274 161.271C217.768 161.271 213.304 165.739 213.304 171.25C213.304 176.761 217.768 181.229 223.274 181.229Z" fill="url(#paint13_linear_376_10986)"/>
<path d="M224.227 176.773V178.459H222.722V176.817C221.232 176.727 219.802 176.26 218.975 175.612L219.802 173.775C220.555 174.332 221.638 174.739 222.722 174.844V172.328C221.051 171.922 219.185 171.364 219.185 169.21C219.185 167.614 220.344 166.243 222.722 165.972V164.299H224.227V165.942C225.355 166.032 226.454 166.333 227.282 166.86L226.53 168.713C225.763 168.276 224.98 168.021 224.228 167.929V170.491C225.898 170.882 227.734 171.44 227.734 173.563C227.733 175.13 226.59 176.486 224.227 176.773ZM222.722 170.114V167.975C221.925 168.156 221.608 168.593 221.608 169.09C221.608 169.618 222.059 169.904 222.722 170.114ZM225.311 173.745C225.311 173.217 224.874 172.931 224.227 172.706V174.784C224.979 174.619 225.311 174.227 225.311 173.745Z" fill="#FFC431"/>
<path d="M251.318 101.965C260.476 101.965 267.9 94.5342 267.9 85.3681C267.9 76.202 260.476 68.7715 251.318 68.7715C242.16 68.7715 234.736 76.202 234.736 85.3681C234.736 94.5342 242.16 101.965 251.318 101.965Z" fill="url(#paint14_linear_376_10986)"/>
<path d="M251.318 99.3226C259.018 99.3226 265.26 93.0749 265.26 85.3681C265.26 77.6612 259.018 71.4136 251.318 71.4136C243.618 71.4136 237.376 77.6612 237.376 85.3681C237.376 93.0749 243.618 99.3226 251.318 99.3226Z" fill="url(#paint15_linear_376_10986)"/>
<path d="M256.329 88.0131L258.496 90.0355C257.107 91.7422 255.003 92.6688 252.435 92.6688C248.71 92.6688 245.763 90.562 244.795 87.3816H242.416V85.612H244.479C244.458 85.4227 244.458 85.2327 244.458 85.0434C244.458 84.8541 244.458 84.664 244.479 84.474H242.416V82.7044H244.795C245.763 79.5233 248.71 77.4165 252.435 77.4165C255.003 77.4165 257.107 78.3431 258.496 80.029L256.329 82.0515C255.319 80.9134 254.076 80.3241 252.603 80.3241C250.73 80.3241 249.215 81.2299 248.435 82.7044H253.761V84.474H247.909C247.888 84.664 247.888 84.8533 247.888 85.0434C247.888 85.2327 247.888 85.4227 247.909 85.612H253.761V87.3816H248.435C249.215 88.8561 250.729 89.7619 252.603 89.7619C254.076 89.7619 255.319 89.1718 256.329 88.0131Z" fill="#FFC431"/>
<path d="M38.4004 156.239C47.5584 156.239 54.9825 148.808 54.9825 139.642C54.9825 130.476 47.5584 123.045 38.4004 123.045C29.2424 123.045 21.8184 130.476 21.8184 139.642C21.8184 148.808 29.2424 156.239 38.4004 156.239Z" fill="url(#paint16_linear_376_10986)"/>
<path d="M38.4003 153.596C46.1003 153.596 52.3425 147.349 52.3425 139.642C52.3425 131.935 46.1003 125.688 38.4003 125.688C30.7002 125.688 24.458 131.935 24.458 139.642C24.458 147.349 30.7002 153.596 38.4003 153.596Z" fill="url(#paint17_linear_376_10986)"/>
<path d="M29.4346 135.84C29.4346 133.355 30.9499 131.774 33.0969 131.774C35.2432 131.774 36.7378 133.333 36.7378 135.84C36.7378 138.348 35.2439 139.906 33.0969 139.906C30.9499 139.906 29.4346 138.326 29.4346 135.84ZM34.6329 135.84C34.6329 134.26 34.0226 133.502 33.0969 133.502C32.1911 133.502 31.5602 134.282 31.5602 135.84C31.5602 137.399 32.1911 138.178 33.0969 138.178C34.0226 138.178 34.6329 137.42 34.6329 135.84ZM41.8733 131.942H44.3787L34.3182 146.689H31.8128L41.8733 131.942ZM39.453 142.792C39.453 140.306 40.969 138.726 43.0946 138.726C45.2416 138.726 46.7569 140.306 46.7569 142.792C46.7569 145.277 45.2416 146.857 43.0946 146.857C40.9683 146.857 39.453 145.277 39.453 142.792ZM44.6306 142.792C44.6306 141.233 44.0203 140.454 43.0939 140.454C42.1888 140.454 41.5578 141.212 41.5578 142.792C41.5578 144.372 42.1888 145.13 43.0939 145.13C44.0203 145.13 44.6306 144.351 44.6306 142.792Z" fill="#FFC431"/>
<path d="M221.248 37.4614C222.083 41.9707 225.608 45.4987 230.113 46.335C225.608 47.1714 222.083 50.6994 221.248 55.2087C220.412 50.6994 216.887 47.1714 212.382 46.335C216.887 45.4987 220.412 41.9707 221.248 37.4614Z" fill="url(#paint18_linear_376_10986)"/>
<path d="M33.3238 87.5371C34.1594 92.0464 37.6843 95.5744 42.1897 96.4107C37.6843 97.2471 34.1594 100.775 33.3238 105.284C32.4882 100.775 28.9633 97.2471 24.458 96.4107C28.9633 95.5751 32.4882 92.0471 33.3238 87.5371Z" fill="url(#paint19_linear_376_10986)"/>
<path d="M207.274 203.3C207.842 206.367 210.24 208.767 213.305 209.336C210.24 209.905 207.842 212.305 207.274 215.372C206.706 212.305 204.308 209.905 201.243 209.336C204.308 208.767 206.706 206.368 207.274 203.3Z" fill="url(#paint20_linear_376_10986)"/>
<path d="M67.0945 0C67.6626 3.06731 70.0608 5.46763 73.1254 6.03628C70.0608 6.60493 67.6626 9.00524 67.0945 12.0726C66.5263 9.00524 64.1281 6.60493 61.0635 6.03628C64.1281 5.46836 66.5263 3.06805 67.0945 0Z" fill="url(#paint21_linear_376_10986)"/>
<path d="M227.278 126.191C227.846 129.258 230.244 131.659 233.309 132.227C230.244 132.796 227.846 135.196 227.278 138.263C226.71 135.196 224.312 132.796 221.247 132.227C224.312 131.659 226.71 129.258 227.278 126.191Z" fill="url(#paint22_linear_376_10986)"/>
<path d="M92.0844 87.5357L81.5969 75.1652H36.277C30.6923 75.1652 26.1641 70.6337 26.1641 65.0433V44.0505C26.1641 38.4609 30.6915 33.9287 36.277 33.9287H81.9715C87.5569 33.9287 92.0844 38.4602 92.0844 44.0505V87.5357Z" fill="url(#paint23_linear_376_10986)"/>
<path d="M79.8492 43.2873H38.3992C37.7868 43.2873 37.291 42.7911 37.291 42.1781C37.291 41.565 37.7868 41.0688 38.3992 41.0688H79.8492C80.4617 41.0688 80.9574 41.565 80.9574 42.1781C80.9574 42.7911 80.4617 43.2873 79.8492 43.2873Z" fill="#F0EBFF"/>
<path d="M79.8492 51.6583H38.3992C37.7868 51.6583 37.291 51.1622 37.291 50.5491C37.291 49.9361 37.7868 49.4399 38.3992 49.4399H79.8492C80.4617 49.4399 80.9574 49.9361 80.9574 50.5491C80.9574 51.1622 80.4617 51.6583 79.8492 51.6583Z" fill="#F0EBFF"/>
<path d="M79.8492 60.0304H38.3992C37.7868 60.0304 37.291 59.5342 37.291 58.9212C37.291 58.3082 37.7868 57.812 38.3992 57.812H79.8492C80.4617 57.812 80.9574 58.3082 80.9574 58.9212C80.9574 59.5342 80.4617 60.0304 79.8492 60.0304Z" fill="#F0EBFF"/>
<path d="M79.8492 68.4035H38.3992C37.7868 68.4035 37.291 67.9073 37.291 67.2943C37.291 66.6812 37.7868 66.1851 38.3992 66.1851H79.8492C80.4617 66.1851 80.9574 66.6812 80.9574 67.2943C80.9574 67.9065 80.4617 68.4035 79.8492 68.4035Z" fill="#F0EBFF"/>
<path d="M85.2095 216.37C99.7753 216.37 111.583 204.552 111.583 189.973C111.583 175.394 99.7753 163.576 85.2095 163.576C70.6438 163.576 58.8359 175.394 58.8359 189.973C58.8359 204.552 70.6438 216.37 85.2095 216.37Z" fill="url(#paint24_linear_376_10986)"/>
<path d="M85.2099 211.421C97.0447 211.421 106.639 201.819 106.639 189.973C106.639 178.128 97.0447 168.526 85.2099 168.526C73.3752 168.526 63.7812 178.128 63.7812 189.973C63.7812 201.819 73.3752 211.421 85.2099 211.421Z" fill="url(#paint25_linear_376_10986)"/>
<path d="M91.7927 187.469C86.2287 186.464 84.0049 182.448 83.8364 179.772C83.668 177.096 82.6373 175.156 80.7023 176.12C78.7674 177.085 78.31 182.653 79.4508 185.581C74.5007 184.811 69.8816 185.396 69.4287 187.836C74.2658 192.111 72.5835 196.998 70.7822 199.396C73.1331 201.05 83.5387 201.907 86.0809 201.522C88.6232 201.137 90.7377 197.574 93.0495 197.671C95.3612 197.768 97.673 197.866 97.673 197.866L98.0875 187.98C98.0875 187.98 94.5781 187.972 91.7927 187.469Z" fill="url(#paint26_linear_376_10986)"/>
<path d="M86.7856 194.305C84.1849 193.51 82.0579 190.631 81.6064 189.514C81.6293 191.878 84.646 194.355 86.7856 194.305Z" fill="#F9E6E1"/>
<path d="M73.8994 200.441C77.4251 200.897 79.8018 200.367 80.6958 199.105C81.589 197.842 80.8539 196.736 79.8476 196.026L73.8994 200.441Z" fill="#F9E6E1"/>
<path d="M79.3521 196.361C80.5283 196.642 81.4149 198.72 79.0388 199.682C76.6628 200.644 72.7648 200.944 70.5771 199.357C69.6108 198.657 69.3611 196.9 72.1686 196.262C74.9761 195.624 77.6949 195.965 79.3521 196.361Z" fill="url(#paint27_linear_376_10986)"/>
<path d="M71.3809 197.261C73.6675 197.891 78.2556 198.399 80.0701 196.794C81.8846 195.189 79.4 192.989 79.4 192.989L71.3809 197.261Z" fill="#F9E6E1"/>
<path d="M78.7937 193.045C79.9699 193.326 81.367 195.929 78.9917 196.891C76.6156 197.854 70.2433 197.59 69.6006 196.583C68.9578 195.577 68.9386 193.762 71.7461 193.124C74.5529 192.486 77.1358 192.649 78.7937 193.045Z" fill="url(#paint28_linear_376_10986)"/>
<path d="M79.3776 189.493C80.955 191.051 80.7089 192.519 80.2819 193.125C79.8549 193.73 78.5398 194.899 72.5088 194.061C72.9026 194.012 79.3776 189.493 79.3776 189.493Z" fill="#F9E6E1"/>
<path d="M78.5489 189.524C79.8145 189.827 81.4111 192.898 78.7617 193.664C76.348 194.361 69.5191 194.322 68.8276 193.239C68.136 192.157 68.1153 190.204 71.1364 189.517C74.1574 188.83 76.7647 189.098 78.5489 189.524Z" fill="url(#paint29_linear_376_10986)"/>
<path d="M79.8382 186.868C80.7085 188.125 80.7617 189.088 80.2815 189.739C79.8005 190.39 74.3532 190.859 71.6787 190.121L79.8382 186.868Z" fill="#F9E6E1"/>
<path d="M77.5864 185.301C79.8708 185.631 81.6624 189.213 78.9125 189.818C76.4308 190.363 70.1908 190.499 69.4992 189.417C68.8077 188.334 68.4376 186.29 71.4586 185.603C74.4804 184.916 76.0577 185.081 77.5864 185.301Z" fill="url(#paint30_linear_376_10986)"/>
<path d="M94.5025 187.753C94.3252 188.172 93.4896 197.149 94.1213 197.731C94.7523 198.313 98.7094 197.838 98.7094 197.838C98.7094 197.838 99.5494 188.615 99.3078 187.952C99.0662 187.289 95.0182 187.523 94.5025 187.753Z" fill="url(#paint31_linear_376_10986)"/>
<path d="M96.0577 187.173C95.8552 187.651 95.109 198.003 95.8922 198.694C96.6753 199.386 101.464 198.955 101.464 198.955C101.464 198.955 102.208 188.321 101.895 187.547C101.582 186.773 96.6761 186.923 96.0577 187.173Z" fill="url(#paint32_linear_376_10986)"/>
<defs>
<linearGradient id="paint0_linear_376_10986" x1="134.143" y1="24.3063" x2="139.163" y2="222.226" gradientUnits="userSpaceOnUse">
<stop stop-color="#263681"/>
<stop offset="0.9959" stop-color="#1A1248"/>
</linearGradient>
<linearGradient id="paint1_linear_376_10986" x1="87.0938" y1="30.5347" x2="217.186" y2="54.4909" gradientUnits="userSpaceOnUse">
<stop stop-color="#005F8C"/>
<stop offset="1" stop-color="#005076"/>
</linearGradient>
<linearGradient id="paint2_linear_376_10986" x1="178.882" y1="169.695" x2="163.845" y2="163.772" gradientUnits="userSpaceOnUse">
<stop stop-color="#F5F0FF"/>
<stop offset="0.6951" stop-color="#D2C1F7"/>
<stop offset="1" stop-color="#DCCEF9"/>
</linearGradient>
<linearGradient id="paint3_linear_376_10986" x1="151.622" y1="90.9349" x2="128.113" y2="152.068" gradientUnits="userSpaceOnUse">
<stop stop-color="#F59513"/>
<stop offset="0.3699" stop-color="#FAAD1E"/>
<stop offset="0.9959" stop-color="#F2830B"/>
</linearGradient>
<linearGradient id="paint4_linear_376_10986" x1="80.7567" y1="103.479" x2="100.955" y2="108.46" gradientUnits="userSpaceOnUse">
<stop stop-color="#E6971C"/>
<stop offset="0.9959" stop-color="#DE6D0A"/>
</linearGradient>
<radialGradient id="paint5_radial_376_10986" cx="0" cy="0" r="1" gradientUnits="userSpaceOnUse" gradientTransform="translate(89.1597 106.81) rotate(-166.126) scale(17.0502 17.0634)">
<stop stop-color="#FFD042"/>
<stop offset="1" stop-color="#F2830B"/>
</radialGradient>
<linearGradient id="paint6_linear_376_10986" x1="164.873" y1="48.4678" x2="209.411" y2="64.2688" gradientUnits="userSpaceOnUse">
<stop stop-color="#005F8C"/>
<stop offset="1" stop-color="#005076"/>
</linearGradient>
<linearGradient id="paint7_linear_376_10986" x1="177.886" y1="54.7786" x2="188.884" y2="79.1958" gradientUnits="userSpaceOnUse">
<stop stop-color="#F5F0FF"/>
<stop offset="0.9959" stop-color="#D2C1F7"/>
</linearGradient>
<linearGradient id="paint8_linear_376_10986" x1="180.952" y1="61.0822" x2="187.07" y2="74.6646" gradientUnits="userSpaceOnUse">
<stop stop-color="#FAAD1E"/>
<stop offset="0.9959" stop-color="#F2830B"/>
</linearGradient>
<linearGradient id="paint9_linear_376_10986" x1="140.363" y1="51.1936" x2="147.377" y2="66.7673" gradientUnits="userSpaceOnUse">
<stop stop-color="#F5F0FF"/>
<stop offset="0.9959" stop-color="#D2C1F7"/>
</linearGradient>
<linearGradient id="paint10_linear_376_10986" x1="142.543" y1="53.9548" x2="145.189" y2="59.8305" gradientUnits="userSpaceOnUse">
<stop stop-color="#FAAD1E"/>
<stop offset="0.9959" stop-color="#F2830B"/>
</linearGradient>
<linearGradient id="paint11_linear_376_10986" x1="143.379" y1="62.5029" x2="144.35" y2="64.6597" gradientUnits="userSpaceOnUse">
<stop stop-color="#FAAD1E"/>
<stop offset="0.9959" stop-color="#F2830B"/>
</linearGradient>
<linearGradient id="paint12_linear_376_10986" x1="229.531" y1="149.789" x2="221.167" y2="178.429" gradientUnits="userSpaceOnUse">
<stop stop-color="#FFE14D"/>
<stop offset="1" stop-color="#F7A523"/>
</linearGradient>
<linearGradient id="paint13_linear_376_10986" x1="228.535" y1="153.204" x2="221.503" y2="177.286" gradientUnits="userSpaceOnUse">
<stop stop-color="#FAAD1E"/>
<stop offset="0.9959" stop-color="#F2830B"/>
</linearGradient>
<linearGradient id="paint14_linear_376_10986" x1="260.067" y1="55.3552" x2="248.371" y2="95.4066" gradientUnits="userSpaceOnUse">
<stop stop-color="#FFE14D"/>
<stop offset="1" stop-color="#F7A523"/>
</linearGradient>
<linearGradient id="paint15_linear_376_10986" x1="258.674" y1="60.1322" x2="248.84" y2="93.8087" gradientUnits="userSpaceOnUse">
<stop stop-color="#FAAD1E"/>
<stop offset="0.9959" stop-color="#F2830B"/>
</linearGradient>
<linearGradient id="paint16_linear_376_10986" x1="47.1493" y1="109.63" x2="35.4538" y2="149.681" gradientUnits="userSpaceOnUse">
<stop stop-color="#FFE14D"/>
<stop offset="1" stop-color="#F7A523"/>
</linearGradient>
<linearGradient id="paint17_linear_376_10986" x1="45.7567" y1="114.407" x2="35.9227" y2="148.083" gradientUnits="userSpaceOnUse">
<stop stop-color="#FAAD1E"/>
<stop offset="0.9959" stop-color="#F2830B"/>
</linearGradient>
<linearGradient id="paint18_linear_376_10986" x1="212.382" y1="37.4614" x2="233.724" y2="45.0329" gradientUnits="userSpaceOnUse">
<stop stop-color="#005F8C"/>
<stop offset="1" stop-color="#005076"/>
</linearGradient>
<linearGradient id="paint19_linear_376_10986" x1="24.458" y1="87.5371" x2="45.7997" y2="95.1086" gradientUnits="userSpaceOnUse">
<stop stop-color="#005F8C"/>
<stop offset="1" stop-color="#005076"/>
</linearGradient>
<linearGradient id="paint20_linear_376_10986" x1="205.266" y1="204.871" x2="209.289" y2="213.802" gradientUnits="userSpaceOnUse">
<stop stop-color="#263681"/>
<stop offset="0.9959" stop-color="#1A1248"/>
</linearGradient>
<linearGradient id="paint21_linear_376_10986" x1="65.0869" y1="1.57144" x2="69.1092" y2="10.5022" gradientUnits="userSpaceOnUse">
<stop stop-color="#263681"/>
<stop offset="0.9959" stop-color="#1A1248"/>
</linearGradient>
<linearGradient id="paint22_linear_376_10986" x1="225.27" y1="127.762" x2="229.293" y2="136.693" gradientUnits="userSpaceOnUse">
<stop stop-color="#263681"/>
<stop offset="0.9959" stop-color="#1A1248"/>
</linearGradient>
<linearGradient id="paint23_linear_376_10986" x1="48.8482" y1="31.6901" x2="75.4098" y2="90.6642" gradientUnits="userSpaceOnUse">
<stop offset="0.0041" stop-color="white"/>
<stop offset="1" stop-color="#F5F0FF"/>
</linearGradient>
<linearGradient id="paint24_linear_376_10986" x1="58.8359" y1="163.576" x2="122.322" y2="186.099" gradientUnits="userSpaceOnUse">
<stop stop-color="#005F8C"/>
<stop offset="1" stop-color="#005076"/>
</linearGradient>
<linearGradient id="paint25_linear_376_10986" x1="77.3858" y1="172.572" x2="93.0615" y2="207.376" gradientUnits="userSpaceOnUse">
<stop stop-color="#F5F0FF"/>
<stop offset="0.9959" stop-color="#D2C1F7"/>
</linearGradient>
<linearGradient id="paint26_linear_376_10986" x1="86.0548" y1="177.674" x2="82.1676" y2="201.192" gradientUnits="userSpaceOnUse">
<stop stop-color="#FFC085"/>
<stop offset="1" stop-color="#FA976E"/>
</linearGradient>
<linearGradient id="paint27_linear_376_10986" x1="73.4483" y1="201.007" x2="76.4194" y2="196.072" gradientUnits="userSpaceOnUse">
<stop stop-color="#FFC085"/>
<stop offset="1" stop-color="#FA976E"/>
</linearGradient>
<linearGradient id="paint28_linear_376_10986" x1="72.836" y1="198.495" x2="76.1049" y2="193.065" gradientUnits="userSpaceOnUse">
<stop stop-color="#FFC085"/>
<stop offset="1" stop-color="#FA976E"/>
</linearGradient>
<linearGradient id="paint29_linear_376_10986" x1="72.3057" y1="195.293" x2="75.7508" y2="189.57" gradientUnits="userSpaceOnUse">
<stop stop-color="#FFC085"/>
<stop offset="1" stop-color="#FA976E"/>
</linearGradient>
<linearGradient id="paint30_linear_376_10986" x1="69.7432" y1="185.769" x2="79.7238" y2="189.996" gradientUnits="userSpaceOnUse">
<stop stop-color="#FFC085"/>
<stop offset="1" stop-color="#FA976E"/>
</linearGradient>
<linearGradient id="paint31_linear_376_10986" x1="96.913" y1="188.154" x2="96.0764" y2="199.126" gradientUnits="userSpaceOnUse">
<stop stop-color="#F5F0FF"/>
<stop offset="0.9959" stop-color="#D2C1F7"/>
</linearGradient>
<linearGradient id="paint32_linear_376_10986" x1="98.9886" y1="187.291" x2="98.4144" y2="199.049" gradientUnits="userSpaceOnUse">
<stop stop-color="#263681"/>
<stop offset="0.9959" stop-color="#1A1248"/>
</linearGradient>
</defs>
</svg>
