<svg width="28" height="28" viewBox="0 0 28 28" fill="none" xmlns="http://www.w3.org/2000/svg">
<rect width="28" height="28" rx="9" fill="#E6F4FA"/>
<path d="M13.375 19.2081H11.5C10.5833 19.2081 9.83333 19.9581 9.83333 20.8748V21.0831H9C8.65833 21.0831 8.375 21.3665 8.375 21.7081C8.375 22.0498 8.65833 22.3331 9 22.3331H19C19.3417 22.3331 19.625 22.0498 19.625 21.7081C19.625 21.3665 19.3417 21.0831 19 21.0831H18.1667V20.8748C18.1667 19.9581 17.4167 19.2081 16.5 19.2081H14.625V17.2998C14.4167 17.3248 14.2083 17.3331 14 17.3331C13.7917 17.3331 13.5833 17.3248 13.375 17.2998V19.2081Z" fill="#005F8C"/>
<path d="M19.4004 13.6998C19.9504 13.4915 20.4337 13.1498 20.8171 12.7665C21.5921 11.9082 22.1004 10.8832 22.1004 9.68317C22.1004 8.48317 21.1587 7.5415 19.9587 7.5415H19.4921C18.9504 6.43317 17.8171 5.6665 16.5004 5.6665H11.5004C10.1837 5.6665 9.05039 6.43317 8.50872 7.5415H8.04206C6.84206 7.5415 5.90039 8.48317 5.90039 9.68317C5.90039 10.8832 6.40872 11.9082 7.18372 12.7665C7.56706 13.1498 8.05039 13.4915 8.60039 13.6998C9.46706 15.8332 11.5504 17.3332 14.0004 17.3332C16.4504 17.3332 18.5337 15.8332 19.4004 13.6998ZM16.3671 11.0415L15.8504 11.6748C15.7671 11.7665 15.7087 11.9498 15.7171 12.0748L15.7671 12.8915C15.8004 13.3915 15.4421 13.6498 14.9754 13.4665L14.2171 13.1665C14.1004 13.1248 13.9004 13.1248 13.7837 13.1665L13.0254 13.4665C12.5587 13.6498 12.2004 13.3915 12.2337 12.8915L12.2837 12.0748C12.2921 11.9498 12.2337 11.7665 12.1504 11.6748L11.6337 11.0415C11.3087 10.6582 11.4504 10.2332 11.9337 10.1082L12.7254 9.90817C12.8504 9.87484 13.0004 9.75817 13.0671 9.64984L13.5087 8.9665C13.7837 8.5415 14.2171 8.5415 14.4921 8.9665L14.9337 9.64984C15.0004 9.75817 15.1504 9.87484 15.2754 9.90817L16.0671 10.1082C16.5504 10.2332 16.6921 10.6582 16.3671 11.0415Z" fill="#005F8C"/>
</svg>
