<svg width="64" height="64" viewBox="0 0 64 64" fill="none" xmlns="http://www.w3.org/2000/svg">
<rect width="64" height="64" rx="17" fill="#005F8C"/>
<path d="M38.9123 26.7125C38.8248 26.7 38.7373 26.7 38.6498 26.7125C36.7123 26.65 35.1748 25.0625 35.1748 23.1125C35.1748 21.125 36.7873 19.5 38.7873 19.5C40.7748 19.5 42.3998 21.1125 42.3998 23.1125C42.3873 25.0625 40.8498 26.65 38.9123 26.7125Z" fill="white"/>
<path d="M42.9875 35.375C41.5875 36.3125 39.625 36.6625 37.8125 36.425C38.2875 35.4 38.5375 34.2625 38.55 33.0625C38.55 31.8125 38.275 30.625 37.75 29.5875C39.6 29.3375 41.5625 29.6875 42.975 30.625C44.95 31.925 44.95 34.0625 42.9875 35.375Z" fill="white"/>
<path d="M25.0502 26.7125C25.1377 26.7 25.2252 26.7 25.3127 26.7125C27.2502 26.65 28.7877 25.0625 28.7877 23.1125C28.7877 21.1125 27.1752 19.5 25.1752 19.5C23.1877 19.5 21.5752 21.1125 21.5752 23.1125C21.5752 25.0625 23.1127 26.65 25.0502 26.7125Z" fill="white"/>
<path d="M25.1879 33.0623C25.1879 34.2748 25.4504 35.4248 25.9254 36.4623C24.1629 36.6498 22.3254 36.2748 20.9754 35.3873C19.0004 34.0748 19.0004 31.9373 20.9754 30.6248C22.3129 29.7248 24.2004 29.3623 25.9754 29.5623C25.4629 30.6123 25.1879 31.7998 25.1879 33.0623Z" fill="white"/>
<path d="M32.15 36.8375C32.05 36.825 31.9375 36.825 31.825 36.8375C29.525 36.7625 27.6875 34.875 27.6875 32.55C27.7 30.175 29.6125 28.25 32 28.25C34.375 28.25 36.3 30.175 36.3 32.55C36.2875 34.875 34.4625 36.7625 32.15 36.8375Z" fill="white"/>
<path d="M28.0875 39.4248C26.2 40.6873 26.2 42.7623 28.0875 44.0123C30.2375 45.4498 33.7625 45.4498 35.9125 44.0123C37.8 42.7498 37.8 40.6748 35.9125 39.4248C33.775 37.9873 30.25 37.9873 28.0875 39.4248Z" fill="white"/>
</svg>
