<svg width="28" height="28" viewBox="0 0 28 28" fill="none" xmlns="http://www.w3.org/2000/svg">
<rect width="28" height="28" rx="9" fill="#E6F4FA"/>
<path d="M20.7503 11.6834C19.242 11.6834 18.6253 10.6167 19.3753 9.30836C19.8087 8.55003 19.5503 7.58336 18.792 7.15003L17.3503 6.32503C16.692 5.93336 15.842 6.1667 15.4503 6.82503L15.3587 6.98336C14.6087 8.2917 13.3753 8.2917 12.617 6.98336L12.5253 6.82503C12.1503 6.1667 11.3003 5.93336 10.642 6.32503L9.20033 7.15003C8.44199 7.58336 8.18366 8.55836 8.61699 9.3167C9.37533 10.6167 8.75866 11.6834 7.25033 11.6834C6.38366 11.6834 5.66699 12.3917 5.66699 13.2667V14.7334C5.66699 15.6 6.37533 16.3167 7.25033 16.3167C8.75866 16.3167 9.37533 17.3834 8.61699 18.6917C8.18366 19.45 8.44199 20.4167 9.20033 20.85L10.642 21.675C11.3003 22.0667 12.1503 21.8334 12.542 21.175L12.6337 21.0167C13.3837 19.7084 14.617 19.7084 15.3753 21.0167L15.467 21.175C15.8587 21.8334 16.7087 22.0667 17.367 21.675L18.8087 20.85C19.567 20.4167 19.8253 19.4417 19.392 18.6917C18.6337 17.3834 19.2503 16.3167 20.7587 16.3167C21.6253 16.3167 22.342 15.6084 22.342 14.7334V13.2667C22.3337 12.4 21.6253 11.6834 20.7503 11.6834ZM14.0003 16.7084C12.5087 16.7084 11.292 15.4917 11.292 14C11.292 12.5084 12.5087 11.2917 14.0003 11.2917C15.492 11.2917 16.7087 12.5084 16.7087 14C16.7087 15.4917 15.492 16.7084 14.0003 16.7084Z" fill="#005F8C"/>
</svg>
