<svg width="340" height="670" viewBox="0 0 340 670" fill="none" xmlns="http://www.w3.org/2000/svg">
<g clip-path="url(#clip0_198_596)">
<path d="M62.4538 501.366C98.0979 479.878 148.998 485.512 176.153 453.969C193.139 434.237 194.966 405.628 191.824 379.783C188.681 353.939 181.415 328.278 183.364 302.316C185.487 274.001 198.381 247.737 205.248 220.186C221.721 154.126 200.636 80.0106 151.859 32.5141C142.6 23.4946 130.87 14.9032 118.032 16.4066C102.333 18.25 92.2672 34.458 88.8875 49.9022C83.5741 74.1812 88.8368 99.4022 94.5759 123.579C100.315 147.757 106.592 172.544 103.252 197.171C99.9128 221.797 84.4058 246.588 60.3411 252.779C47.5172 256.077 33.5033 253.9 21.2112 258.833C0.72517 267.051 -7.71215 292.091 -7.06911 314.152C-6.42607 336.212 0.700493 357.786 0.481943 379.854C0.263364 401.922 -10.4307 426.597 -31.7366 432.369C-52.8659 438.091 -73.8185 423.039 -88.7308 407.01C-103.643 390.981 -117.925 372.017 -139.076 366.382C-180.37 355.377 -220.489 401.222 -262.167 391.783C-282.976 387.069 -298.665 368.939 -306.265 349.001C-313.865 329.063 -314.724 307.287 -315.494 285.968L-322.033 290.766C-331.974 324.924 -342.018 360.065 -338.791 395.492C-335.565 430.92 -315.972 467.199 -282.65 479.656C-263.445 486.834 -242.108 485.458 -222.241 490.524C-186.542 499.625 -159.706 528.005 -131.234 551.38C-102.761 574.755 -65.3397 594.828 -30.3901 583.186C9.15423 570.008 26.7602 522.894 62.458 501.377L62.4538 501.366Z" fill="#FFAF17"/>
</g>
<defs>
<clipPath id="clip0_198_596">
<rect width="340" height="670" fill="white"/>
</clipPath>
</defs>
</svg>
