<svg width="540" height="610" viewBox="0 0 540 610" fill="none" xmlns="http://www.w3.org/2000/svg">
<g clip-path="url(#clip0_187_1890)">
<path d="M472.454 501.366C508.098 479.878 558.999 485.512 586.153 453.969C603.139 434.237 604.967 405.628 601.824 379.783C598.682 353.939 591.415 328.278 593.364 302.316C595.487 274.001 608.381 247.737 615.249 220.186C631.722 154.126 610.636 80.0106 561.859 32.5141C552.6 23.4946 540.871 14.9032 528.033 16.4066C512.334 18.25 502.268 34.458 498.888 49.9022C493.575 74.1812 498.837 99.4022 504.576 123.579C510.315 147.757 516.593 172.544 513.253 197.171C509.913 221.797 494.406 246.588 470.342 252.779C457.518 256.077 443.504 253.9 431.212 258.833C410.726 267.051 402.288 292.091 402.931 314.152C403.574 336.212 410.701 357.786 410.482 379.854C410.264 401.922 399.57 426.597 378.264 432.369C357.135 438.091 336.182 423.039 321.27 407.01C306.357 390.981 292.075 372.017 270.925 366.382C229.631 355.377 189.511 401.222 147.834 391.783C127.024 387.069 111.335 368.939 103.736 349.001C96.1358 329.063 95.2764 307.287 94.5069 285.968L87.967 290.766C78.0269 324.924 67.9825 360.065 71.2092 395.492C74.436 430.92 94.0281 467.199 127.35 479.656C146.555 486.834 167.893 485.458 187.76 490.524C223.459 499.625 250.294 528.005 278.767 551.38C307.239 574.755 344.661 594.828 379.61 583.186C419.155 570.008 436.761 522.894 472.458 501.377L472.454 501.366Z" fill="#FFAF17"/>
</g>
<defs>
<clipPath id="clip0_187_1890">
<rect width="540" height="610" fill="white"/>
</clipPath>
</defs>
</svg>
