<svg width="258" height="571" viewBox="0 0 258 571" fill="none" xmlns="http://www.w3.org/2000/svg">
<path d="M402.454 485.366C438.098 463.878 488.999 469.512 516.153 437.969C533.139 418.237 534.967 389.628 531.824 363.783C528.682 337.939 521.415 312.278 523.364 286.316C525.487 258.001 538.381 231.737 545.249 204.186C561.722 138.126 540.636 64.0106 491.859 16.5141C482.6 7.49457 470.871 -1.09685 458.033 0.406615C442.334 2.24999 432.268 18.458 428.888 33.9022C423.575 58.1812 428.837 83.4022 434.576 107.579C440.315 131.757 446.593 156.544 443.253 181.171C439.913 205.797 424.406 230.588 400.342 236.779C387.518 240.077 373.504 237.9 361.212 242.833C340.726 251.051 332.288 276.091 332.931 298.152C333.574 320.212 340.701 341.786 340.482 363.854C340.264 385.922 329.57 410.597 308.264 416.369C287.135 422.091 266.182 407.039 251.27 391.01C236.357 374.981 222.075 356.017 200.925 350.382C159.631 339.377 119.511 385.222 77.8335 375.783C57.0243 371.069 41.3353 352.939 33.7356 333.001C26.1358 313.063 25.2764 291.287 24.5069 269.968L17.967 274.766C8.02685 308.924 -2.01752 344.065 1.2092 379.492C4.43596 414.92 24.0281 451.199 57.3501 463.656C76.5551 470.834 97.893 469.458 117.76 474.524C153.459 483.625 180.294 512.005 208.767 535.38C237.239 558.755 274.661 578.828 309.61 567.186C349.155 554.008 366.761 506.894 402.458 485.377L402.454 485.366Z" fill="#FFAF17"/>
</svg>
