<svg width="483" height="229" viewBox="0 0 483 229" fill="none" xmlns="http://www.w3.org/2000/svg">
<g clip-path="url(#clip0_187_1797)">
<path d="M146.188 163.537C105.436 155.078 59.2802 177.264 23.2064 156.505C0.640025 143.518 -10.5666 117.131 -16.1679 91.706C-21.7691 66.2809 -23.4183 39.6621 -33.862 15.8141C-45.2501 -10.1972 -66.1203 -30.7026 -81.7317 -54.4206C-119.169 -111.286 -123.841 -188.201 -93.5631 -249.18C-87.8171 -260.758 -79.5983 -272.752 -66.9877 -275.588C-51.5649 -279.052 -36.6959 -267.097 -28.3883 -253.646C-15.3281 -232.5 -11.9338 -206.961 -9.33503 -182.248C-6.73625 -157.535 -4.4429 -132.068 6.87048 -109.941C18.1839 -87.8129 41.0309 -69.5637 65.7874 -71.6988C78.9796 -72.8375 91.4799 -79.5359 104.712 -78.956C126.764 -77.9927 143.024 -57.1648 149.729 -36.1382C156.434 -15.1115 156.861 7.60537 164.382 28.3533C171.902 49.1013 190.17 68.8371 212.185 67.2209C234.016 65.6157 248.796 44.4702 257.552 24.4044C266.309 4.33867 273.498 -18.2867 291.586 -30.6134C326.897 -54.6832 379.945 -24.727 416.138 -47.4461C434.208 -58.7908 443.001 -81.0965 443.563 -102.426C444.125 -123.756 437.718 -144.586 431.378 -164.955L439.139 -162.596C459.838 -133.663 480.962 -103.838 489.66 -69.3439C498.358 -34.8497 491.898 5.87315 464.589 28.6701C448.848 41.8078 428.261 47.5818 411.196 58.9464C380.532 79.3657 364.619 115.035 345.504 146.526C326.389 178.018 297.735 209.359 260.902 209.959C219.226 210.633 186.999 172.017 146.188 163.549L146.188 163.537Z" fill="#FFAF17"/>
</g>
<defs>
<clipPath id="clip0_187_1797">
<rect width="483" height="229" fill="white" transform="matrix(-1 0 0 1 483 0)"/>
</clipPath>
</defs>
</svg>
