<svg width="390" height="152" viewBox="0 0 390 152" fill="none" xmlns="http://www.w3.org/2000/svg">
<g clip-path="url(#clip0_376_10542)">
<path d="M330.585 102.706C368.65 119.537 418.436 107.542 449.345 135.416C468.679 152.854 474.093 181.006 474.228 207.04C474.363 233.075 470.384 259.446 475.585 284.956C481.255 312.779 497.352 337.211 507.632 363.679C532.288 427.14 520.698 503.32 478.287 556.578C470.237 566.691 459.682 576.69 446.757 576.815C430.95 576.962 418.925 562.149 413.628 547.253C405.301 523.836 407.348 498.153 409.998 473.446C412.649 448.739 415.757 423.359 409.344 399.348C402.931 375.337 384.428 352.696 359.775 349.583C346.638 347.925 333.01 351.848 320.194 348.501C298.837 342.927 287.315 319.148 285.177 297.182C283.038 275.216 287.393 252.916 284.399 231.051C281.404 209.187 267.69 186.054 245.827 183.009C224.146 179.992 205.254 197.562 192.478 215.34C179.701 233.119 167.92 253.729 147.646 261.981C108.066 278.096 62.4952 237.664 22.3369 252.273C2.28649 259.569 -10.9959 279.53 -16.0259 300.266C-21.056 321.001 -19.1678 342.712 -17.2481 363.959L-24.3399 360.022C-38.5 327.387 -52.8872 293.79 -54.1449 258.238C-55.4026 222.686 -40.5322 184.229 -9.04301 167.678C9.1059 158.14 30.4473 156.819 49.5184 149.293C83.788 135.771 106.838 104.24 132.142 77.4671C157.447 50.6942 192.044 26.0712 228.181 33.2225C269.07 41.318 292.465 85.8419 330.587 102.695L330.585 102.706Z" fill="#FFAF17"/>
</g>
<defs>
<clipPath id="clip0_376_10542">
<rect width="390" height="152" fill="white" transform="matrix(1 0 0 -1 0 152)"/>
</clipPath>
</defs>
</svg>
