<svg width="375" height="66" viewBox="0 0 375 66" fill="none" xmlns="http://www.w3.org/2000/svg">
<path d="M330.813 19.5373C371.564 11.0778 417.72 33.2637 453.794 12.5047C476.36 -0.482394 487.567 -26.8689 493.168 -52.294C498.77 -77.7191 500.419 -104.338 510.863 -128.186C522.251 -154.197 543.121 -174.703 558.732 -198.421C596.169 -255.286 600.841 -332.201 570.564 -393.18C564.818 -404.758 556.599 -416.752 543.988 -419.588C528.565 -423.052 513.696 -411.097 505.389 -397.646C492.329 -376.5 488.934 -350.961 486.336 -326.248C483.737 -301.535 481.443 -276.068 470.13 -253.941C458.817 -231.813 435.97 -213.564 411.213 -215.699C398.021 -216.838 385.521 -223.536 372.288 -222.956C350.236 -221.993 333.977 -201.165 327.271 -180.138C320.566 -159.111 320.139 -136.395 312.619 -115.647C305.098 -94.8987 286.83 -75.1629 264.815 -76.7791C242.984 -78.3843 228.205 -99.5298 219.448 -119.596C210.692 -139.661 203.502 -162.287 185.415 -174.613C150.103 -198.683 97.0558 -168.727 60.8625 -191.446C42.792 -202.791 33.9991 -225.096 33.4373 -246.426C32.8755 -267.756 39.2823 -288.586 45.6225 -308.955L37.8618 -306.596C17.1622 -277.663 -3.96179 -247.838 -12.6598 -213.344C-21.3577 -178.85 -14.8978 -138.127 12.4118 -115.33C28.1522 -102.192 48.74 -96.4182 65.8045 -85.0536C96.4689 -64.6343 112.381 -28.9647 131.497 2.52642C150.612 34.0176 179.265 65.359 216.098 65.9586C257.775 66.6331 290.001 28.0174 330.813 19.549L330.813 19.5373Z" fill="#FFAF17"/>
</svg>
