<svg width="375" height="175" viewBox="0 0 375 175" fill="none" xmlns="http://www.w3.org/2000/svg">
<g clip-path="url(#clip0_365_4244)">
<path d="M303.57 309.442C339.001 295.03 384.406 307.422 413.567 282.669C431.809 267.184 437.559 241.472 438.401 217.56C439.243 193.648 436.315 169.313 441.796 146.023C447.772 120.62 463.233 98.6205 473.407 74.5898C497.807 16.9731 489.261 -53.3267 451.77 -103.42C444.654 -112.932 435.234 -122.409 423.364 -122.879C408.848 -123.451 397.392 -110.175 392.116 -96.6376C383.821 -75.3558 384.993 -51.7066 386.746 -28.9369C388.499 -6.16722 390.654 17.2333 384.101 39.113C377.548 60.9928 359.926 81.2814 337.194 83.4612C325.08 84.6219 312.669 80.6424 300.804 83.3632C281.031 87.8948 269.791 109.421 267.221 129.54C264.651 149.66 268.036 170.265 264.682 190.267C261.329 210.27 248.092 231.143 227.925 233.336C207.924 235.509 191.055 218.849 179.808 202.165C168.562 185.481 158.308 166.223 139.912 158.083C103.997 142.188 61.0198 178.073 24.5325 163.545C6.31502 156.29 -5.33593 137.587 -9.38473 118.4C-13.4335 99.2133 -11.1002 79.3212 -8.75076 59.8565L-15.3739 63.2778C-29.2818 92.8663 -43.4248 123.333 -45.5606 155.956C-47.6965 188.58 -35.097 224.318 -6.62685 240.391C9.78205 249.653 29.3503 251.455 46.6618 258.894C77.7696 272.261 98.0744 301.862 120.581 327.154C143.087 352.446 174.191 376.019 207.584 370.447C245.368 364.138 268.088 323.882 303.572 309.453L303.57 309.442Z" fill="#FFAF17"/>
</g>
<defs>
<clipPath id="clip0_365_4244">
<rect width="375" height="175" fill="white"/>
</clipPath>
</defs>
</svg>
