<svg width="45" height="45" viewBox="0 0 45 45" fill="none" xmlns="http://www.w3.org/2000/svg">
<path d="M8.43239 35.5974C9.95254 36.2598 11.6964 36.2598 13.2167 35.5974C15.4064 34.6434 17.9179 34.6434 20.1076 35.5974C21.6278 36.2598 23.3716 36.2598 24.892 35.5974C27.0817 34.6434 29.5932 34.6434 31.7829 35.5974C33.3031 36.2598 35.0469 36.2598 36.5672 35.5974C38.757 34.6432 41.2687 34.6432 43.4582 35.5974L44.9977 36.2683V30.9741L41.5586 29.4755C40.5577 29.0379 39.4769 28.8126 38.3845 28.8139C37.2921 28.8126 36.2113 29.0378 35.2104 29.4755C34.5417 29.7679 33.8195 29.9184 33.0897 29.9175C32.3598 29.9184 31.6376 29.7679 30.9689 29.4755C29.968 29.0379 28.8872 28.8126 27.7948 28.8139C26.7024 28.8126 25.6216 29.0378 24.6207 29.4755C23.952 29.7679 23.2298 29.9184 22.4999 29.9175C21.77 29.9184 21.0479 29.7679 20.3791 29.4755C19.3782 29.0379 18.2975 28.8126 17.2051 28.8139C16.1127 28.8126 15.0319 29.0378 14.031 29.4755C13.3622 29.7679 12.6401 29.9184 11.9102 29.9175C11.1803 29.9184 10.4582 29.7679 9.78942 29.4755C8.78852 29.0379 7.70773 28.8126 6.61535 28.8139C5.52296 28.8126 4.44216 29.0378 3.44128 29.4755L0.00212891 30.9741V36.2682L1.54162 35.5973C3.73123 34.6434 6.24278 34.6434 8.43239 35.5974ZM37.6205 38.0146C35.4308 38.9688 32.9192 38.9686 30.7296 38.0146C29.2093 37.3522 27.4654 37.3522 25.9452 38.0146C23.7554 38.9688 21.2438 38.9686 19.0544 38.0146C17.5341 37.3522 15.7902 37.3522 14.27 38.0146C12.0802 38.9688 9.56855 38.9686 7.37911 38.0146C5.85879 37.3521 4.11487 37.3521 2.59472 38.0146L0.00195312 39.1444V45H44.9976V39.1445L42.4048 38.0147C40.8847 37.3522 39.1408 37.3522 37.6205 38.0146ZM33.0563 9.16678L32.8963 8.03247H30.6268L30.3946 9.06026C30.1362 10.2041 29.4882 11.2433 28.57 11.9863C27.6259 12.7502 26.4834 13.1541 25.2658 13.1541C22.3662 13.1541 20.0071 10.795 20.0071 7.89536C20.0071 6.67782 20.411 5.53533 21.1749 4.59121C21.9179 3.67311 22.957 3.0251 24.1009 2.76661L25.1287 2.5344V0.264989L23.9944 0.105029C23.4989 0.0352339 22.9992 0.000138847 22.4988 0C16.6195 0 11.8364 4.78317 11.8364 10.6624C11.8364 16.5417 16.6195 21.3248 22.4988 21.3248C28.378 21.3248 33.1612 16.5417 33.1612 10.6624C33.1611 10.162 33.126 9.66227 33.0563 9.16678ZM9.12338 20.314L7.57625 21.7245V14.1537H4.93954V21.7245L3.39258 20.3141L1.61606 22.2624L6.2579 26.4947L10.8999 22.2625L9.12338 20.314ZM43.3835 18.3835L38.7417 14.1512L34.0998 18.3835L35.8763 20.3318L37.4234 18.9214V26.4922H40.0601V18.9214L41.607 20.3318L43.3835 18.3835Z" fill="white"/>
</svg>
