<svg width="174" height="174" viewBox="0 0 174 174" fill="none" xmlns="http://www.w3.org/2000/svg">
<path d="M156.311 77.865L146.451 66.41C144.566 64.235 143.043 60.175 143.043 57.275V44.95C143.043 37.265 136.736 30.9575 129.051 30.9575H116.726C113.898 30.9575 109.766 29.435 107.591 27.55L96.1359 17.69C91.1334 13.4125 82.9409 13.4125 77.8659 17.69L66.4834 27.6225C64.3084 29.435 60.1759 30.9575 57.3484 30.9575H44.8059C37.1209 30.9575 30.8134 37.265 30.8134 44.95V57.3475C30.8134 60.175 29.2909 64.235 27.4784 66.41L17.6909 77.9375C13.4859 82.94 13.4859 91.06 17.6909 96.0625L27.4784 107.59C29.2909 109.765 30.8134 113.825 30.8134 116.652V129.05C30.8134 136.735 37.1209 143.042 44.8059 143.042H57.3484C60.1759 143.042 64.3084 144.565 66.4834 146.45L77.9384 156.31C82.9409 160.587 91.1334 160.587 96.2084 156.31L107.663 146.45C109.838 144.565 113.898 143.042 116.798 143.042H129.123C136.808 143.042 143.116 136.735 143.116 129.05V116.725C143.116 113.897 144.638 109.765 146.523 107.59L156.383 96.135C160.588 91.1325 160.588 82.8675 156.311 77.865ZM117.161 73.2975L82.1434 108.315C81.1284 109.33 79.7509 109.91 78.3009 109.91C76.8509 109.91 75.4734 109.33 74.4584 108.315L56.9134 90.77C54.8109 88.6675 54.8109 85.1875 56.9134 83.085C59.0159 80.9825 62.4959 80.9825 64.5984 83.085L78.3009 96.7875L109.476 65.6125C111.578 63.51 115.058 63.51 117.161 65.6125C119.263 67.715 119.263 71.195 117.161 73.2975Z" fill="white"/>
</svg>
