<svg width="45" height="45" viewBox="0 0 45 45" fill="none" xmlns="http://www.w3.org/2000/svg">
<g clip-path="url(#clip0_399_5944)">
<path d="M37.4975 24.8267C36.2178 24.7978 34.9512 25.0885 33.8121 25.6723C32.8759 26.1653 31.8284 26.4085 30.7708 26.3784C29.7166 26.4078 28.6724 26.1674 27.7371 25.6801C25.1868 24.5591 23.7117 21.8606 24.1449 19.1086C24.2453 18.4013 24.5439 17.7369 25.0062 17.1922C23.4331 16.7084 21.7503 16.7138 20.1804 17.2077C19.6291 17.429 19.1311 17.7647 18.7192 18.1927C18.3073 18.6207 17.9908 19.1311 17.7908 19.6904C17.4396 20.4496 17.2727 21.281 17.3037 22.1169C17.3347 22.9529 17.5627 23.7696 17.9692 24.5007C19.1485 26.5955 21.8253 28.217 24.9519 28.7136C25.1448 28.7446 25.319 28.8472 25.4397 29.0009C25.5603 29.1546 25.6187 29.3481 25.603 29.5429C25.5873 29.7377 25.4989 29.9194 25.3552 30.0519C25.2115 30.1843 25.0232 30.2578 24.8278 30.2576C24.7863 30.2586 24.7447 30.256 24.7037 30.2498C21.1192 29.6757 18.0236 27.7593 16.6193 25.2611C16.0985 24.326 15.8028 23.2824 15.7557 22.213C15.7085 21.1437 15.9113 20.0781 16.3478 19.1008C16.6305 18.3495 17.0662 17.6651 17.6271 17.0909C18.188 16.5166 18.8619 16.065 19.6063 15.7646C22.8649 14.469 26.6434 15.9276 27.4269 16.3698C27.9505 16.6698 28.4242 17.0493 28.8312 17.4948C28.9005 17.5989 28.9937 17.6849 29.1031 17.7457C29.2124 17.8064 29.3347 17.8401 29.4597 17.8439C29.5835 17.8443 29.7058 17.8166 29.8173 17.7628C29.9289 17.7091 30.0268 17.6307 30.1036 17.5336C30.576 16.9418 30.8651 16.2247 30.9354 15.4708C31.0057 14.7168 30.8541 13.9587 30.4993 13.2897C29.3045 10.9079 26.0924 9.30957 22.5002 9.30957C19.6916 9.30957 14.4779 9.95352 11.0331 14.2595C9.38519 16.2277 8.53037 18.7395 8.63565 21.3043C8.66355 21.9677 8.55849 22.63 8.32665 23.2523C8.09481 23.8745 7.74087 24.4441 7.28566 24.9275C6.86006 25.3806 6.34709 25.7427 5.7777 25.9921C5.20831 26.2414 4.59431 26.3728 3.97274 26.3784H3.87964C2.91743 26.4069 1.96237 26.2047 1.09431 25.7887C0.704386 25.6135 0.246172 25.7871 0.0702038 26.1766C0.00818494 26.3069 -0.0134389 26.4528 0.00811122 26.5956C0.00165925 26.6314 -0.00093952 26.6678 0.000359339 26.7042C-0.000308938 27.8311 0.248381 28.9441 0.728596 29.9636C1.20881 30.983 1.90865 31.8836 2.77794 32.6006C3.69136 33.3459 4.75872 33.8793 5.90311 34.1624C7.0475 34.4454 8.24043 34.4712 9.39595 34.2377C9.49681 34.2144 9.59766 34.1989 9.70626 34.1834C8.87199 33.5318 8.19433 32.7015 7.72307 31.7536C7.25181 30.8057 6.99894 29.7643 6.98302 28.7058C6.98302 28.2773 7.33039 27.9299 7.75891 27.9299C8.18744 27.9299 8.5348 28.2773 8.5348 28.7058C8.5348 32.2903 11.9641 34.0049 13.6166 34.8273C13.6244 34.8351 13.6321 34.8428 13.6399 34.8428C14.7789 35.4267 16.0456 35.7174 17.3252 35.6885C18.6046 35.7152 19.8708 35.4247 21.0105 34.8428C21.9439 34.3497 22.989 34.1065 24.0442 34.1368C25.1018 34.1067 26.1493 34.3499 27.0855 34.8428C28.2249 35.4257 29.4913 35.7163 30.7708 35.6885C32.0504 35.7163 33.3168 35.4257 34.4562 34.8428C35.4027 34.3783 36.4431 34.1368 37.4975 34.1368C38.5519 34.1368 39.5923 34.3783 40.5388 34.8428C41.6782 35.4257 42.9446 35.7163 44.2242 35.6885C44.3268 35.6881 44.4284 35.6673 44.5229 35.6273C44.6175 35.5874 44.7032 35.529 44.775 35.4557C44.8479 35.3839 44.9054 35.298 44.944 35.2033C44.9827 35.1086 45.0017 35.0071 45 34.9048C44.9767 31.4214 43.3863 24.8267 37.4975 24.8267ZM17.8451 11.6372C18.2736 11.6372 18.621 11.9845 18.621 12.413C18.621 12.8416 18.2736 13.1889 17.8451 13.1889C17.4166 13.1889 17.0692 12.8416 17.0692 12.413C17.0705 11.9851 17.4171 11.6384 17.8451 11.6372ZM15.1995 14.5311C14.5464 15.0045 13.9593 15.5628 13.4538 16.1914C12.6451 17.1558 12.0927 18.3085 11.8478 19.5431C11.8143 19.7201 11.7199 19.8798 11.5811 19.9945C11.4422 20.1093 11.2676 20.1719 11.0875 20.1715C11.038 20.1702 10.9887 20.165 10.9401 20.156C10.5181 20.0766 10.2403 19.6703 10.3194 19.2483C10.617 17.7673 11.2782 16.3835 12.2435 15.2215C12.8356 14.486 13.5216 13.8312 14.284 13.2741C14.6315 13.0219 15.1177 13.0993 15.3699 13.4468C15.6213 13.7936 15.5451 14.2783 15.1995 14.5311Z" fill="#005F8C"/>
<path d="M2.32764 24.8272C2.75615 24.8272 3.10353 24.4798 3.10353 24.0513C3.10353 23.6228 2.75615 23.2754 2.32764 23.2754C1.89913 23.2754 1.55176 23.6228 1.55176 24.0513C1.55176 24.4798 1.89913 24.8272 2.32764 24.8272Z" fill="#005F8C"/>
<path d="M29.4829 20.9473C29.9114 20.9473 30.2588 20.5999 30.2588 20.1714C30.2588 19.7429 29.9114 19.3955 29.4829 19.3955C29.0544 19.3955 28.707 19.7429 28.707 20.1714C28.707 20.5999 29.0544 20.9473 29.4829 20.9473Z" fill="#005F8C"/>
<path d="M32.5864 24.0508C33.0149 24.0508 33.3623 23.7034 33.3623 23.2749C33.3623 22.8464 33.0149 22.499 32.5864 22.499C32.1579 22.499 31.8105 22.8464 31.8105 23.2749C31.8105 23.7034 32.1579 24.0508 32.5864 24.0508Z" fill="#005F8C"/>
</g>
<defs>
<clipPath id="clip0_399_5944">
<rect width="45" height="45" fill="white"/>
</clipPath>
</defs>
</svg>
