<svg width="28" height="28" viewBox="0 0 28 28" fill="none" xmlns="http://www.w3.org/2000/svg">
<rect width="28" height="28" rx="9" fill="#E6F4FA"/>
<path d="M19.4003 14.2083C19.6336 14.2083 19.8336 14.0083 19.8169 13.775C19.5919 10.75 17.0753 8.375 14.0003 8.375C10.9253 8.375 8.40859 10.75 8.18359 13.775C8.16692 14.0083 8.36692 14.2083 8.60026 14.2083H19.4003Z" fill="#005F8C"/>
<path d="M22.333 14.8335H22.2663C21.808 14.8335 21.433 14.4585 21.433 14.0002C21.433 13.5418 21.808 13.1668 22.2663 13.1668C22.7247 13.1668 23.133 13.5418 23.133 14.0002C23.133 14.4585 22.7913 14.8335 22.333 14.8335ZM5.73301 14.8335H5.66634C5.20801 14.8335 4.83301 14.4585 4.83301 14.0002C4.83301 13.5418 5.20801 13.1668 5.66634 13.1668C6.12467 13.1668 6.53301 13.5418 6.53301 14.0002C6.53301 14.4585 6.19134 14.8335 5.73301 14.8335ZM19.8413 8.99183C19.6247 8.99183 19.4163 8.9085 19.2497 8.75016C18.9247 8.42516 18.9247 7.90016 19.2497 7.57516L19.358 7.46683C19.683 7.14183 20.208 7.14183 20.533 7.46683C20.858 7.79183 20.858 8.31683 20.533 8.64183L20.4247 8.75016C20.2663 8.9085 20.058 8.99183 19.8413 8.99183ZM8.15801 8.99183C7.94134 8.99183 7.73301 8.9085 7.56634 8.75016L7.45801 8.6335C7.13301 8.3085 7.13301 7.7835 7.45801 7.4585C7.78301 7.1335 8.30801 7.1335 8.63301 7.4585L8.74134 7.56683C9.06634 7.89183 9.06634 8.41683 8.74134 8.74183C8.58301 8.9085 8.36634 8.99183 8.15801 8.99183ZM13.9997 6.5335C13.5413 6.5335 13.1663 6.19183 13.1663 5.7335V5.66683C13.1663 5.2085 13.5413 4.8335 13.9997 4.8335C14.458 4.8335 14.833 5.2085 14.833 5.66683C14.833 6.12516 14.458 6.5335 13.9997 6.5335Z" fill="#005F8C"/>
<path d="M20.6663 17.125H7.33301C6.99134 17.125 6.70801 16.8417 6.70801 16.5C6.70801 16.1583 6.99134 15.875 7.33301 15.875H20.6663C21.008 15.875 21.2913 16.1583 21.2913 16.5C21.2913 16.8417 21.008 17.125 20.6663 17.125Z" fill="#005F8C"/>
<path d="M19 19.625H9C8.65833 19.625 8.375 19.3417 8.375 19C8.375 18.6583 8.65833 18.375 9 18.375H19C19.3417 18.375 19.625 18.6583 19.625 19C19.625 19.3417 19.3417 19.625 19 19.625Z" fill="#005F8C"/>
<path d="M16.5 22.125H11.5C11.1583 22.125 10.875 21.8417 10.875 21.5C10.875 21.1583 11.1583 20.875 11.5 20.875H16.5C16.8417 20.875 17.125 21.1583 17.125 21.5C17.125 21.8417 16.8417 22.125 16.5 22.125Z" fill="#005F8C"/>
</svg>
