<svg width="30" height="30" viewBox="0 0 30 30" fill="none" xmlns="http://www.w3.org/2000/svg">
<path d="M27.4749 14.263C27.0499 7.01305 20.4624 1.42556 12.8749 2.67556C7.64987 3.53806 3.46238 7.77554 2.64988 13.0005C2.17488 16.0255 2.7999 18.888 4.16241 21.2505L3.04989 25.388C2.79989 26.3255 3.66236 27.1755 4.58736 26.913L8.66237 25.788C10.5124 26.8755 12.6749 27.5005 14.9874 27.5005C22.0374 27.5005 27.8874 21.288 27.4749 14.263ZM21.0999 19.6505C20.9874 19.8755 20.8499 20.0881 20.6749 20.2881C20.3624 20.6256 20.0248 20.8756 19.6498 21.0256C19.2748 21.1881 18.8624 21.2631 18.4249 21.2631C17.7874 21.2631 17.0999 21.1131 16.3874 20.8006C15.6624 20.4881 14.9499 20.0755 14.2374 19.563C13.5124 19.038 12.8374 18.4505 12.1874 17.813C11.5374 17.163 10.9624 16.4755 10.4374 15.763C9.92485 15.0505 9.51238 14.338 9.21238 13.6255C8.91238 12.913 8.7624 12.2256 8.7624 11.5756C8.7624 11.1506 8.83739 10.7381 8.98739 10.3631C9.13739 9.97555 9.37491 9.62556 9.71241 9.31306C10.1124 8.91306 10.5499 8.72556 11.0124 8.72556C11.1874 8.72556 11.3623 8.76305 11.5248 8.83805C11.6873 8.91305 11.8374 9.02555 11.9499 9.18805L13.3998 11.238C13.5123 11.4005 13.5999 11.538 13.6499 11.6755C13.7124 11.813 13.7374 11.938 13.7374 12.063C13.7374 12.213 13.6874 12.3631 13.5999 12.5131C13.5124 12.6631 13.3999 12.813 13.2499 12.963L12.7748 13.463C12.6998 13.538 12.6749 13.613 12.6749 13.713C12.6749 13.763 12.6874 13.813 12.6999 13.863C12.7248 13.913 12.7374 13.9505 12.7499 13.988C12.8624 14.2005 13.0624 14.463 13.3374 14.788C13.6249 15.113 13.9249 15.4505 14.2499 15.7755C14.5874 16.113 14.9124 16.413 15.2499 16.7005C15.5749 16.9755 15.8499 17.1631 16.0624 17.2756C16.0999 17.2881 16.1374 17.313 16.1749 17.3255C16.2249 17.3505 16.2749 17.3506 16.3374 17.3506C16.4499 17.3506 16.5249 17.3131 16.5999 17.2381L17.0749 16.763C17.2374 16.6005 17.3874 16.4881 17.5249 16.4131C17.6749 16.3256 17.8124 16.2755 17.9749 16.2755C18.0999 16.2755 18.2249 16.3005 18.3624 16.363C18.4999 16.4255 18.6499 16.5006 18.7999 16.6131L20.8749 18.088C21.0374 18.2005 21.1499 18.3381 21.2249 18.4881C21.2874 18.6506 21.3249 18.8005 21.3249 18.9755C21.2499 19.188 21.1999 19.4255 21.0999 19.6505Z" fill="#34A853"/>
</svg>
