<svg width="335" height="95" viewBox="0 0 335 95" fill="none" xmlns="http://www.w3.org/2000/svg">
<path opacity="0.1" d="M235.812 48.5373C276.563 40.0778 322.719 62.2637 358.793 41.5047C381.359 28.5176 392.566 2.13112 398.167 -23.294C403.769 -48.7191 405.418 -75.3379 415.862 -99.1859C427.25 -125.197 448.12 -145.703 463.731 -169.421C501.168 -226.286 505.84 -303.201 475.563 -364.18C469.817 -375.758 461.598 -387.752 448.987 -390.588C433.564 -394.052 418.695 -382.097 410.388 -368.646C397.328 -347.5 393.933 -321.961 391.335 -297.248C388.736 -272.535 386.442 -247.068 375.129 -224.941C363.816 -202.813 340.969 -184.564 316.212 -186.699C303.02 -187.838 290.52 -194.536 277.287 -193.956C255.235 -192.993 238.976 -172.165 232.271 -151.138C225.565 -130.111 225.138 -107.395 217.618 -86.6467C210.097 -65.8987 191.829 -46.1629 169.814 -47.7791C147.983 -49.3843 133.204 -70.5298 124.447 -90.5956C115.691 -110.661 108.501 -133.287 90.4139 -145.613C55.1021 -169.683 2.05483 -139.727 -34.1385 -162.446C-52.2089 -173.791 -61.0018 -196.096 -61.5637 -217.426C-62.1255 -238.756 -55.7187 -259.586 -49.3785 -279.955L-57.1391 -277.596C-77.8388 -248.663 -98.9628 -218.838 -107.661 -184.344C-116.359 -149.85 -109.899 -109.127 -82.5891 -86.3299C-66.8488 -73.1922 -46.261 -67.4182 -29.1965 -56.0536C1.46791 -35.6343 17.3802 0.0352769 36.4956 31.5264C55.6109 63.0176 84.2642 94.359 121.097 94.9586C162.774 95.6331 195 57.0174 235.812 48.549L235.812 48.5373Z" fill="white"/>
</svg>
